Handy.ufo
<glyph name="Capital A" format="1">
  <advance width="1024"/>
  <unicode hex="0041"/>
  <outline>
    <contour>
      <point x="535.367" y="934.459" type="curve"/>
      <point x="520.713" y="926.674" type="line" smooth="yes"/>
      <point x="508.517" y="922.978"/>
      <point x="497.78" y="916.004"/>
      <point x="487.326" y="910.912" type="curve" smooth="yes"/>
      <point x="486.802" y="909.379"/>
      <point x="485.039" y="908.356"/>
      <point x="483.645" y="907.26" type="curve" smooth="yes"/>
      <point x="481.252" y="904.73"/>
      <point x="478.807" y="902.234"/>
      <point x="476.301" y="899.773" type="curve" smooth="yes"/>
      <point x="473.999" y="897.607"/>
      <point x="471.811" y="895.352"/>
      <point x="469.502" y="893.207" type="curve" smooth="yes"/>
      <point x="468.295" y="891.373"/>
      <point x="465.697" y="890.058"/>
      <point x="464.818" y="887.973" type="curve" smooth="yes"/>
      <point x="461.672" y="883.924"/>
      <point x="458.607" y="879.821"/>
      <point x="454.676" y="876.193" type="curve" smooth="yes"/>
      <point x="450.384" y="871.931"/>
      <point x="446.71" y="867.372"/>
      <point x="442.906" y="862.844" type="curve" smooth="yes"/>
      <point x="438.623" y="858.292"/>
      <point x="434.956" y="853.421"/>
      <point x="431.277" y="848.561" type="curve" smooth="yes"/>
      <point x="425.099" y="840.899"/>
      <point x="419.427" y="833.001"/>
      <point x="413.191" y="825.367" type="curve" smooth="yes"/>
      <point x="406.149" y="816.725"/>
      <point x="399.397" y="807.943"/>
      <point x="393.158" y="798.928" type="curve" smooth="yes"/>
      <point x="386.156" y="788.507"/>
      <point x="379.839" y="777.801"/>
      <point x="373.328" y="767.189" type="curve" smooth="yes"/>
      <point x="365.582" y="753.223"/>
      <point x="357.57" y="739.324"/>
      <point x="351.469" y="724.844" type="curve" smooth="yes"/>
      <point x="343.9" y="707.515"/>
      <point x="337.489" y="689.9"/>
      <point x="331.904" y="672.115" type="curve" smooth="yes"/>
      <point x="325.99" y="652.078"/>
      <point x="319.894" y="632.075"/>
      <point x="314.289" y="611.982" type="curve" smooth="yes"/>
      <point x="308.298" y="591.886"/>
      <point x="301.647" y="571.878"/>
      <point x="297.375" y="551.498" type="curve" smooth="yes"/>
      <point x="292.14" y="527.254"/>
      <point x="287.184" y="502.971"/>
      <point x="282.648" y="478.641" type="curve" smooth="yes"/>
      <point x="278.315" y="454.977"/>
      <point x="274.256" y="431.286"/>
      <point x="270.814" y="407.531" type="curve" smooth="yes"/>
      <point x="267.518" y="387.063"/>
      <point x="264.95" y="366.536"/>
      <point x="262.547" y="345.992" type="curve" smooth="yes"/>
      <point x="260.666" y="330.456"/>
      <point x="258.883" y="314.875"/>
      <point x="258.936" y="299.256" type="curve" smooth="yes"/>
      <point x="258.925" y="291.405"/>
      <point x="258.64" y="283.476"/>
      <point x="260.289" y="275.703" type="curve" smooth="yes"/>
      <point x="261.421" y="271.519"/>
      <point x="262.832" y="267.388"/>
      <point x="263.26" y="263.102" type="curve"/>
      <point x="296.723" y="277" type="line"/>
      <point x="296.014" y="281.28"/>
      <point x="294.619" y="285.424"/>
      <point x="293.457" y="289.633" type="curve" smooth="yes"/>
      <point x="291.89" y="297.121"/>
      <point x="291.825" y="304.748"/>
      <point x="291.574" y="312.316" type="curve" smooth="yes"/>
      <point x="291.097" y="327.711"/>
      <point x="292.691" y="343.095"/>
      <point x="294.412" y="358.418" type="curve" smooth="yes"/>
      <point x="296.595" y="378.869"/>
      <point x="298.925" y="399.307"/>
      <point x="302.211" y="419.67" type="curve" smooth="yes"/>
      <point x="305.468" y="443.361"/>
      <point x="309.379" y="466.99"/>
      <point x="313.654" y="490.58" type="curve" smooth="yes"/>
      <point x="316.594" y="506.39"/>
      <point x="319.755" y="522.173"/>
      <point x="323.09" y="537.934" type="curve"/>
      <point x="324.87" y="537.44"/>
      <point x="326.644" y="536.935"/>
      <point x="328.43" y="536.451" type="curve" smooth="yes"/>
      <point x="350.969" y="530.449"/>
      <point x="374.792" y="527.925"/>
      <point x="398.578" y="525.963" type="curve" smooth="yes"/>
      <point x="444.968" y="522.387"/>
      <point x="491.476" y="525.29"/>
      <point x="537.65" y="528.826" type="curve" smooth="yes"/>
      <point x="574.796" y="531.9"/>
      <point x="611.922" y="535.17"/>
      <point x="648.73" y="539.887" type="curve"/>
      <point x="679.008" y="556.107" type="line"/>
      <point x="641.863" y="550.854"/>
      <point x="604.326" y="547.214"/>
      <point x="566.705" y="544.135" type="curve" smooth="yes"/>
      <point x="521.281" y="540.648"/>
      <point x="475.518" y="537.755"/>
      <point x="429.916" y="541.697" type="curve" smooth="yes"/>
      <point x="406.932" y="543.773"/>
      <point x="383.973" y="546.486"/>
      <point x="362.311" y="552.566" type="curve" smooth="yes"/>
      <point x="353.678" y="555.031"/>
      <point x="345.004" y="557.546"/>
      <point x="336.631" y="560.4" type="curve"/>
      <point x="326.959" y="555.807" type="line" smooth="yes"/>
      <point x="327.522" y="558.353"/>
      <point x="328.07" y="560.902"/>
      <point x="328.643" y="563.447" type="curve" smooth="yes"/>
      <point x="333.31" y="583.818"/>
      <point x="340.148" y="603.83"/>
      <point x="346.139" y="623.977" type="curve" smooth="yes"/>
      <point x="351.639" y="644.071"/>
      <point x="357.637" y="664.076"/>
      <point x="363.672" y="684.076" type="curve" smooth="yes"/>
      <point x="369.551" y="701.817"/>
      <point x="375.984" y="719.448"/>
      <point x="383.865" y="736.711" type="curve" smooth="yes"/>
      <point x="390.082" y="751.203"/>
      <point x="398.425" y="765.033"/>
      <point x="406.248" y="779.014" type="curve" smooth="yes"/>
      <point x="413.153" y="789.532"/>
      <point x="419.342" y="800.352"/>
      <point x="426.668" y="810.697" type="curve" smooth="yes"/>
      <point x="433.001" y="819.64"/>
      <point x="439.785" y="828.362"/>
      <point x="446.855" y="836.955" type="curve" smooth="yes"/>
      <point x="452.962" y="844.744"/>
      <point x="458.97" y="852.566"/>
      <point x="465.252" y="860.27" type="curve" smooth="yes"/>
      <point x="468.953" y="865.175"/>
      <point x="472.851" y="870.013"/>
      <point x="477.434" y="874.449" type="curve" smooth="yes"/>
      <point x="480.624" y="879.249"/>
      <point x="484.718" y="883.577"/>
      <point x="489.158" y="887.699" type="curve" smooth="yes"/>
      <point x="492.799" y="891.647"/>
      <point x="496.357" y="895.708"/>
      <point x="499.295" y="900.01" type="curve" smooth="yes"/>
      <point x="500.052" y="901.515"/>
      <point x="502.461" y="902.249"/>
      <point x="503.48" y="903.551" type="curve" smooth="yes"/>
      <point x="504.575" y="904.948"/>
      <point x="503.004" y="904.072"/>
      <point x="504.605" y="904.779" type="curve" smooth="yes"/>
      <point x="506.266" y="907.283"/>
      <point x="509.053" y="909.157"/>
      <point x="510.998" y="911.52" type="curve" smooth="yes"/>
      <point x="512.242" y="912.379"/>
      <point x="513.201" y="913.457"/>
      <point x="514.15" y="914.539" type="curve" smooth="yes"/>
      <point x="523.67" y="910.658"/>
      <point x="532.063" y="905.041"/>
      <point x="540.191" y="899.648" type="curve" smooth="yes"/>
      <point x="561.292" y="883.843"/>
      <point x="580.407" y="866.311"/>
      <point x="597.305" y="847.66" type="curve" smooth="yes"/>
      <point x="601.653" y="842.861"/>
      <point x="605.693" y="837.896"/>
      <point x="609.887" y="833.014" type="curve" smooth="yes"/>
      <point x="635.17" y="802.175"/>
      <point x="652.423" y="767.986"/>
      <point x="663.484" y="732.453" type="curve" smooth="yes"/>
      <point x="666.184" y="723.782"/>
      <point x="668.189" y="714.987"/>
      <point x="670.541" y="706.254" type="curve" smooth="yes"/>
      <point x="682.562" y="655.018"/>
      <point x="686.272" y="602.823"/>
      <point x="685.418" y="550.799" type="curve" smooth="yes"/>
      <point x="685.224" y="539"/>
      <point x="684.58" y="527.206"/>
      <point x="684.162" y="515.41" type="curve" smooth="yes"/>
      <point x="681.146" y="466.073"/>
      <point x="675.517" y="416.844"/>
      <point x="667.117" y="367.891" type="curve" smooth="yes"/>
      <point x="661.766" y="336.706"/>
      <point x="659.448" y="326.948"/>
      <point x="653.018" y="296.135" type="curve" smooth="yes"/>
      <point x="643.945" y="254.497"/>
      <point x="633.094" y="213.115"/>
      <point x="622.428" y="171.715" type="curve"/>
      <point x="649.102" y="181.854" type="line"/>
      <point x="659.037" y="223.063"/>
      <point x="669.21" y="264.246"/>
      <point x="677.816" y="305.643" type="curve" smooth="yes"/>
      <point x="692.301" y="378.426"/>
      <point x="704.633" y="451.52"/>
      <point x="708.838" y="525.18" type="curve" smooth="yes"/>
      <point x="709.349" y="537.036"/>
      <point x="710.073" y="548.889"/>
      <point x="710.371" y="560.75" type="curve" smooth="yes"/>
      <point x="711.686" y="613.147"/>
      <point x="708.673" y="665.722"/>
      <point x="697.197" y="717.426" type="curve" smooth="yes"/>
      <point x="694.944" y="726.256"/>
      <point x="693.012" y="735.14"/>
      <point x="690.436" y="743.916" type="curve" smooth="yes"/>
      <point x="679.871" y="779.897"/>
      <point x="663.368" y="814.652"/>
      <point x="638.361" y="846.066" type="curve" smooth="yes"/>
      <point x="634.237" y="851.032"/>
      <point x="630.262" y="856.074"/>
      <point x="625.986" y="860.961" type="curve" smooth="yes"/>
      <point x="609.41" y="879.907"/>
      <point x="590.769" y="897.825"/>
      <point x="570.428" y="914.359" type="curve" smooth="yes"/>
      <point x="559.783" y="922.014"/>
      <point x="548.83" y="929.95"/>
    </contour>
    <contour>
      <point x="507.221" y="916.959" type="line" smooth="yes"/>
      <point x="508.128" y="916.694"/>
      <point x="509.024" y="916.411"/>
      <point x="509.91" y="916.111" type="curve"/>
      <point x="477.026" y="900.869"/>
      <point x="484.466" y="904.607"/>
      <point x="493.98" y="909.014" type="curve" smooth="yes"/>
      <point x="494.388" y="909.167"/>
      <point x="494.751" y="909.302"/>
      <point x="494.922" y="909.582" type="curve" smooth="yes"/>
      <point x="494.894" y="909.62"/>
      <point x="494.865" y="909.659"/>
      <point x="494.838" y="909.697" type="curve" smooth="yes"/>
      <point x="494.76" y="909.784"/>
      <point x="494.683" y="909.87"/>
      <point x="494.605" y="909.957" type="curve" smooth="yes"/>
    </contour>
  </outline>
</glyph>
<glyph name="Capital B" format="1">
  <advance width="1024"/>
  <unicode hex="0042"/>
  <outline>
    <contour>
      <point x="494.467" y="971.066" type="curve" smooth="yes"/>
      <point x="490.466" y="971.011"/>
      <point x="486.443" y="970.756"/>
      <point x="482.412" y="970.314" type="curve" smooth="yes"/>
      <point x="470.785" y="967.965"/>
      <point x="459.426" y="966.376"/>
      <point x="448.531" y="961.25" type="curve" smooth="yes"/>
      <point x="417.182" y="946.5"/>
      <point x="387.323" y="928.789"/>
      <point x="361.426" y="905.697" type="curve" smooth="yes"/>
      <point x="332.16" y="877.974"/>
      <point x="304.147" y="848.805"/>
      <point x="279.758" y="816.631" type="curve" smooth="yes"/>
      <point x="265.563" y="797.637"/>
      <point x="251.178" y="778.006"/>
      <point x="244.807" y="754.801" type="curve" smooth="yes"/>
      <point x="243.184" y="745.489"/>
      <point x="242.444" y="739.12"/>
      <point x="250.348" y="732.658" type="curve"/>
      <point x="275.26" y="748.777" type="line"/>
      <point x="267.889" y="753.142"/>
      <point x="269.12" y="759.961"/>
      <point x="270.479" y="767.313" type="curve" smooth="yes"/>
      <point x="276.485" y="789.711"/>
      <point x="290.341" y="808.675"/>
      <point x="303.91" y="827.053" type="curve" smooth="yes"/>
      <point x="323.696" y="853.184"/>
      <point x="345.602" y="877.77"/>
      <point x="369.063" y="900.662" type="curve" smooth="yes"/>
      <point x="374.13" y="905.607"/>
      <point x="379.39" y="910.352"/>
      <point x="384.553" y="915.197" type="curve" smooth="yes"/>
      <point x="397.777" y="926.028"/>
      <point x="402.725" y="930.693"/>
      <point x="416.98" y="939.98" type="curve" smooth="yes"/>
      <point x="422.404" y="943.514"/>
      <point x="427.799" y="947.189"/>
      <point x="433.68" y="949.895" type="curve" smooth="yes"/>
      <point x="435.79" y="950.865"/>
      <point x="426.16" y="945.032"/>
      <point x="428.471" y="945.268" type="curve" smooth="yes"/>
      <point x="434.348" y="945.868"/>
      <point x="439.529" y="949.476"/>
      <point x="445.217" y="951.074" type="curve" smooth="yes"/>
      <point x="450.626" y="952.594"/>
      <point x="456.204" y="953.428"/>
      <point x="461.697" y="954.605" type="curve" smooth="yes"/>
      <point x="482.681" y="957.228"/>
      <point x="503.487" y="954.617"/>
      <point x="522.453" y="944.938" type="curve" smooth="yes"/>
      <point x="534.767" y="938.653"/>
      <point x="536.596" y="936.064"/>
      <point x="547.068" y="927.197" type="curve" smooth="yes"/>
      <point x="565.785" y="908.473"/>
      <point x="578.171" y="884.927"/>
      <point x="584.33" y="859.246" type="curve" smooth="yes"/>
      <point x="585.572" y="854.069"/>
      <point x="586.298" y="848.783"/>
      <point x="587.281" y="843.551" type="curve" smooth="yes"/>
      <point x="590.934" y="814.824"/>
      <point x="587.429" y="785.974"/>
      <point x="579.871" y="758.152" type="curve" smooth="yes"/>
      <point x="578.182" y="751.933"/>
      <point x="576.116" y="745.821"/>
      <point x="574.238" y="739.656" type="curve" smooth="yes"/>
      <point x="565.433" y="713.141"/>
      <point x="553.827" y="687.656"/>
      <point x="539.959" y="663.418" type="curve" smooth="yes"/>
      <point x="530.828" y="647.459"/>
      <point x="527.817" y="643.357"/>
      <point x="517.811" y="628.078" type="curve" smooth="yes"/>
      <point x="506.729" y="612.893"/>
      <point x="495.806" y="597.113"/>
      <point x="483.057" y="583.107" type="curve" smooth="yes"/>
      <point x="481.135" y="582.798"/>
      <point x="479.21" y="582.4"/>
      <point x="477.275" y="581.885" type="curve" smooth="yes"/>
      <point x="454.074" y="563.549" type="line" smooth="yes"/>
      <point x="458.009" y="565.092"/>
      <point x="461.956" y="566.054"/>
      <point x="465.916" y="566.607" type="curve"/>
      <point x="463.491" y="564.62"/>
      <point x="460.845" y="562.92"/>
      <point x="458.311" y="561.072" type="curve"/>
      <point x="460.235" y="562.213"/>
      <point x="461.914" y="563.18"/>
      <point x="463.551" y="564.121" type="curve" smooth="yes"/>
      <point x="448.395" y="552.488" type="line"/>
      <point x="463.902" y="555.946"/>
      <point x="454.393" y="553.357"/>
      <point x="477.107" y="567.174" type="curve" smooth="yes"/>
      <point x="483.7" y="566.986"/>
      <point x="490.339" y="566.024"/>
      <point x="497.041" y="564.914" type="curve" smooth="yes"/>
      <point x="516.937" y="560.712"/>
      <point x="535.559" y="551.65"/>
      <point x="549.982" y="537.105" type="curve" smooth="yes"/>
      <point x="552.959" y="534.103"/>
      <point x="555.524" y="530.719"/>
      <point x="558.295" y="527.525" type="curve" smooth="yes"/>
      <point x="568.952" y="512.985"/>
      <point x="575.428" y="496.144"/>
      <point x="578.803" y="478.506" type="curve" smooth="yes"/>
      <point x="580.876" y="467.667"/>
      <point x="581.138" y="460.687"/>
      <point x="582.027" y="449.693" type="curve" smooth="yes"/>
      <point x="582.732" y="423.744"/>
      <point x="579.965" y="397.555"/>
      <point x="573.008" y="372.5" type="curve" smooth="yes"/>
      <point x="571.502" y="367.076"/>
      <point x="569.604" y="361.767"/>
      <point x="567.902" y="356.4" type="curve" smooth="yes"/>
      <point x="557.786" y="328.241"/>
      <point x="542.698" y="301.727"/>
      <point x="521.584" y="280.305" type="curve" smooth="yes"/>
      <point x="517.352" y="276.011"/>
      <point x="512.656" y="272.201"/>
      <point x="508.191" y="268.148" type="curve" smooth="yes"/>
      <point x="500.939" y="262.85"/>
      <point x="486.667" y="251.565"/>
      <point x="477.902" y="248.58" type="curve" smooth="yes"/>
      <point x="475.316" y="247.699"/>
      <point x="486.626" y="254.04"/>
      <point x="483.896" y="254.172" type="curve" smooth="yes"/>
      <point x="478.133" y="254.451"/>
      <point x="472.956" y="250.448"/>
      <point x="467.348" y="249.09" type="curve" smooth="yes"/>
      <point x="453.166" y="245.656"/>
      <point x="448.149" y="245.958"/>
      <point x="433.658" y="245.012" type="curve" smooth="yes"/>
      <point x="405.749" y="244.853"/>
      <point x="378.743" y="252.116"/>
      <point x="353.281" y="263.145" type="curve" smooth="yes"/>
      <point x="348.15" y="265.367"/>
      <point x="343.154" y="267.893"/>
      <point x="338.092" y="270.268" type="curve" smooth="yes"/>
      <point x="313.22" y="282.514"/>
      <point x="290.024" y="297.93"/>
      <point x="265.01" y="309.902" type="curve" smooth="yes"/>
      <point x="260.714" y="311.959"/>
      <point x="256.29" y="313.736"/>
      <point x="251.93" y="315.652" type="curve" smooth="yes"/>
      <point x="241.232" y="319.875"/>
      <point x="230.194" y="323.485"/>
      <point x="218.66" y="324.439" type="curve" smooth="yes"/>
      <point x="215.744" y="324.681"/>
      <point x="212.809" y="324.501"/>
      <point x="209.883" y="324.533" type="curve" smooth="yes"/>
      <point x="187.314" y="308.076" type="line" smooth="yes"/>
      <point x="190.252" y="308.212"/>
      <point x="193.188" y="308.576"/>
      <point x="196.127" y="308.482" type="curve" smooth="yes"/>
      <point x="207.744" y="308.114"/>
      <point x="218.922" y="304.802"/>
      <point x="229.768" y="300.875" type="curve" smooth="yes"/>
      <point x="234.177" y="299.063"/>
      <point x="238.659" y="297.418"/>
      <point x="242.996" y="295.437" type="curve" smooth="yes"/>
      <point x="268.295" y="283.886"/>
      <point x="291.552" y="268.38"/>
      <point x="316.371" y="255.908" type="curve" smooth="yes"/>
      <point x="321.454" y="253.485"/>
      <point x="326.468" y="250.912"/>
      <point x="331.619" y="248.639" type="curve" smooth="yes"/>
      <point x="357.276" y="237.316"/>
      <point x="384.531" y="229.782"/>
      <point x="412.73" y="229.619" type="curve" smooth="yes"/>
      <point x="427.442" y="230.371"/>
      <point x="432.393" y="229.991"/>
      <point x="446.84" y="233.26" type="curve" smooth="yes"/>
      <point x="469.852" y="238.466"/>
      <point x="477.09" y="244.506"/>
      <point x="501.949" y="257.812" type="curve" smooth="yes"/>
      <point x="507.248" y="260.649"/>
      <point x="512.489" y="263.623"/>
      <point x="517.486" y="266.963" type="curve" smooth="yes"/>
      <point x="522.525" y="270.33"/>
      <point x="527.167" y="274.253"/>
      <point x="532.008" y="277.898" type="curve" smooth="yes"/>
      <point x="536.43" y="282.035"/>
      <point x="541.083" y="285.938"/>
      <point x="545.275" y="290.307" type="curve" smooth="yes"/>
      <point x="566.278" y="312.191"/>
      <point x="581.26" y="339.079"/>
      <point x="591.42" y="367.492" type="curve" smooth="yes"/>
      <point x="593.126" y="372.93"/>
      <point x="595.025" y="378.312"/>
      <point x="596.537" y="383.807" type="curve" smooth="yes"/>
      <point x="603.519" y="409.182"/>
      <point x="606.396" y="435.66"/>
      <point x="605.576" y="461.934" type="curve" smooth="yes"/>
      <point x="604.664" y="472.994"/>
      <point x="604.361" y="480.259"/>
      <point x="602.285" y="491.176" type="curve" smooth="yes"/>
      <point x="598.851" y="509.235"/>
      <point x="592.229" y="526.511"/>
      <point x="581.398" y="541.447" type="curve" smooth="yes"/>
      <point x="578.577" y="544.75"/>
      <point x="575.967" y="548.245"/>
      <point x="572.936" y="551.355" type="curve" smooth="yes"/>
      <point x="558.416" y="566.256"/>
      <point x="539.661" y="575.839"/>
      <point x="519.57" y="580.664" type="curve" smooth="yes"/>
      <point x="512.432" y="582.11"/>
      <point x="505.381" y="583.368"/>
      <point x="498.32" y="583.781" type="curve"/>
      <point x="514.554" y="600.111"/>
      <point x="527.578" y="619.527"/>
      <point x="540.85" y="638.191" type="curve" smooth="yes"/>
      <point x="544.559" y="643.947"/>
      <point x="548.381" y="649.632"/>
      <point x="551.977" y="655.459" type="curve" smooth="yes"/>
      <point x="570.454" y="685.406"/>
      <point x="586.085" y="717.097"/>
      <point x="597.221" y="750.521" type="curve" smooth="yes"/>
      <point x="599.132" y="756.761"/>
      <point x="601.235" y="762.945"/>
      <point x="602.955" y="769.24" type="curve" smooth="yes"/>
      <point x="610.665" y="797.458"/>
      <point x="614.228" y="826.752"/>
      <point x="610.41" y="855.889" type="curve" smooth="yes"/>
      <point x="609.384" y="861.195"/>
      <point x="608.614" y="866.558"/>
      <point x="607.332" y="871.809" type="curve" smooth="yes"/>
      <point x="600.952" y="897.934"/>
      <point x="588.421" y="921.989"/>
      <point x="569.441" y="941.15" type="curve" smooth="yes"/>
      <point x="558.874" y="950.262"/>
      <point x="556.86" y="953.053"/>
      <point x="544.422" y="959.584" type="curve" smooth="yes"/>
      <point x="528.756" y="967.81"/>
      <point x="511.805" y="971.306"/>
    </contour>
    <contour>
      <point x="353.461" y="763.715" type="curve"/>
      <point x="327.496" y="749.414" type="line"/>
      <point x="332.692" y="737.939"/>
      <point x="336.309" y="725.799"/>
      <point x="339.85" y="713.732" type="curve" smooth="yes"/>
      <point x="346.044" y="691.728"/>
      <point x="349.927" y="669.176"/>
      <point x="353.658" y="646.652" type="curve" smooth="yes"/>
      <point x="358.982" y="612.657"/>
      <point x="360.664" y="578.286"/>
      <point x="361.887" y="543.947" type="curve" smooth="yes"/>
      <point x="363.34" y="501.021"/>
      <point x="360" y="458.181"/>
      <point x="354.848" y="415.605" type="curve" smooth="yes"/>
      <point x="351.331" y="389.352"/>
      <point x="345.734" y="363.459"/>
      <point x="339.852" y="337.656" type="curve"/>
      <point x="362.943" y="348.793" type="line"/>
      <point x="368.519" y="374.606"/>
      <point x="373.834" y="400.494"/>
      <point x="377.264" y="426.697" type="curve" smooth="yes"/>
      <point x="382.212" y="469.437"/>
      <point x="385.437" y="512.394"/>
      <point x="384.314" y="555.459" type="curve" smooth="yes"/>
      <point x="383.482" y="590.128"/>
      <point x="382.313" y="624.85"/>
      <point x="377.406" y="659.23" type="curve" smooth="yes"/>
      <point x="373.91" y="681.998"/>
      <point x="370.233" y="704.786"/>
      <point x="364.35" y="727.082" type="curve" smooth="yes"/>
      <point x="360.974" y="739.367"/>
      <point x="357.402" y="751.599"/>
    </contour>
  </outline>
</glyph>
<glyph name="Capital C" format="1">
  <advance width="1024"/>
  <unicode hex="0043"/>
  <outline>
    <contour>
      <point x="131.633" y="875.004" type="curve" smooth="yes"/>
      <point x="148.064" y="893.836"/>
      <point x="171.645" y="904.22"/>
      <point x="192.399" y="916.208" type="curve" smooth="yes"/>
      <point x="216.879" y="926.417"/>
      <point x="243.455" y="927.572"/>
      <point x="269.442" y="928.872" type="curve" smooth="yes"/>
      <point x="302.265" y="930.009"/>
      <point x="335.019" y="927.755"/>
      <point x="367.647" y="924.223" type="curve" smooth="yes"/>
      <point x="395.696" y="920.719"/>
      <point x="423.223" y="914.01"/>
      <point x="450.375" y="905.979" type="curve" smooth="yes"/>
      <point x="475.981" y="897.873"/>
      <point x="501.672" y="890.229"/>
      <point x="527.922" y="884.795" type="curve" smooth="yes"/>
      <point x="546.838" y="881.264"/>
      <point x="566.126" y="880"/>
      <point x="585.296" y="881.554" type="curve" smooth="yes"/>
      <point x="597.705" y="882.56"/>
      <point x="603.19" y="883.805"/>
      <point x="615.497" y="885.943" type="curve" smooth="yes"/>
      <point x="645.145" y="892.464"/>
      <point x="673.779" y="903.285"/>
      <point x="700.883" y="917.404" type="curve" smooth="yes"/>
      <point x="704.367" y="919.502"/>
      <point x="714.912" y="925.61"/>
      <point x="711.334" y="923.697" type="curve" smooth="yes"/>
      <point x="704.84" y="920.223"/>
      <point x="698.869" y="915.631"/>
      <point x="692.128" y="912.722" type="curve" smooth="yes"/>
      <point x="689.534" y="911.602"/>
      <point x="696.613" y="916.273"/>
      <point x="698.698" y="918.244" type="curve" smooth="yes"/>
      <point x="704.22" y="923.464"/>
      <point x="706.142" y="926.892"/>
      <point x="708.521" y="934.055" type="curve" smooth="yes"/>
      <point x="710.84" y="949.081"/>
      <point x="702.934" y="959.353"/>
      <point x="693.454" y="969.431" type="curve" smooth="yes"/>
      <point x="680.293" y="980.712"/>
      <point x="664.219" y="986.569"/>
      <point x="647.214" y="986.366" type="curve" smooth="yes"/>
      <point x="642.614" y="986.311"/>
      <point x="638.039" y="985.661"/>
      <point x="633.452" y="985.309" type="curve" smooth="yes"/>
      <point x="605.159" y="980.373"/>
      <point x="579.156" y="967.277"/>
      <point x="554.081" y="953.187" type="curve" smooth="yes"/>
      <point x="553.443" y="952.828"/>
      <point x="553.027" y="952.136"/>
      <point x="552.431" y="951.703" type="curve" smooth="yes"/>
      <point x="543.399" y="945.126"/>
      <point x="534.283" y="938.677"/>
      <point x="525.208" y="932.164" type="curve" smooth="yes"/>
      <point x="486.628" y="901.518"/>
      <point x="452.37" y="864.926"/>
      <point x="426.376" y="821.873" type="curve" smooth="yes"/>
      <point x="408.057" y="791.532"/>
      <point x="406.333" y="783.65"/>
      <point x="392.844" y="750.639" type="curve" smooth="yes"/>
      <point x="389.174" y="737.561"/>
      <point x="384.771" y="724.686"/>
      <point x="381.832" y="711.406" type="curve" smooth="yes"/>
      <point x="369.247" y="654.537"/>
      <point x="369.553" y="594.499"/>
      <point x="379.609" y="537.233" type="curve" smooth="yes"/>
      <point x="382.214" y="522.397"/>
      <point x="386.192" y="507.864"/>
      <point x="389.483" y="493.18" type="curve" smooth="yes"/>
      <point x="394.202" y="478.981"/>
      <point x="398.182" y="464.487"/>
      <point x="403.639" y="450.584" type="curve" smooth="yes"/>
      <point x="419.906" y="409.135"/>
      <point x="442.671" y="369.258"/>
      <point x="474.584" y="338.917" type="curve" smooth="yes"/>
      <point x="505.252" y="309.758"/>
      <point x="514.281" y="309.143"/>
      <point x="551.851" y="291.034" type="curve" smooth="yes"/>
      <point x="568.366" y="287.047"/>
      <point x="584.598" y="281.413"/>
      <point x="601.396" y="279.073" type="curve" smooth="yes"/>
      <point x="667.789" y="269.824"/>
      <point x="735.731" y="281.857"/>
      <point x="800.396" y="296.873" type="curve" smooth="yes"/>
      <point x="828.022" y="303.289"/>
      <point x="855.261" y="311.427"/>
      <point x="882.693" y="318.704" type="curve"/>
      <point x="882.693" y="318.704"/>
      <point x="870.837" y="309.159"/>
      <point x="870.837" y="309.159" type="curve"/>
      <point x="870.837" y="309.159" type="line"/>
      <point x="810.228" y="292.52"/>
      <point x="771.514" y="279.986"/>
      <point x="710.198" y="270.204" type="curve" smooth="yes"/>
      <point x="668.028" y="263.476"/>
      <point x="625.035" y="259.855"/>
      <point x="582.463" y="265.272" type="curve" smooth="yes"/>
      <point x="565.271" y="267.46"/>
      <point x="548.636" y="273.091"/>
      <point x="531.722" y="277" type="curve" smooth="yes"/>
      <point x="493.395" y="295.252"/>
      <point x="484.438" y="295.66"/>
      <point x="453.24" y="325.308" type="curve" smooth="yes"/>
      <point x="421.082" y="355.868"/>
      <point x="398.148" y="396.118"/>
      <point x="381.755" y="437.869" type="curve" smooth="yes"/>
      <point x="376.264" y="451.855"/>
      <point x="372.252" y="466.434"/>
      <point x="367.5" y="480.717" type="curve" smooth="yes"/>
      <point x="364.152" y="495.467"/>
      <point x="360.129" y="510.065"/>
      <point x="357.458" y="524.966" type="curve" smooth="yes"/>
      <point x="347.184" y="582.287"/>
      <point x="346.284" y="642.598"/>
      <point x="358.375" y="699.705" type="curve" smooth="yes"/>
      <point x="361.201" y="713.053"/>
      <point x="365.518" y="726.004"/>
      <point x="369.089" y="739.153" type="curve" smooth="yes"/>
      <point x="382.383" y="772.404"/>
      <point x="384.006" y="780.224"/>
      <point x="402.185" y="810.823" type="curve" smooth="yes"/>
      <point x="427.768" y="853.887"/>
      <point x="461.566" y="890.674"/>
      <point x="499.673" y="921.611" type="curve" smooth="yes"/>
      <point x="536.057" y="948.268"/>
      <point x="528.035" y="943.47"/>
      <point x="576.549" y="972.116" type="curve" smooth="yes"/>
      <point x="597.166" y="984.29"/>
      <point x="619.389" y="995.051"/>
      <point x="642.294" y="1001.54" type="curve" smooth="yes"/>
      <point x="647.803" y="1003.1"/>
      <point x="653.473" y="1003.95"/>
      <point x="659.062" y="1005.15" type="curve" smooth="yes"/>
      <point x="663.853" y="1005.47"/>
      <point x="668.634" y="1006.12"/>
      <point x="673.434" y="1006.1" type="curve" smooth="yes"/>
      <point x="691.25" y="1006.05"/>
      <point x="708.082" y="999.504"/>
      <point x="721.816" y="987.689" type="curve" smooth="yes"/>
      <point x="732.155" y="976.767"/>
      <point x="740.565" y="965.52"/>
      <point x="739.087" y="949.244" type="curve" smooth="yes"/>
      <point x="737.682" y="943.748"/>
      <point x="737.698" y="941.934"/>
      <point x="734.397" y="937.093" type="curve" smooth="yes"/>
      <point x="731.977" y="933.544"/>
      <point x="725.892" y="927.441"/>
      <point x="722.593" y="925.234" type="curve" smooth="yes"/>
      <point x="699.562" y="909.832"/>
      <point x="693.961" y="906.804"/>
      <point x="675.873" y="896.427" type="curve" smooth="yes"/>
      <point x="648.586" y="882.888"/>
      <point x="619.979" y="872.204"/>
      <point x="590.321" y="866.058" type="curve" smooth="yes"/>
      <point x="577.492" y="863.935"/>
      <point x="572.722" y="862.835"/>
      <point x="559.802" y="861.92" type="curve" smooth="yes"/>
      <point x="540.382" y="860.546"/>
      <point x="520.892" y="861.972"/>
      <point x="501.757" y="865.624" type="curve" smooth="yes"/>
      <point x="475.454" y="871.21"/>
      <point x="449.649" y="878.782"/>
      <point x="423.971" y="886.947" type="curve" smooth="yes"/>
      <point x="397.067" y="894.845"/>
      <point x="369.813" y="901.6"/>
      <point x="342.036" y="905.084" type="curve" smooth="yes"/>
      <point x="309.508" y="908.715"/>
      <point x="276.821" y="910.781"/>
      <point x="244.098" y="909.291" type="curve" smooth="yes"/>
      <point x="217.851" y="907.62"/>
      <point x="191.031" y="905.935"/>
      <point x="166.628" y="894.633" type="curve"/>
      <point x="173.283" y="898.931"/>
      <point x="179.991" y="903.138"/>
      <point x="186.591" y="907.526" type="curve" smooth="yes"/>
      <point x="188.865" y="909.037"/>
      <point x="181.885" y="904.779"/>
      <point x="179.613" y="903.265" type="curve" smooth="yes"/>
      <point x="173.729" y="899.347"/>
      <point x="168.413" y="894.567"/>
      <point x="163.551" y="889.341" type="curve" smooth="yes"/>
      <point x="163.551" y="889.341"/>
      <point x="131.633" y="875.004"/>
    </contour>
  </outline>
</glyph>
<glyph name="Capital D" format="1">
  <advance width="1024"/>
  <unicode hex="0044"/>
  <outline>
    <contour>
      <point x="450.246" y="969" type="curve" smooth="yes"/>
      <point x="446.281" y="969.012"/>
      <point x="442.312" y="968.934"/>
      <point x="438.34" y="968.761" type="curve" smooth="yes"/>
      <point x="431.452" y="968.148"/>
      <point x="424.537" y="967.854"/>
      <point x="417.676" y="966.92" type="curve" smooth="yes"/>
      <point x="386.83" y="962.723"/>
      <point x="356.998" y="951.563"/>
      <point x="329.281" y="935.583" type="curve" smooth="yes"/>
      <point x="298.532" y="915.151"/>
      <point x="267.204" y="897.244"/>
      <point x="246.143" y="863.193" type="curve" smooth="yes"/>
      <point x="244.481" y="860.236"/>
      <point x="242.691" y="857.371"/>
      <point x="241.158" y="854.323" type="curve" smooth="yes"/>
      <point x="236.146" y="844.356"/>
      <point x="232.95" y="833.287"/>
      <point x="230.957" y="822.042" type="curve"/>
      <point x="257.521" y="837.098" type="line"/>
      <point x="258.735" y="847.827"/>
      <point x="261.984" y="858.348"/>
      <point x="266.789" y="867.65" type="curve" smooth="yes"/>
      <point x="268.292" y="870.558"/>
      <point x="270.051" y="873.278"/>
      <point x="271.682" y="876.092" type="curve" smooth="yes"/>
      <point x="280.829" y="890.784"/>
      <point x="292.612" y="902.974"/>
      <point x="305.4" y="913.354" type="curve" smooth="yes"/>
      <point x="308.06" y="915.513"/>
      <point x="310.92" y="917.343"/>
      <point x="313.664" y="919.357" type="curve" smooth="yes"/>
      <point x="339.995" y="934.423"/>
      <point x="368.251" y="944.997"/>
      <point x="397.459" y="949.398" type="curve" smooth="yes"/>
      <point x="404.324" y="950.432"/>
      <point x="411.248" y="950.834"/>
      <point x="418.143" y="951.552" type="curve" smooth="yes"/>
      <point x="460.787" y="954.081"/>
      <point x="503.243" y="945.941"/>
      <point x="544.428" y="933.715" type="curve" smooth="yes"/>
      <point x="554.349" y="930.769"/>
      <point x="564.149" y="927.311"/>
      <point x="574.01" y="924.108" type="curve" smooth="yes"/>
      <point x="628.697" y="904.08"/>
      <point x="681.574" y="876.937"/>
      <point x="729.762" y="840.836" type="curve" smooth="yes"/>
      <point x="740.004" y="833.163"/>
      <point x="749.791" y="824.707"/>
      <point x="759.805" y="816.643" type="curve" smooth="yes"/>
      <point x="769.225" y="807.827"/>
      <point x="778.963" y="799.444"/>
      <point x="788.066" y="790.196" type="curve" smooth="yes"/>
      <point x="821.413" y="756.318"/>
      <point x="851.797" y="715.814"/>
      <point x="869.086" y="668.051" type="curve" smooth="yes"/>
      <point x="873.071" y="657.04"/>
      <point x="875.54" y="645.379"/>
      <point x="878.768" y="634.044" type="curve" smooth="yes"/>
      <point x="880.332" y="622.456"/>
      <point x="882.717" y="610.976"/>
      <point x="883.463" y="599.281" type="curve" smooth="yes"/>
      <point x="885.762" y="563.218"/>
      <point x="879.99" y="527.314"/>
      <point x="867.617" y="494.16" type="curve" smooth="yes"/>
      <point x="856.251" y="463.703"/>
      <point x="849.471" y="455.584"/>
      <point x="832.945" y="428.419" type="curve" smooth="yes"/>
      <point x="825.04" y="418.32"/>
      <point x="817.613" y="407.696"/>
      <point x="809.23" y="398.122" type="curve" smooth="yes"/>
      <point x="800.586" y="388.248"/>
      <point x="791.449" y="378.922"/>
      <point x="781.943" y="370.163" type="curve" smooth="yes"/>
      <point x="769.157" y="358.381"/>
      <point x="751.45" y="343.478"/>
      <point x="735.658" y="334.598" type="curve" smooth="yes"/>
      <point x="698.66" y="313.794"/>
      <point x="700.073" y="315.874"/>
      <point x="660.869" y="300.096" type="curve" smooth="yes"/>
      <point x="591.893" y="276.525"/>
      <point x="519.804" y="267.669"/>
      <point x="447.996" y="269.258" type="curve" smooth="yes"/>
      <point x="433.736" y="269.574"/>
      <point x="419.503" y="270.814"/>
      <point x="405.256" y="271.592" type="curve" smooth="yes"/>
      <point x="354.216" y="276.228"/>
      <point x="303.17" y="285.893"/>
      <point x="254.793" y="305.766" type="curve" smooth="yes"/>
      <point x="227.503" y="316.976"/>
      <point x="223.168" y="320.787"/>
      <point x="198.211" y="335.782" type="curve"/>
      <point x="179.025" y="321.262" type="line"/>
      <point x="204.426" y="306.624"/>
      <point x="209.3" y="302.665"/>
      <point x="236.895" y="291.696" type="curve" smooth="yes"/>
      <point x="285.935" y="272.202"/>
      <point x="337.526" y="262.774"/>
      <point x="389.094" y="258.193" type="curve" smooth="yes"/>
      <point x="403.406" y="257.417"/>
      <point x="417.704" y="256.191"/>
      <point x="432.029" y="255.866" type="curve" smooth="yes"/>
      <point x="503.736" y="254.239"/>
      <point x="575.768" y="262.568"/>
      <point x="644.775" y="285.655" type="curve" smooth="yes"/>
      <point x="657.618" y="290.715"/>
      <point x="670.671" y="295.118"/>
      <point x="683.303" y="300.839" type="curve" smooth="yes"/>
      <point x="735.63" y="324.537"/>
      <point x="789.133" y="361.734"/>
      <point x="829.162" y="407.78" type="curve" smooth="yes"/>
      <point x="837.609" y="417.497"/>
      <point x="845.097" y="428.262"/>
      <point x="853.064" y="438.503" type="curve" smooth="yes"/>
      <point x="869.639" y="465.925"/>
      <point x="876.629" y="474.425"/>
      <point x="887.99" y="505.167" type="curve" smooth="yes"/>
      <point x="900.381" y="538.695"/>
      <point x="906.109" y="575.164"/>
      <point x="903.594" y="611.568" type="curve" smooth="yes"/>
      <point x="902.778" y="623.375"/>
      <point x="900.273" y="634.948"/>
      <point x="898.613" y="646.637" type="curve" smooth="yes"/>
      <point x="895.281" y="658.059"/>
      <point x="892.72" y="669.818"/>
      <point x="888.617" y="680.903" type="curve" smooth="yes"/>
      <point x="870.869" y="728.857"/>
      <point x="839.848" y="769.284"/>
      <point x="806.209" y="803.307" type="curve" smooth="yes"/>
      <point x="797.048" y="812.572"/>
      <point x="787.286" y="821.016"/>
      <point x="777.824" y="829.87" type="curve" smooth="yes"/>
      <point x="767.806" y="837.996"/>
      <point x="758.009" y="846.497"/>
      <point x="747.77" y="854.246" type="curve" smooth="yes"/>
      <point x="699.792" y="890.558"/>
      <point x="647.256" y="918.281"/>
      <point x="592.812" y="938.941" type="curve" smooth="yes"/>
      <point x="583.034" y="942.257"/>
      <point x="573.315" y="945.818"/>
      <point x="563.477" y="948.889" type="curve" smooth="yes"/>
      <point x="526.549" y="960.416"/>
      <point x="488.577" y="968.882"/>
    </contour>
    <contour>
      <point x="317.588" y="852.869" type="curve"/>
      <point x="291.846" y="835.979" type="line"/>
      <point x="301.309" y="812.538"/>
      <point x="307.627" y="787.582"/>
      <point x="314.639" y="763.076" type="curve" smooth="yes"/>
      <point x="325.835" y="723.518"/>
      <point x="336.529" y="683.732"/>
      <point x="345.035" y="643.274" type="curve" smooth="yes"/>
      <point x="346.958" y="634.13"/>
      <point x="348.642" y="624.919"/>
      <point x="350.445" y="615.743" type="curve" smooth="yes"/>
      <point x="359.215" y="568.395"/>
      <point x="365.407" y="520.177"/>
      <point x="366.342" y="471.704" type="curve" smooth="yes"/>
      <point x="366.523" y="462.293"/>
      <point x="366.295" y="452.877"/>
      <point x="366.272" y="443.464" type="curve" smooth="yes"/>
      <point x="365.427" y="416.708"/>
      <point x="363.119" y="389.956"/>
      <point x="358.518" y="363.689" type="curve" smooth="yes"/>
      <point x="357.147" y="355.866"/>
      <point x="355.308" y="348.16"/>
      <point x="353.703" y="340.396" type="curve"/>
      <point x="376.34" y="352.958" type="line"/>
      <point x="377.809" y="360.714"/>
      <point x="379.491" y="368.423"/>
      <point x="380.748" y="376.228" type="curve" smooth="yes"/>
      <point x="384.992" y="402.586"/>
      <point x="387.181" y="429.359"/>
      <point x="387.857" y="456.14" type="curve" smooth="yes"/>
      <point x="387.829" y="465.574"/>
      <point x="387.998" y="475.011"/>
      <point x="387.773" y="484.441" type="curve" smooth="yes"/>
      <point x="386.615" y="533.064"/>
      <point x="380.331" y="581.398"/>
      <point x="371.781" y="628.959" type="curve" smooth="yes"/>
      <point x="370.017" y="638.191"/>
      <point x="368.362" y="647.451"/>
      <point x="366.49" y="656.655" type="curve" smooth="yes"/>
      <point x="358.215" y="697.353"/>
      <point x="347.844" y="737.412"/>
      <point x="337.252" y="777.371" type="curve" smooth="yes"/>
      <point x="330.684" y="802.532"/>
      <point x="324.662" y="827.887"/>
    </contour>
  </outline>
</glyph>
<glyph name="Capital E" format="1">
  <advance width="1024"/>
  <unicode hex="0045"/>
  <outline>
    <contour>
      <point x="604.857" y="932.908" type="curve" smooth="yes"/>
      <point x="596.578" y="932.938"/>
      <point x="588.287" y="932.582"/>
      <point x="580.02" y="931.992" type="curve" smooth="yes"/>
      <point x="559.018" y="929.543"/>
      <point x="538.06" y="925.422"/>
      <point x="518.041" y="918.496" type="curve" smooth="yes"/>
      <point x="514.317" y="917.208"/>
      <point x="510.674" y="915.698"/>
      <point x="506.99" y="914.299" type="curve" smooth="yes"/>
      <point x="485.975" y="905.174"/>
      <point x="464.767" y="894.967"/>
      <point x="447.115" y="880.16" type="curve" smooth="yes"/>
      <point x="440.286" y="874.432"/>
      <point x="438.679" y="872.314"/>
      <point x="432.562" y="865.781" type="curve" smooth="yes"/>
      <point x="416.288" y="847.551"/>
      <point x="403.072" y="826.909"/>
      <point x="390.76" y="805.881" type="curve" smooth="yes"/>
      <point x="379.537" y="785.732"/>
      <point x="369.909" y="764.38"/>
      <point x="366.299" y="741.424" type="curve" smooth="yes"/>
      <point x="365.566" y="736.764"/>
      <point x="365.321" y="732.04"/>
      <point x="364.832" y="727.348" type="curve" smooth="yes"/>
      <point x="364.43" y="708.95"/>
      <point x="368.069" y="690.775"/>
      <point x="377.619" y="674.85" type="curve" smooth="yes"/>
      <point x="383.78" y="664.575"/>
      <point x="386.95" y="662.27"/>
      <point x="395.219" y="653.693" type="curve" smooth="yes"/>
      <point x="413.784" y="637.441"/>
      <point x="436.509" y="627.599"/>
      <point x="460.867" y="623.996" type="curve" smooth="yes"/>
      <point x="466.202" y="623.207"/>
      <point x="471.604" y="622.977"/>
      <point x="476.973" y="622.467" type="curve" smooth="yes"/>
      <point x="489.463" y="622.092"/>
      <point x="501.914" y="622.904"/>
      <point x="514.213" y="624.764" type="curve"/>
      <point x="482.335" y="606.81"/>
      <point x="451.472" y="587.052"/>
      <point x="422.088" y="565.244" type="curve" smooth="yes"/>
      <point x="415.474" y="560.335"/>
      <point x="408.994" y="555.248"/>
      <point x="402.447" y="550.25" type="curve" smooth="yes"/>
      <point x="368.476" y="523.234"/>
      <point x="334.585" y="495.226"/>
      <point x="307.098" y="461.371" type="curve" smooth="yes"/>
      <point x="302.015" y="455.111"/>
      <point x="297.474" y="448.431"/>
      <point x="292.662" y="441.961" type="curve" smooth="yes"/>
      <point x="288.742" y="435.314"/>
      <point x="284.342" y="428.928"/>
      <point x="280.9" y="422.021" type="curve" smooth="yes"/>
      <point x="271.004" y="402.163"/>
      <point x="265.497" y="380.262"/>
      <point x="266.475" y="357.982" type="curve" smooth="yes"/>
      <point x="267.323" y="338.634"/>
      <point x="270.314" y="333.535"/>
      <point x="276.18" y="315.293" type="curve" smooth="yes"/>
      <point x="279.591" y="308.762"/>
      <point x="282.44" y="301.907"/>
      <point x="286.412" y="295.701" type="curve" smooth="yes"/>
      <point x="298.909" y="276.178"/>
      <point x="316.47" y="260.66"/>
      <point x="336.244" y="248.824" type="curve" smooth="yes"/>
      <point x="354.163" y="238.099"/>
      <point x="361.844" y="236.095"/>
      <point x="381.311" y="228.566" type="curve" smooth="yes"/>
      <point x="414.702" y="217.661"/>
      <point x="449.689" y="213.08"/>
      <point x="484.729" y="216.631" type="curve" smooth="yes"/>
      <point x="511.64" y="219.358"/>
      <point x="518.287" y="222.333"/>
      <point x="544.814" y="229.451" type="curve" smooth="yes"/>
      <point x="577.645" y="241.846"/>
      <point x="579.44" y="241.569"/>
      <point x="611.623" y="257.766" type="curve" smooth="yes"/>
      <point x="623.407" y="263.696"/>
      <point x="634.86" y="270.264"/>
      <point x="646.479" y="276.512" type="curve" smooth="yes"/>
      <point x="662.639" y="289.518" type="line" smooth="yes"/>
      <point x="651.165" y="283.335"/>
      <point x="639.856" y="276.835"/>
      <point x="628.217" y="270.969" type="curve" smooth="yes"/>
      <point x="596.776" y="255.121"/>
      <point x="594.763" y="255.295"/>
      <point x="562.699" y="243.178" type="curve" smooth="yes"/>
      <point x="536.485" y="236.13"/>
      <point x="530.326" y="233.303"/>
      <point x="503.736" y="230.572" type="curve" smooth="yes"/>
      <point x="469.083" y="227.013"/>
      <point x="434.426" y="231.32"/>
      <point x="401.355" y="242.029" type="curve" smooth="yes"/>
      <point x="382.1" y="249.443"/>
      <point x="374.569" y="251.375"/>
      <point x="356.873" y="261.986" type="curve" smooth="yes"/>
      <point x="337.494" y="273.607"/>
      <point x="320.222" y="288.881"/>
      <point x="307.986" y="308.033" type="curve" smooth="yes"/>
      <point x="304.096" y="314.122"/>
      <point x="301.311" y="320.85"/>
      <point x="297.973" y="327.258" type="curve" smooth="yes"/>
      <point x="292.276" y="345.303"/>
      <point x="289.43" y="350.066"/>
      <point x="288.736" y="369.18" type="curve" smooth="yes"/>
      <point x="287.646" y="399.211"/>
      <point x="298.683" y="426.955"/>
      <point x="315.02" y="451.604" type="curve" smooth="yes"/>
      <point x="319.772" y="457.975"/>
      <point x="324.256" y="464.557"/>
      <point x="329.277" y="470.719" type="curve" smooth="yes"/>
      <point x="356.804" y="504.502"/>
      <point x="390.773" y="532.383"/>
      <point x="424.873" y="559.182" type="curve" smooth="yes"/>
      <point x="443.462" y="573.157"/>
      <point x="462.151" y="586.71"/>
      <point x="481.594" y="599.48" type="curve" smooth="yes"/>
      <point x="486.879" y="602.952"/>
      <point x="492.17" y="606.415"/>
      <point x="497.529" y="609.77" type="curve" smooth="yes"/>
      <point x="501.14" y="612.03"/>
      <point x="504.873" y="614.092"/>
      <point x="508.512" y="616.307" type="curve" smooth="yes"/>
      <point x="516.424" y="620.562"/>
      <point x="524.429" y="624.62"/>
      <point x="532.588" y="628.342" type="curve" smooth="yes"/>
      <point x="538.184" y="629.674"/>
      <point x="543.737" y="631.208"/>
      <point x="549.232" y="632.949" type="curve" smooth="yes"/>
      <point x="560.896" y="636.645"/>
      <point x="568.186" y="639.754"/>
      <point x="577.668" y="643.875" type="curve" smooth="yes"/>
      <point x="579.265" y="644.229"/>
      <point x="580.867" y="644.573"/>
      <point x="582.477" y="644.893" type="curve" smooth="yes"/>
      <point x="606.176" y="662.629" type="line" smooth="yes"/>
      <point x="605.661" y="662.526"/>
      <point x="605.149" y="662.416"/>
      <point x="604.635" y="662.311" type="curve" smooth="yes"/>
      <point x="605.691" y="663.146" type="line" smooth="yes"/>
      <point x="604.735" y="662.727"/>
      <point x="603.977" y="662.386"/>
      <point x="603.072" y="661.986" type="curve" smooth="yes"/>
      <point x="594.875" y="660.237"/>
      <point x="586.79" y="658.049"/>
      <point x="578.844" y="655.373" type="curve" smooth="yes"/>
      <point x="568.311" y="651.778"/>
      <point x="558.114" y="647.428"/>
      <point x="548.117" y="642.643" type="curve" smooth="yes"/>
      <point x="531.795" y="639.04"/>
      <point x="515.106" y="637.3"/>
      <point x="498.332" y="637.689" type="curve" smooth="yes"/>
      <point x="493.058" y="638.151"/>
      <point x="487.751" y="638.336"/>
      <point x="482.508" y="639.074" type="curve" smooth="yes"/>
      <point x="458.685" y="642.429"/>
      <point x="436.327" y="651.903"/>
      <point x="418.072" y="667.645" type="curve" smooth="yes"/>
      <point x="410.101" y="675.867"/>
      <point x="406.871" y="678.241"/>
      <point x="400.959" y="688.123" type="curve" smooth="yes"/>
      <point x="391.692" y="703.612"/>
      <point x="388.215" y="721.336"/>
      <point x="388.75" y="739.207" type="curve" smooth="yes"/>
      <point x="389.279" y="743.815"/>
      <point x="389.567" y="748.458"/>
      <point x="390.338" y="753.031" type="curve" smooth="yes"/>
      <point x="394.17" y="775.772"/>
      <point x="404.056" y="796.845"/>
      <point x="415.295" y="816.771" type="curve" smooth="yes"/>
      <point x="427.878" y="837.757"/>
      <point x="441.318" y="858.375"/>
      <point x="458.002" y="876.385" type="curve" smooth="yes"/>
      <point x="464.304" y="882.827"/>
      <point x="465.831" y="884.78"/>
      <point x="472.834" y="890.391" type="curve" smooth="yes"/>
      <point x="474.681" y="891.87"/>
      <point x="479.573" y="894.785"/>
      <point x="480.977" y="895.887" type="curve" smooth="yes"/>
      <point x="485.184" y="898.038"/>
      <point x="488.003" y="899.319"/>
      <point x="485.584" y="897.498" type="curve"/>
      <point x="489.263" y="898.963"/>
      <point x="492.896" y="900.545"/>
      <point x="496.619" y="901.893" type="curve" smooth="yes"/>
      <point x="516.462" y="909.076"/>
      <point x="537.32" y="913.301"/>
      <point x="558.217" y="915.902" type="curve" smooth="yes"/>
      <point x="579.909" y="917.575"/>
      <point x="601.549" y="917.525"/>
      <point x="622.936" y="912.951" type="curve" smooth="yes"/>
      <point x="635.1" y="909.828"/>
      <point x="647.413" y="905.999"/>
      <point x="656.84" y="897.283" type="curve" smooth="yes"/>
      <point x="661.906" y="892.533"/>
      <point x="666.414" y="887.345"/>
      <point x="670.322" y="881.594" type="curve"/>
      <point x="695.764" y="896.799" type="line"/>
      <point x="691.29" y="902.319"/>
      <point x="686.712" y="907.649"/>
      <point x="681.52" y="912.516" type="curve" smooth="yes"/>
      <point x="671.577" y="921.58"/>
      <point x="658.757" y="925.574"/>
      <point x="646.002" y="928.84" type="curve" smooth="yes"/>
      <point x="632.423" y="931.735"/>
      <point x="618.656" y="932.858"/>
    </contour>
  </outline>
</glyph>
<glyph name="Capital F" format="1">
  <advance width="1024"/>
  <unicode hex="0046"/>
  <outline>
    <contour>
      <point x="821.723" y="941.301" type="curve" smooth="yes"/>
      <point x="778.416" y="930.701" type="line" smooth="yes"/>
      <point x="771.132" y="926.368"/>
      <point x="767.261" y="923.85"/>
      <point x="759.123" y="919.932" type="curve" smooth="yes"/>
      <point x="755.186" y="918.036"/>
      <point x="742.105" y="913.592"/>
      <point x="746.934" y="914.529" type="curve" smooth="yes"/>
      <point x="747.98" y="914.732"/>
      <point x="749.003" y="914.968"/>
      <point x="750.014" y="915.219" type="curve"/>
      <point x="741.993" y="912.805"/>
      <point x="735.969" y="911.176"/>
      <point x="740.242" y="913.062" type="curve"/>
      <point x="734.101" y="911.845"/>
      <point x="728.037" y="910.481"/>
      <point x="721.818" y="909.408" type="curve" smooth="yes"/>
      <point x="688.68" y="903.694"/>
      <point x="654.121" y="901.831"/>
      <point x="619.775" y="903.943" type="curve" smooth="yes"/>
      <point x="603.055" y="905.22"/>
      <point x="595.913" y="905.544"/>
      <point x="579.504" y="907.664" type="curve" smooth="yes"/>
      <point x="554.005" y="910.958"/>
      <point x="529.205" y="915.935"/>
      <point x="504.191" y="920.262" type="curve" smooth="yes"/>
      <point x="467.706" y="926.297"/>
      <point x="430.509" y="931.174"/>
      <point x="392.404" y="931.322" type="curve" smooth="yes"/>
      <point x="356.299" y="931.168"/>
      <point x="321.828" y="929.176"/>
      <point x="287.486" y="922.125" type="curve" smooth="yes"/>
      <point x="253.936" y="915.019"/>
      <point x="222.197" y="905.386"/>
      <point x="192.996" y="893.188" type="curve"/>
      <point x="234.863" y="903.09" type="line" smooth="yes"/>
      <point x="229.585" y="901.204"/>
      <point x="223.263" y="898.93"/>
      <point x="215.238" y="896.018" type="curve" smooth="yes"/>
      <point x="212.055" y="894.862"/>
      <point x="221.892" y="898.028"/>
      <point x="225.273" y="898.967" type="curve" smooth="yes"/>
      <point x="237.039" y="902.233"/>
      <point x="238.287" y="902.361"/>
      <point x="250.865" y="905.234" type="curve" smooth="yes"/>
      <point x="285.214" y="912.76"/>
      <point x="319.332" y="915.088"/>
      <point x="355.697" y="915.557" type="curve" smooth="yes"/>
      <point x="393.501" y="915.655"/>
      <point x="430.423" y="910.924"/>
      <point x="466.68" y="905.096" type="curve" smooth="yes"/>
      <point x="470.613" y="904.435"/>
      <point x="474.539" y="903.753"/>
      <point x="478.463" y="903.064" type="curve" smooth="yes"/>
      <point x="474.107" y="899.57" type="line"/>
      <point x="481.905" y="883.148"/>
      <point x="486.428" y="864.201"/>
      <point x="490.912" y="845.686" type="curve" smooth="yes"/>
      <point x="498.394" y="813.915"/>
      <point x="503.333" y="781.055"/>
      <point x="506.205" y="747.875" type="curve" smooth="yes"/>
      <point x="506.933" y="739.461"/>
      <point x="507.383" y="731.004"/>
      <point x="507.973" y="722.568" type="curve" smooth="yes"/>
      <point x="509.64" y="687.457"/>
      <point x="509.265" y="652.174"/>
      <point x="507.35" y="617.062" type="curve"/>
      <point x="492.214" y="620.492"/>
      <point x="476.863" y="622.836"/>
      <point x="461.258" y="622.939" type="curve" smooth="yes"/>
      <point x="439.564" y="622.782"/>
      <point x="418.851" y="620.751"/>
      <point x="398.217" y="613.562" type="curve" smooth="yes"/>
      <point x="378.058" y="606.318"/>
      <point x="358.989" y="596.498"/>
      <point x="341.443" y="584.061" type="curve"/>
      <point x="366.592" y="594.154" type="line" smooth="yes"/>
      <point x="363.422" y="592.233"/>
      <point x="359.625" y="589.914"/>
      <point x="354.807" y="586.947" type="curve" smooth="yes"/>
      <point x="352.894" y="585.77"/>
      <point x="358.804" y="588.996"/>
      <point x="360.836" y="589.953" type="curve" smooth="yes"/>
      <point x="367.905" y="593.283"/>
      <point x="368.655" y="593.412"/>
      <point x="376.213" y="596.342" type="curve" smooth="yes"/>
      <point x="396.851" y="604.014"/>
      <point x="417.353" y="606.39"/>
      <point x="439.203" y="606.867" type="curve" smooth="yes"/>
      <point x="461.918" y="606.967"/>
      <point x="484.102" y="602.143"/>
      <point x="505.887" y="596.201" type="curve" smooth="yes"/>
      <point x="505.936" y="596.187"/>
      <point x="505.984" y="596.172"/>
      <point x="506.033" y="596.158" type="curve" smooth="yes"/>
      <point x="505.343" y="586.521"/>
      <point x="504.542" y="576.903"/>
      <point x="503.643" y="567.309" type="curve" smooth="yes"/>
      <point x="502.547" y="555.622"/>
      <point x="501.115" y="543.999"/>
      <point x="499.852" y="532.346" type="curve" smooth="yes"/>
      <point x="492.27" y="473.661"/>
      <point x="481.99" y="415.504"/>
      <point x="468.217" y="359.008" type="curve" smooth="yes"/>
      <point x="465.744" y="348.866"/>
      <point x="462.998" y="338.858"/>
      <point x="460.389" y="328.783" type="curve" smooth="yes"/>
      <point x="453.83" y="305.437"/>
      <point x="447.046" y="281.931"/>
      <point x="437.703" y="260.393" type="curve" smooth="yes"/>
      <point x="435.639" y="255.635"/>
      <point x="433.4" y="250.917"/>
      <point x="430.877" y="246.531" type="curve" smooth="yes"/>
      <point x="430.737" y="246.523"/>
      <point x="430.6" y="246.511"/>
      <point x="430.457" y="246.506" type="curve" smooth="yes"/>
      <point x="426.039" y="246.358"/>
      <point x="423.141" y="247.575"/>
      <point x="418.854" y="248.828" type="curve" smooth="yes"/>
      <point x="395.482" y="226.324" type="line"/>
      <point x="417.617" y="218.557"/>
      <point x="418.643" y="224.914"/>
      <point x="444.01" y="245.465" type="curve" smooth="yes"/>
      <point x="445.931" y="247.584"/>
      <point x="448.036" y="249.415"/>
      <point x="449.771" y="251.824" type="curve" smooth="yes"/>
      <point x="454.673" y="258.627"/>
      <point x="458.458" y="267.084"/>
      <point x="461.74" y="275.457" type="curve" smooth="yes"/>
      <point x="470.201" y="297.038"/>
      <point x="476.379" y="320.214"/>
      <point x="482.533" y="343.182" type="curve" smooth="yes"/>
      <point x="485.015" y="353.216"/>
      <point x="487.617" y="363.195"/>
      <point x="489.979" y="373.285" type="curve" smooth="yes"/>
      <point x="503.268" y="430.066"/>
      <point x="513.636" y="488.208"/>
      <point x="521.266" y="546.957" type="curve" smooth="yes"/>
      <point x="522.564" y="558.683"/>
      <point x="524.022" y="570.379"/>
      <point x="525.16" y="582.137" type="curve" smooth="yes"/>
      <point x="525.422" y="584.838"/>
      <point x="525.673" y="587.541"/>
      <point x="525.92" y="590.246" type="curve"/>
      <point x="534.318" y="587.734"/>
      <point x="542.739" y="585.308"/>
      <point x="551.291" y="583.394" type="curve" smooth="yes"/>
      <point x="561.757" y="581.053"/>
      <point x="565.096" y="580.844"/>
      <point x="575.775" y="579.41" type="curve" smooth="yes"/>
      <point x="596.527" y="577.08"/>
      <point x="617.459" y="578.614"/>
      <point x="637.607" y="584.119" type="curve" smooth="yes"/>
      <point x="641.355" y="585.143"/>
      <point x="645.019" y="586.451"/>
      <point x="648.725" y="587.617" type="curve" smooth="yes"/>
      <point x="652.112" y="588.997"/>
      <point x="655.572" y="590.21"/>
      <point x="658.887" y="591.756" type="curve" smooth="yes"/>
      <point x="662.043" y="593.228"/>
      <point x="665.109" y="594.896"/>
      <point x="668.113" y="596.658" type="curve" smooth="yes"/>
      <point x="681.497" y="604.511"/>
      <point x="695.533" y="611.571"/>
      <point x="707.445" y="621.627" type="curve" smooth="yes"/>
      <point x="711.938" y="625.42"/>
      <point x="715.154" y="628.928"/>
      <point x="719.217" y="633.113" type="curve" smooth="yes"/>
      <point x="693.195" y="622.307" type="line" smooth="yes"/>
      <point x="688.818" y="617.889"/>
      <point x="686.493" y="615.321"/>
      <point x="681.604" y="611.326" type="curve" smooth="yes"/>
      <point x="679.238" y="609.394"/>
      <point x="671.378" y="604.863"/>
      <point x="674.279" y="605.818" type="curve" smooth="yes"/>
      <point x="674.911" y="606.026"/>
      <point x="675.529" y="606.268"/>
      <point x="676.139" y="606.525" type="curve"/>
      <point x="671.315" y="604.062"/>
      <point x="667.689" y="602.397"/>
      <point x="670.258" y="604.322" type="curve"/>
      <point x="666.568" y="603.081"/>
      <point x="662.926" y="601.693"/>
      <point x="659.189" y="600.6" type="curve" smooth="yes"/>
      <point x="639.278" y="594.774"/>
      <point x="618.512" y="592.873"/>
      <point x="597.875" y="595.027" type="curve" smooth="yes"/>
      <point x="587.828" y="596.328"/>
      <point x="583.537" y="596.659"/>
      <point x="573.678" y="598.82" type="curve" smooth="yes"/>
      <point x="558.357" y="602.179"/>
      <point x="543.455" y="607.253"/>
      <point x="528.426" y="611.664" type="curve" smooth="yes"/>
      <point x="528.196" y="611.729"/>
      <point x="527.964" y="611.787"/>
      <point x="527.734" y="611.852" type="curve" smooth="yes"/>
      <point x="530.948" y="654.056"/>
      <point x="532.234" y="696.607"/>
      <point x="530.611" y="738.967" type="curve" smooth="yes"/>
      <point x="530.103" y="747.525"/>
      <point x="529.735" y="756.102"/>
      <point x="529.088" y="764.643" type="curve" smooth="yes"/>
      <point x="526.54" y="798.276"/>
      <point x="521.814" y="831.582"/>
      <point x="514.893" y="864" type="curve" smooth="yes"/>
      <point x="512.393" y="875.454"/>
      <point x="509.787" y="886.918"/>
      <point x="506.664" y="898.09" type="curve"/>
      <point x="518.442" y="896.049"/>
      <point x="530.268" y="894.115"/>
      <point x="542.246" y="892.535" type="curve" smooth="yes"/>
      <point x="559.665" y="890.238"/>
      <point x="565.222" y="890.033"/>
      <point x="582.996" y="888.627" type="curve" smooth="yes"/>
      <point x="617.533" y="886.342"/>
      <point x="652.368" y="887.847"/>
      <point x="685.9" y="893.246" type="curve" smooth="yes"/>
      <point x="692.137" y="894.25"/>
      <point x="698.235" y="895.532"/>
      <point x="704.402" y="896.676" type="curve" smooth="yes"/>
      <point x="710.041" y="898.029"/>
      <point x="715.799" y="899.22"/>
      <point x="721.316" y="900.736" type="curve" smooth="yes"/>
      <point x="726.57" y="902.18"/>
      <point x="731.673" y="903.816"/>
      <point x="736.672" y="905.545" type="curve" smooth="yes"/>
      <point x="758.946" y="913.248"/>
      <point x="782.306" y="920.172"/>
      <point x="802.131" y="930.035" type="curve" smooth="yes"/>
      <point x="809.608" y="933.755"/>
      <point x="814.961" y="937.195"/>
    </contour>
    <contour>
      <point x="773.787" y="922.85" type="curve" smooth="yes"/>
      <point x="773.732" y="922.708"/>
      <point x="766.731" y="920.414"/>
      <point x="759.059" y="918.004" type="curve"/>
      <point x="763.446" y="919.547"/>
      <point x="767.753" y="921.206"/>
      <point x="772.344" y="922.496" type="curve" smooth="yes"/>
      <point x="773.356" y="922.78"/>
      <point x="773.801" y="922.886"/>
    </contour>
    <contour>
      <point x="690.414" y="614.303" type="curve" smooth="yes"/>
      <point x="690.381" y="614.159"/>
      <point x="686.198" y="611.833"/>
      <point x="681.605" y="609.385" type="curve"/>
      <point x="684.228" y="610.951"/>
      <point x="686.803" y="612.633"/>
      <point x="689.547" y="613.941" type="curve" smooth="yes"/>
      <point x="690.155" y="614.231"/>
      <point x="690.423" y="614.34"/>
    </contour>
    <contour>
      <point x="423.572" y="236.123" type="curve"/>
      <point x="421.79" y="234.236"/>
      <point x="419.762" y="232.807"/>
      <point x="417.883" y="231.1" type="curve"/>
      <point x="419.977" y="232.981"/>
      <point x="421.833" y="234.61"/>
    </contour>
  </outline>
</glyph>
<glyph name="Capital G" format="1">
  <advance width="1024"/>
  <unicode hex="0047"/>
  <outline>
    <contour>
      <point x="655.621" y="983.607" type="curve" smooth="yes"/>
      <point x="631.845" y="983.654"/>
      <point x="608.551" y="977.997"/>
      <point x="586.467" y="969.457" type="curve" smooth="yes"/>
      <point x="580.857" y="967.288"/>
      <point x="575.383" y="964.78"/>
      <point x="569.842" y="962.441" type="curve" smooth="yes"/>
      <point x="529.268" y="943.181"/>
      <point x="490.11" y="920.149"/>
      <point x="455.816" y="890.969" type="curve" smooth="yes"/>
      <point x="449.11" y="885.262"/>
      <point x="442.765" y="879.142"/>
      <point x="436.24" y="873.229" type="curve" smooth="yes"/>
      <point x="401.338" y="839.077"/>
      <point x="370.603" y="800.152"/>
      <point x="349.164" y="756.062" type="curve" smooth="yes"/>
      <point x="344.763" y="747.011"/>
      <point x="341.212" y="737.57"/>
      <point x="337.236" y="728.324" type="curve" smooth="yes"/>
      <point x="322.655" y="688.399"/>
      <point x="315.092" y="646.39"/>
      <point x="314.426" y="603.906" type="curve" smooth="yes"/>
      <point x="313.961" y="574.263"/>
      <point x="315.545" y="567.408"/>
      <point x="318.568" y="537.93" type="curve" smooth="yes"/>
      <point x="320.639" y="527.025"/>
      <point x="322.23" y="516.02"/>
      <point x="324.779" y="505.217" type="curve" smooth="yes"/>
      <point x="334.341" y="464.7"/>
      <point x="350.023" y="423.125"/>
      <point x="378.957" y="392.232" type="curve" smooth="yes"/>
      <point x="385.67" y="385.065"/>
      <point x="393.694" y="379.25"/>
      <point x="401.062" y="372.76" type="curve" smooth="yes"/>
      <point x="424.475" y="360.089"/>
      <point x="429.548" y="354.715"/>
      <point x="456.789" y="350.867" type="curve" smooth="yes"/>
      <point x="494.709" y="345.511"/>
      <point x="533.806" y="354.452"/>
      <point x="569.594" y="366.199" type="curve" smooth="yes"/>
      <point x="583.59" y="370.793"/>
      <point x="597.155" y="376.604"/>
      <point x="610.914" y="381.867" type="curve"/>
      <point x="608.578" y="355.215"/>
      <point x="606.809" y="328.533"/>
      <point x="604.125" y="301.898" type="curve" smooth="yes"/>
      <point x="601.058" y="272.25"/>
      <point x="595.031" y="242.812"/>
      <point x="586.26" y="213.893" type="curve" smooth="yes"/>
      <point x="584.551" y="208.257"/>
      <point x="582.607" y="202.667"/>
      <point x="580.781" y="197.055" type="curve" smooth="yes"/>
      <point x="571.872" y="171.178"/>
      <point x="561.362" y="145.53"/>
      <point x="546.508" y="121.377" type="curve" smooth="yes"/>
      <point x="543.892" y="117.124"/>
      <point x="540.962" y="112.998"/>
      <point x="538.189" y="108.809" type="curve" smooth="yes"/>
      <point x="527.336" y="92.7414"/>
      <point x="514.247" y="79.3503"/>
      <point x="495.975" y="68.1914" type="curve" smooth="yes"/>
      <point x="493.907" y="66.9288"/>
      <point x="491.733" y="65.7836"/>
      <point x="489.551" y="64.6465" type="curve" smooth="yes"/>
      <point x="467.211" y="56.2578"/>
      <point x="442.692" y="52.8326"/>
      <point x="418.049" y="54.8945" type="curve" smooth="yes"/>
      <point x="412.677" y="55.344"/>
      <point x="407.385" y="56.2612"/>
      <point x="402.053" y="56.9453" type="curve" smooth="yes"/>
      <point x="382.38" y="60.7528"/>
      <point x="362.863" y="66.3795"/>
      <point x="346.861" y="76.5371" type="curve" smooth="yes"/>
      <point x="337.699" y="82.3531"/>
      <point x="337.114" y="83.8486"/>
      <point x="330.221" y="91.043" type="curve" smooth="yes"/>
      <point x="328.626" y="93.7801"/>
      <point x="326.623" y="96.389"/>
      <point x="325.436" y="99.2539" type="curve" smooth="yes"/>
      <point x="321.522" y="108.696"/>
      <point x="322.726" y="118.893"/>
      <point x="327.434" y="128.021" type="curve" smooth="yes"/>
      <point x="332.649" y="138.136"/>
      <point x="337.475" y="141.763"/>
      <point x="346.02" y="150.562" type="curve" smooth="yes"/>
      <point x="370.861" y="171.888"/>
      <point x="401.711" y="188.036"/>
      <point x="433.26" y="202.41" type="curve" smooth="yes"/>
      <point x="436.712" y="203.983"/>
      <point x="440.427" y="205.162"/>
      <point x="443.996" y="206.561" type="curve" smooth="yes"/>
      <point x="454.204" y="210.561"/>
      <point x="464.391" y="214.592"/>
      <point x="474.59" y="218.607" type="curve" smooth="yes"/>
      <point x="484.803" y="222.243"/>
      <point x="495.016" y="225.878"/>
      <point x="505.229" y="229.514" type="curve" smooth="yes"/>
      <point x="522.535" y="240.416" type="line" smooth="yes"/>
      <point x="512.275" y="236.779"/>
      <point x="502.014" y="233.141"/>
      <point x="491.754" y="229.504" type="curve" smooth="yes"/>
      <point x="452.749" y="214.255"/>
      <point x="457.53" y="216.629"/>
      <point x="412.379" y="195.998" type="curve" smooth="yes"/>
      <point x="386.633" y="184.234"/>
      <point x="361.117" y="171.272"/>
      <point x="338.887" y="155.514" type="curve" smooth="yes"/>
      <point x="333.141" y="151.441"/>
      <point x="327.987" y="146.87"/>
      <point x="322.537" y="142.549" type="curve" smooth="yes"/>
      <point x="313.524" y="133.207"/>
      <point x="308.667" y="129.634"/>
      <point x="303.285" y="118.885" type="curve" smooth="yes"/>
      <point x="298.444" y="109.214"/>
      <point x="297.413" y="98.4884"/>
      <point x="301.723" y="88.584" type="curve" smooth="yes"/>
      <point x="303.026" y="85.5891"/>
      <point x="305.179" y="82.8716"/>
      <point x="306.906" y="80.0156" type="curve" smooth="yes"/>
      <point x="309.456" y="77.4244"/>
      <point x="311.73" y="74.6468"/>
      <point x="314.555" y="72.2422" type="curve" smooth="yes"/>
      <point x="331.964" y="57.4203"/>
      <point x="356.539" y="50.0932"/>
      <point x="380.604" y="45.0117" type="curve" smooth="yes"/>
      <point x="385.914" y="44.2104"/>
      <point x="391.172" y="43.144"/>
      <point x="396.535" y="42.6074" type="curve" smooth="yes"/>
      <point x="421.816" y="40.078"/>
      <point x="447.246" y="43.5311"/>
      <point x="470.283" y="52" type="curve" smooth="yes"/>
      <point x="488.866" y="60.3548"/>
      <point x="504.243" y="65.9374"/>
      <point x="520.104" y="75.9766" type="curve" smooth="yes"/>
      <point x="538.349" y="87.5254"/>
      <point x="550.963" y="100.89"/>
      <point x="561.717" y="117.236" type="curve" smooth="yes"/>
      <point x="564.396" y="121.433"/>
      <point x="567.22" y="125.574"/>
      <point x="569.754" y="129.828" type="curve" smooth="yes"/>
      <point x="584.195" y="154.073"/>
      <point x="594.478" y="179.711"/>
      <point x="603.195" y="205.574" type="curve" smooth="yes"/>
      <point x="604.992" y="211.199"/>
      <point x="606.908" y="216.801"/>
      <point x="608.588" y="222.449" type="curve" smooth="yes"/>
      <point x="617.222" y="251.484"/>
      <point x="623.027" y="281.028"/>
      <point x="626.406" y="310.734" type="curve" smooth="yes"/>
      <point x="629.842" y="342.218"/>
      <point x="632.025" y="373.77"/>
      <point x="635.342" y="405.26" type="curve" smooth="yes"/>
      <point x="638.216" y="429.527"/>
      <point x="641.016" y="454.081"/>
      <point x="650.07" y="477.482" type="curve" smooth="yes"/>
      <point x="653.453" y="484.766"/>
      <point x="656.764" y="491.663"/>
      <point x="662.529" y="498.01" type="curve" smooth="yes"/>
      <point x="663.694" y="499.292"/>
      <point x="664.943" y="500.529"/>
      <point x="666.273" y="501.705" type="curve" smooth="yes"/>
      <point x="667.4" y="501.897"/>
      <point x="668.534" y="502.067"/>
      <point x="669.674" y="502.207" type="curve" smooth="yes"/>
      <point x="669.935" y="502.237"/>
      <point x="670.183" y="502.267"/>
      <point x="670.432" y="502.297" type="curve" smooth="yes"/>
      <point x="672.99" y="502.588"/>
      <point x="675.569" y="502.771"/>
      <point x="678.133" y="502.885" type="curve" smooth="yes"/>
      <point x="679.959" y="503.939" type="line" smooth="yes"/>
      <point x="681.943" y="504.397"/>
      <point x="684.055" y="504.918"/>
      <point x="687.107" y="505.641" type="curve" smooth="yes"/>
      <point x="689.867" y="506.597"/>
      <point x="692.627" y="507.555"/>
      <point x="695.387" y="508.512" type="curve" smooth="yes"/>
      <point x="717.4" y="525.717" type="line" smooth="yes"/>
      <point x="714.679" y="524.666"/>
      <point x="711.956" y="523.615"/>
      <point x="709.234" y="522.564" type="curve" smooth="yes"/>
      <point x="701.276" y="520.448"/>
      <point x="699.387" y="519.679"/>
      <point x="691.121" y="518.58" type="curve" smooth="yes"/>
      <point x="678.38" y="516.886"/>
      <point x="665.458" y="517.527"/>
      <point x="652.762" y="519.25" type="curve" smooth="yes"/>
      <point x="635.618" y="521.893"/>
      <point x="618.799" y="526.002"/>
      <point x="601.979" y="530.211" type="curve" smooth="yes"/>
      <point x="590.063" y="533.095"/>
      <point x="578.061" y="536.52"/>
      <point x="565.713" y="536.59" type="curve" smooth="yes"/>
      <point x="562.414" y="536.343"/>
      <point x="559.795" y="536.266"/>
      <point x="556.557" y="535.566" type="curve" smooth="yes"/>
      <point x="542.384" y="532.504"/>
      <point x="529.742" y="521.431"/>
      <point x="517.656" y="515.564" type="curve" smooth="yes"/>
      <point x="545.215" y="526.348" type="line" smooth="yes"/>
      <point x="531.956" y="518.518"/>
      <point x="525.114" y="514.632"/>
      <point x="521.662" y="512.719" type="curve"/>
      <point x="524.819" y="514.352"/>
      <point x="529.811" y="516.76"/>
      <point x="533.65" y="517.84" type="curve" smooth="yes"/>
      <point x="537.258" y="518.855"/>
      <point x="538.754" y="518.897"/>
      <point x="542.5" y="519.369" type="curve" smooth="yes"/>
      <point x="554.803" y="520.061"/>
      <point x="566.849" y="516.805"/>
      <point x="578.75" y="514.135" type="curve" smooth="yes"/>
      <point x="595.768" y="510.116"/>
      <point x="612.749" y="506.01"/>
      <point x="630.025" y="503.264" type="curve" smooth="yes"/>
      <point x="637.614" y="502.203"/>
      <point x="645.278" y="501.508"/>
      <point x="652.945" y="501.4" type="curve"/>
      <point x="650.374" y="500.162"/>
      <point x="647.822" y="498.9"/>
      <point x="645.309" y="497.588" type="curve" smooth="yes"/>
      <point x="642.864" y="496.311"/>
      <point x="637.939" y="490.883"/>
      <point x="636.537" y="489.15" type="curve" smooth="yes"/>
      <point x="631.227" y="482.586"/>
      <point x="628.243" y="475.608"/>
      <point x="625.219" y="468.24" type="curve" smooth="yes"/>
      <point x="617.231" y="444.727"/>
      <point x="614.828" y="420.289"/>
      <point x="612.219" y="396.105" type="curve" smooth="yes"/>
      <point x="611.959" y="393.431"/>
      <point x="611.717" y="390.755"/>
      <point x="611.473" y="388.08" type="curve" smooth="yes"/>
      <point x="602.909" y="384.693"/>
      <point x="594.333" y="381.337"/>
      <point x="585.582" y="378.48" type="curve" smooth="yes"/>
      <point x="550.636" y="367.073"/>
      <point x="512.566" y="358.606"/>
      <point x="475.582" y="363.799" type="curve" smooth="yes"/>
      <point x="448.811" y="367.558"/>
      <point x="443.855" y="372.703"/>
      <point x="420.686" y="384.971" type="curve" smooth="yes"/>
      <point x="413.344" y="391.308"/>
      <point x="405.362" y="396.969"/>
      <point x="398.662" y="403.98" type="curve" smooth="yes"/>
      <point x="369.656" y="434.335"/>
      <point x="353.806" y="475.456"/>
      <point x="344.355" y="515.654" type="curve" smooth="yes"/>
      <point x="341.829" y="526.402"/>
      <point x="340.287" y="537.357"/>
      <point x="338.252" y="548.209" type="curve" smooth="yes"/>
      <point x="335.36" y="577.404"/>
      <point x="333.763" y="584.574"/>
      <point x="334.379" y="613.928" type="curve" smooth="yes"/>
      <point x="335.268" y="656.315"/>
      <point x="343.187" y="698.173"/>
      <point x="358.061" y="737.883" type="curve" smooth="yes"/>
      <point x="362.067" y="747.065"/>
      <point x="365.655" y="756.441"/>
      <point x="370.08" y="765.43" type="curve" smooth="yes"/>
      <point x="391.792" y="809.53"/>
      <point x="422.903" y="848.306"/>
      <point x="458.232" y="882.199" type="curve" smooth="yes"/>
      <point x="477.005" y="898.874"/>
      <point x="478.238" y="900.723"/>
      <point x="498.072" y="915.449" type="curve" smooth="yes"/>
      <point x="504.38" y="920.132"/>
      <point x="511.149" y="924.184"/>
      <point x="517.354" y="929.002" type="curve" smooth="yes"/>
      <point x="518.097" y="929.579"/>
      <point x="513.815" y="927.811"/>
      <point x="514.619" y="928.299" type="curve" smooth="yes"/>
      <point x="527.838" y="936.314"/>
      <point x="535.848" y="939.804"/>
      <point x="549.6" y="946.455" type="curve" smooth="yes"/>
      <point x="555.027" y="948.774"/>
      <point x="560.386" y="951.261"/>
      <point x="565.883" y="953.412" type="curve" smooth="yes"/>
      <point x="587.415" y="961.838"/>
      <point x="610.12" y="967.47"/>
      <point x="633.336" y="967.582" type="curve" smooth="yes"/>
      <point x="636.894" y="967.417"/>
      <point x="640.461" y="967.39"/>
      <point x="644.01" y="967.086" type="curve" smooth="yes"/>
      <point x="657.743" y="965.909"/>
      <point x="671.066" y="962.104"/>
      <point x="682.811" y="954.785" type="curve" smooth="yes"/>
      <point x="690.803" y="949.234"/>
      <point x="697.934" y="943.391"/>
      <point x="704.133" y="935.828" type="curve"/>
      <point x="729.475" y="951.043" type="line"/>
      <point x="722.605" y="958.251"/>
      <point x="715.055" y="964.515"/>
      <point x="706.848" y="970.125" type="curve" smooth="yes"/>
      <point x="694.64" y="977.677"/>
      <point x="680.85" y="981.741"/>
      <point x="666.602" y="983.049" type="curve" smooth="yes"/>
      <point x="662.952" y="983.384"/>
      <point x="659.281" y="983.421"/>
    </contour>
    <contour>
      <point x="521.662" y="512.719" type="curve"/>
      <point x="518.492" y="511.078"/>
      <point x="517.652" y="510.497"/>
    </contour>
  </outline>
</glyph>
<glyph name="Capital H" format="1">
  <advance width="1024"/>
  <unicode hex="0048"/>
  <outline>
    <contour>
      <point x="415.906" y="972.895" type="curve" smooth="yes"/>
      <point x="405.637" y="972.705"/>
      <point x="395.695" y="968.974"/>
      <point x="386.271" y="964.062" type="curve" smooth="yes"/>
      <point x="358.27" y="947.711"/>
      <point x="331.808" y="927.837"/>
      <point x="308.34" y="903.041" type="curve" smooth="yes"/>
      <point x="294.66" y="888.888"/>
      <point x="280.966" y="874.762"/>
      <point x="267.617" y="860.145" type="curve" smooth="yes"/>
      <point x="260.641" y="852.658"/>
      <point x="253.829" y="844.97"/>
      <point x="247.246" y="836.971" type="curve"/>
      <point x="274.668" y="850.801" type="line"/>
      <point x="280.729" y="858.77"/>
      <point x="287.328" y="866.078"/>
      <point x="294.035" y="873.225" type="curve" smooth="yes"/>
      <point x="306.989" y="887.802"/>
      <point x="320.473" y="901.637"/>
      <point x="333.854" y="915.623" type="curve" smooth="yes"/>
      <point x="336.646" y="918.414"/>
      <point x="339.407" y="921.253"/>
      <point x="342.232" y="923.994" type="curve" smooth="yes"/>
      <point x="346.358" y="927.996"/>
      <point x="354.084" y="935.194"/>
      <point x="358.941" y="939.344" type="curve" smooth="yes"/>
      <point x="361.016" y="940.713"/>
      <point x="363.385" y="942.308"/>
      <point x="364.707" y="943.105" type="curve" smooth="yes"/>
      <point x="375.068" y="948.701"/>
      <point x="386.094" y="953.048"/>
      <point x="397.57" y="952.543" type="curve" smooth="yes"/>
      <point x="403.766" y="952.271"/>
      <point x="405.721" y="951.282"/>
      <point x="411.656" y="949.479" type="curve" smooth="yes"/>
      <point x="424.389" y="944.269"/>
      <point x="432.817" y="934.138"/>
      <point x="438.541" y="919.439" type="curve" smooth="yes"/>
      <point x="439.822" y="916.15"/>
      <point x="440.788" y="912.69"/>
      <point x="441.912" y="909.316" type="curve" smooth="yes"/>
      <point x="449" y="882.513"/>
      <point x="449.232" y="854.169"/>
      <point x="449.381" y="826.297" type="curve" smooth="yes"/>
      <point x="449.432" y="784.303"/>
      <point x="444.994" y="742.632"/>
      <point x="439.77" y="701.211" type="curve" smooth="yes"/>
      <point x="435.104" y="666.745"/>
      <point x="429.697" y="632.449"/>
      <point x="423.926" y="598.242" type="curve"/>
      <point x="410.623" y="591.908"/>
      <point x="398.078" y="583.707"/>
      <point x="387.521" y="573.531" type="curve"/>
      <point x="414.871" y="584.859" type="line" smooth="yes"/>
      <point x="415.454" y="585.513"/>
      <point x="416.059" y="586.144"/>
      <point x="416.68" y="586.756" type="curve" smooth="yes"/>
      <point x="418.518" y="587.331"/>
      <point x="420.369" y="587.817"/>
      <point x="422.23" y="588.219" type="curve"/>
      <point x="418.033" y="563.648"/>
      <point x="413.665" y="539.118"/>
      <point x="409.244" y="514.605" type="curve" smooth="yes"/>
      <point x="396.206" y="445.759"/>
      <point x="382.515" y="377.103"/>
      <point x="369.912" y="308.135" type="curve" smooth="yes"/>
      <point x="368.246" y="297.756"/>
      <point x="366.578" y="287.378"/>
      <point x="364.912" y="277" type="curve"/>
      <point x="386.406" y="289.715" type="line"/>
      <point x="387.995" y="300.019"/>
      <point x="389.583" y="310.324"/>
      <point x="391.172" y="320.629" type="curve" smooth="yes"/>
      <point x="403.344" y="389.563"/>
      <point x="416.851" y="458.119"/>
      <point x="429.988" y="526.787" type="curve" smooth="yes"/>
      <point x="433.884" y="547.836"/>
      <point x="437.776" y="568.888"/>
      <point x="441.588" y="589.961" type="curve"/>
      <point x="447.665" y="589.902"/>
      <point x="453.771" y="589.424"/>
      <point x="459.834" y="588.891" type="curve" smooth="yes"/>
      <point x="480.578" y="586.177"/>
      <point x="501.268" y="583.079"/>
      <point x="522.012" y="580.35" type="curve" smooth="yes"/>
      <point x="527.607" y="579.589"/>
      <point x="533.213" y="578.924"/>
      <point x="538.826" y="578.361" type="curve"/>
      <point x="536.761" y="558.538"/>
      <point x="536.338" y="546.943"/>
      <point x="535.125" y="525.789" type="curve" smooth="yes"/>
      <point x="533.903" y="489.567"/>
      <point x="534.533" y="453.116"/>
      <point x="539.902" y="417.207" type="curve" smooth="yes"/>
      <point x="543.238" y="394.895"/>
      <point x="544.904" y="390.534"/>
      <point x="550.367" y="369" type="curve" smooth="yes"/>
      <point x="560.334" y="338.955"/>
      <point x="572.653" y="305.529"/>
      <point x="598.057" y="284.781" type="curve" smooth="yes"/>
      <point x="602.241" y="281.364"/>
      <point x="607.09" y="278.849"/>
      <point x="611.605" y="275.883" type="curve" smooth="yes"/>
      <point x="616.759" y="274.152"/>
      <point x="621.723" y="271.691"/>
      <point x="627.066" y="270.689" type="curve" smooth="yes"/>
      <point x="647.268" y="266.902"/>
      <point x="667.635" y="273.059"/>
      <point x="685.951" y="281.084" type="curve" smooth="yes"/>
      <point x="707.42" y="290.49"/>
      <point x="736.425" y="308.808"/>
      <point x="754.27" y="319.295" type="curve" smooth="yes"/>
      <point x="779.805" y="336.023" type="line"/>
      <point x="758.598" y="327.752" type="line"/>
      <point x="732.57" y="310.932" type="line" smooth="yes"/>
      <point x="722.506" y="304.092"/>
      <point x="722.92" y="304.103"/>
      <point x="705.373" y="296.273" type="curve" smooth="yes"/>
      <point x="687.814" y="288.439"/>
      <point x="668.24" y="282.256"/>
      <point x="648.752" y="285.436" type="curve" smooth="yes"/>
      <point x="643.562" y="286.282"/>
      <point x="638.7" y="288.524"/>
      <point x="633.674" y="290.068" type="curve" smooth="yes"/>
      <point x="629.21" y="292.858"/>
      <point x="624.433" y="295.201"/>
      <point x="620.281" y="298.437" type="curve" smooth="yes"/>
      <point x="594.612" y="318.45"/>
      <point x="582.065" y="350.955"/>
      <point x="571.795" y="380.611" type="curve" smooth="yes"/>
      <point x="569.762" y="388.281"/>
      <point x="567.444" y="395.88"/>
      <point x="565.695" y="403.619" type="curve" smooth="yes"/>
      <point x="555.878" y="447.067"/>
      <point x="554.596" y="491.904"/>
      <point x="555.951" y="536.25" type="curve" smooth="yes"/>
      <point x="556.938" y="552.856"/>
      <point x="557.409" y="563.517"/>
      <point x="558.609" y="576.932" type="curve"/>
      <point x="564.877" y="576.671"/>
      <point x="571.151" y="576.595"/>
      <point x="577.436" y="576.787" type="curve" smooth="yes"/>
      <point x="580.297" y="577.088"/>
      <point x="583.16" y="577.39"/>
      <point x="586.021" y="577.691" type="curve" smooth="yes"/>
      <point x="608.465" y="594.4" type="line" smooth="yes"/>
      <point x="605.645" y="594.039"/>
      <point x="602.824" y="593.676"/>
      <point x="600.004" y="593.314" type="curve" smooth="yes"/>
      <point x="586.784" y="592.717"/>
      <point x="573.59" y="593.251"/>
      <point x="560.436" y="594.467" type="curve"/>
      <point x="564.542" y="629.557"/>
      <point x="571.506" y="664.302"/>
      <point x="581.021" y="698.318" type="curve" smooth="yes"/>
      <point x="583.376" y="706.269"/>
      <point x="585.615" y="714.255"/>
      <point x="588.084" y="722.17" type="curve" smooth="yes"/>
      <point x="598.899" y="756.84"/>
      <point x="612.034" y="790.707"/>
      <point x="625.164" y="824.547" type="curve" smooth="yes"/>
      <point x="633.782" y="846.611"/>
      <point x="642.969" y="868.645"/>
      <point x="648.373" y="891.771" type="curve" smooth="yes"/>
      <point x="650.599" y="902.083"/>
      <point x="652.992" y="912.447"/>
      <point x="653.189" y="923.045" type="curve"/>
      <point x="626.811" y="909.605" type="line"/>
      <point x="627.321" y="899.429"/>
      <point x="624.842" y="889.354"/>
      <point x="622.889" y="879.434" type="curve" smooth="yes"/>
      <point x="617.909" y="856.819"/>
      <point x="609.338" y="835.168"/>
      <point x="601.359" y="813.486" type="curve" smooth="yes"/>
      <point x="589.15" y="779.764"/>
      <point x="576.567" y="746.146"/>
      <point x="566.104" y="711.824" type="curve" smooth="yes"/>
      <point x="563.69" y="703.907"/>
      <point x="561.501" y="695.922"/>
      <point x="559.199" y="687.971" type="curve" smooth="yes"/>
      <point x="550.996" y="658.028"/>
      <point x="544.967" y="627.498"/>
      <point x="540.965" y="596.711" type="curve"/>
      <point x="521.432" y="599.283"/>
      <point x="501.931" y="602.057"/>
      <point x="482.449" y="604.986" type="curve" smooth="yes"/>
      <point x="469.778" y="606.372"/>
      <point x="456.898" y="607.612"/>
      <point x="444.359" y="605.406" type="curve"/>
      <point x="450.842" y="641.722"/>
      <point x="457.014" y="678.118"/>
      <point x="462.396" y="714.705" type="curve" smooth="yes"/>
      <point x="468.05" y="756.54"/>
      <point x="472.948" y="798.635"/>
      <point x="473.268" y="841.121" type="curve" smooth="yes"/>
      <point x="473.361" y="869.551"/>
      <point x="473.31" y="898.442"/>
      <point x="466.227" y="925.844" type="curve" smooth="yes"/>
      <point x="465.093" y="929.369"/>
      <point x="464.13" y="932.982"/>
      <point x="462.828" y="936.42" type="curve" smooth="yes"/>
      <point x="456.958" y="951.917"/>
      <point x="448.205" y="963.042"/>
      <point x="434.973" y="969" type="curve" smooth="yes"/>
      <point x="428.878" y="971.078"/>
      <point x="426.726" y="972.214"/>
      <point x="420.326" y="972.752" type="curve" smooth="yes"/>
      <point x="418.846" y="972.876"/>
      <point x="417.373" y="972.922"/>
    </contour>
  </outline>
</glyph>
<glyph name="Capital I" format="1">
  <advance width="1024"/>
  <unicode hex="0049"/>
  <outline>
    <contour>
      <point x="469.582" y="943.785" type="curve" smooth="yes"/>
      <point x="464.984" y="943.888"/>
      <point x="460.34" y="943.1"/>
      <point x="455.773" y="941.367" type="curve" smooth="yes"/>
      <point x="453.735" y="940.593"/>
      <point x="451.835" y="939.493"/>
      <point x="449.865" y="938.557" type="curve" smooth="yes"/>
      <point x="427.239" y="925.191"/>
      <point x="423.215" y="926.848"/>
      <point x="413.469" y="910.467" type="curve"/>
      <point x="439.639" y="921.98" type="line" smooth="yes"/>
      <point x="440.739" y="923.588"/>
      <point x="441.706" y="925.296"/>
      <point x="442.941" y="926.803" type="curve" smooth="yes"/>
      <point x="442.954" y="926.818"/>
      <point x="442.966" y="926.831"/>
      <point x="442.979" y="926.846" type="curve" smooth="yes"/>
      <point x="449.633" y="927.847"/>
      <point x="456.356" y="926.808"/>
      <point x="462.76" y="923.621" type="curve" smooth="yes"/>
      <point x="464.396" y="922.606"/>
      <point x="466.137" y="921.743"/>
      <point x="467.67" y="920.576" type="curve" smooth="yes"/>
      <point x="475.673" y="914.486"/>
      <point x="478.926" y="905.429"/>
      <point x="478.254" y="895.594" type="curve" smooth="yes"/>
      <point x="476.37" y="885.923"/>
      <point x="473.882" y="879.717"/>
      <point x="467.117" y="872.242" type="curve" smooth="yes"/>
      <point x="466.436" y="871.49"/>
      <point x="465.064" y="870.397"/>
      <point x="463.781" y="869.375" type="curve" smooth="yes"/>
      <point x="453.899" y="867.223"/>
      <point x="443.628" y="868.687"/>
      <point x="433.99" y="872.398" type="curve" smooth="yes"/>
      <point x="425.656" y="876.709"/>
      <point x="414.38" y="882.681"/>
      <point x="412.955" y="893.197" type="curve" smooth="yes"/>
      <point x="412.781" y="894.479"/>
      <point x="413.035" y="895.781"/>
      <point x="413.074" y="897.074" type="curve" smooth="yes"/>
      <point x="413.655" y="898.607"/>
      <point x="413.971" y="899.582"/>
      <point x="414.354" y="900.469" type="curve" smooth="yes"/>
      <point x="419.831" y="900.964"/>
      <point x="425.048" y="900.232"/>
      <point x="430.672" y="897.967" type="curve" smooth="yes"/>
      <point x="435.96" y="895.311"/>
      <point x="440.608" y="891.797"/>
      <point x="444.389" y="887.203" type="curve"/>
      <point x="469.697" y="902.711" type="line"/>
      <point x="465.333" y="907.157"/>
      <point x="460.543" y="910.95"/>
      <point x="455.09" y="913.955" type="curve" smooth="yes"/>
      <point x="447.191" y="917.73"/>
      <point x="438.742" y="918.133"/>
      <point x="430.256" y="916.688" type="curve" smooth="yes"/>
      <point x="416.556" y="912.816"/>
      <point x="405.155" y="904.303"/>
      <point x="393.17" y="896.504" type="curve" smooth="yes"/>
      <point x="391.304" y="895.29"/>
      <point x="388.748" y="891.116"/>
      <point x="387.961" y="889.098" type="curve" smooth="yes"/>
      <point x="387.411" y="887.687"/>
      <point x="387.222" y="886.162"/>
      <point x="386.854" y="884.693" type="curve" smooth="yes"/>
      <point x="386.954" y="883.123"/>
      <point x="386.831" y="881.521"/>
      <point x="387.154" y="879.981" type="curve" smooth="yes"/>
      <point x="389.563" y="868.503"/>
      <point x="401.007" y="862.007"/>
      <point x="410.428" y="856.967" type="curve" smooth="yes"/>
      <point x="423.125" y="851.736"/>
      <point x="437.218" y="849.932"/>
      <point x="450.285" y="855.039" type="curve" smooth="yes"/>
      <point x="452.743" y="856"/>
      <point x="455.018" y="857.371"/>
      <point x="457.385" y="858.537" type="curve" smooth="yes"/>
      <point x="467.501" y="864.809"/>
      <point x="477.912" y="870.628"/>
      <point x="487.732" y="877.354" type="curve" smooth="yes"/>
      <point x="489.89" y="878.831"/>
      <point x="491.479" y="881.017"/>
      <point x="493.148" y="883.029" type="curve" smooth="yes"/>
      <point x="497.721" y="888.542"/>
      <point x="501.173" y="894.922"/>
      <point x="502.9" y="901.889" type="curve" smooth="yes"/>
      <point x="503.406" y="903.928"/>
      <point x="503.589" y="906.035"/>
      <point x="503.934" y="908.107" type="curve" smooth="yes"/>
      <point x="504.306" y="918.895"/>
      <point x="500.476" y="928.67"/>
      <point x="491.994" y="935.57" type="curve" smooth="yes"/>
      <point x="490.378" y="936.885"/>
      <point x="488.54" y="937.901"/>
      <point x="486.812" y="939.066" type="curve" smooth="yes"/>
      <point x="481.327" y="942.044"/>
      <point x="475.493" y="943.653"/>
    </contour>
    <contour>
      <point x="434.512" y="924.441" type="curve"/>
      <point x="432.459" y="923.317"/>
      <point x="430.245" y="922.117"/>
      <point x="427.656" y="920.738" type="curve"/>
      <point x="429.527" y="921.795"/>
      <point x="431.319" y="923.008"/>
      <point x="433.27" y="923.908" type="curve" smooth="yes"/>
      <point x="433.682" y="924.098"/>
      <point x="434.097" y="924.267"/>
    </contour>
    <contour>
      <point x="479.322" y="876.172" type="curve"/>
      <point x="477.122" y="874.922"/>
      <point x="475.011" y="873.501"/>
      <point x="472.729" y="872.41" type="curve"/>
      <point x="474.91" y="873.702"/>
      <point x="477.087" y="875.008"/>
    </contour>
    <contour>
      <point x="457.205" y="823.322" type="curve"/>
      <point x="448.232" y="819.16"/>
      <point x="439.171" y="815.185"/>
      <point x="430.287" y="810.836" type="curve" smooth="yes"/>
      <point x="430.089" y="810.739"/>
      <point x="430.366" y="810.4"/>
      <point x="430.356" y="810.18" type="curve" smooth="yes"/>
      <point x="430.334" y="809.725"/>
      <point x="430.252" y="809.274"/>
      <point x="430.191" y="808.822" type="curve" smooth="yes"/>
      <point x="429.671" y="804.937"/>
      <point x="429.06" y="801.064"/>
      <point x="428.502" y="797.184" type="curve" smooth="yes"/>
      <point x="424.76" y="772.449"/>
      <point x="420.677" y="747.755"/>
      <point x="418.01" y="722.873" type="curve" smooth="yes"/>
      <point x="416.372" y="705.073"/>
      <point x="415.912" y="702.57"/>
      <point x="415.201" y="684.348" type="curve" smooth="yes"/>
      <point x="414" y="653.563"/>
      <point x="415.215" y="622.746"/>
      <point x="417.563" y="592.043" type="curve" smooth="yes"/>
      <point x="421.429" y="544.689"/>
      <point x="427.52" y="497.516"/>
      <point x="429.945" y="450.057" type="curve" smooth="yes"/>
      <point x="430.005" y="443.398"/>
      <point x="430.239" y="436.738"/>
      <point x="430.125" y="430.08" type="curve" smooth="yes"/>
      <point x="429.606" y="399.698"/>
      <point x="425.568" y="369.284"/>
      <point x="416.436" y="340.252" type="curve" smooth="yes"/>
      <point x="411.56" y="326.972"/>
      <point x="407.166" y="315.091"/>
      <point x="399.078" y="303.338" type="curve" smooth="yes"/>
      <point x="397.139" y="300.52"/>
      <point x="395.059" y="297.783"/>
      <point x="392.727" y="295.281" type="curve" smooth="yes"/>
      <point x="392.714" y="295.268"/>
      <point x="392.692" y="295.25"/>
      <point x="392.68" y="295.236" type="curve" smooth="yes"/>
      <point x="385.403" y="294.06"/>
      <point x="377.778" y="295.245"/>
      <point x="370.904" y="297.67" type="curve" smooth="yes"/>
      <point x="363.809" y="300.803"/>
      <point x="356.66" y="304.224"/>
      <point x="351.678" y="310.406" type="curve"/>
      <point x="326.236" y="295.201" type="line"/>
      <point x="331.954" y="289.042"/>
      <point x="339.319" y="285.133"/>
      <point x="346.869" y="281.707" type="curve" smooth="yes"/>
      <point x="355.819" y="278.357"/>
      <point x="365.88" y="276.761"/>
      <point x="375.283" y="279.314" type="curve" smooth="yes"/>
      <point x="377.496" y="279.915"/>
      <point x="379.589" y="280.894"/>
      <point x="381.742" y="281.684" type="curve" smooth="yes"/>
      <point x="396.022" y="290.056"/>
      <point x="408.75" y="293.958"/>
      <point x="418.563" y="305.9" type="curve" smooth="yes"/>
      <point x="429.437" y="319.136"/>
      <point x="435.011" y="335.468"/>
      <point x="440.355" y="351.439" type="curve" smooth="yes"/>
      <point x="448.716" y="380.692"/>
      <point x="452.592" y="411.138"/>
      <point x="452.832" y="441.539" type="curve" smooth="yes"/>
      <point x="452.885" y="448.217"/>
      <point x="452.589" y="454.893"/>
      <point x="452.467" y="461.57" type="curve" smooth="yes"/>
      <point x="450.461" y="500.488"/>
      <point x="444.518" y="539.055"/>
      <point x="440.91" y="577.83" type="curve" smooth="yes"/>
      <point x="440.127" y="586.252"/>
      <point x="439.558" y="594.692"/>
      <point x="438.881" y="603.123" type="curve" smooth="yes"/>
      <point x="436.148" y="640.568"/>
      <point x="435.581" y="678.207"/>
      <point x="438.906" y="715.633" type="curve" smooth="yes"/>
      <point x="438.907" y="715.641"/>
      <point x="438.907" y="715.648"/>
      <point x="438.908" y="715.656" type="curve"/>
      <point x="443.519" y="692.167"/>
      <point x="449.026" y="668.864"/>
      <point x="453.828" y="645.414" type="curve" smooth="yes"/>
      <point x="458.864" y="620.823"/>
      <point x="459.602" y="615.887"/>
      <point x="464.152" y="590.742" type="curve" smooth="yes"/>
      <point x="474.056" y="530.148"/>
      <point x="483.19" y="469.443"/>
      <point x="493.934" y="408.988" type="curve" smooth="yes"/>
      <point x="500.298" y="375.379"/>
      <point x="506.813" y="341.612"/>
      <point x="517.25" y="308.973" type="curve" smooth="yes"/>
      <point x="522.54" y="292.429"/>
      <point x="523.92" y="290.129"/>
      <point x="530.447" y="274.877" type="curve" smooth="yes"/>
      <point x="535.496" y="265.617"/>
      <point x="537.607" y="260.586"/>
      <point x="544.149" y="252.627" type="curve" smooth="yes"/>
      <point x="546.192" y="250.14"/>
      <point x="548.66" y="248.036"/>
      <point x="550.916" y="245.74" type="curve" smooth="yes"/>
      <point x="574.557" y="260.303" type="line" smooth="yes"/>
      <point x="572.231" y="262.377"/>
      <point x="569.695" y="264.239"/>
      <point x="567.58" y="266.527" type="curve" smooth="yes"/>
      <point x="560.688" y="273.985"/>
      <point x="558.507" y="278.772"/>
      <point x="553.15" y="287.686" type="curve" smooth="yes"/>
      <point x="550.773" y="292.684"/>
      <point x="548.192" y="297.591"/>
      <point x="546.018" y="302.682" type="curve" smooth="yes"/>
      <point x="530.086" y="339.989"/>
      <point x="522.297" y="380.23"/>
      <point x="514.158" y="419.752" type="curve" smooth="yes"/>
      <point x="503.027" y="480.173"/>
      <point x="493.997" y="540.92"/>
      <point x="484.654" y="601.637" type="curve" smooth="yes"/>
      <point x="477.165" y="646.601"/>
      <point x="468.58" y="691.364"/>
      <point x="461.018" y="736.312" type="curve" smooth="yes"/>
      <point x="458.279" y="756.806"/>
      <point x="455.91" y="777.42"/>
      <point x="456.711" y="798.141" type="curve" smooth="yes"/>
      <point x="456.866" y="806.411"/>
      <point x="457.129" y="814.684"/>
      <point x="457.201" y="822.953" type="curve"/>
      <point x="457.131" y="822.917"/>
      <point x="457.06" y="822.882"/>
      <point x="456.99" y="822.846" type="curve"/>
      <point x="457.022" y="822.913"/>
      <point x="457.052" y="822.982"/>
      <point x="457.092" y="823.045" type="curve" smooth="yes"/>
      <point x="457.11" y="823.074"/>
      <point x="457.154" y="823.096"/>
      <point x="457.203" y="823.115" type="curve" smooth="yes"/>
      <point x="457.204" y="823.184"/>
      <point x="457.204" y="823.253"/>
    </contour>
    <contour>
      <point x="457.203" y="823.115" type="curve" smooth="yes"/>
      <point x="457.203" y="823.061"/>
      <point x="457.202" y="823.007"/>
      <point x="457.201" y="822.953" type="curve"/>
      <point x="457.315" y="823.013"/>
      <point x="457.429" y="823.071"/>
      <point x="457.543" y="823.131" type="curve" smooth="yes"/>
      <point x="457.648" y="823.186"/>
      <point x="457.373" y="823.18"/>
    </contour>
  </outline>
</glyph>
<glyph name="Capital J" format="1">
  <advance width="1024"/>
  <unicode hex="004A"/>
  <outline>
    <contour>
      <point x="405.428" y="1010.62" type="line" smooth="yes"/>
      <point x="404.357" y="1010.63"/>
      <point x="403.287" y="1010.63"/>
      <point x="402.217" y="1010.62" type="curve" smooth="yes"/>
      <point x="388.482" y="1010.09"/>
      <point x="374.762" y="1008.91"/>
      <point x="361.398" y="1005.51" type="curve"/>
      <point x="337.951" y="987.455" type="line"/>
      <point x="351.513" y="991.811"/>
      <point x="365.687" y="993.328"/>
      <point x="379.834" y="994.184" type="curve" smooth="yes"/>
      <point x="396.796" y="994.679"/>
      <point x="413.884" y="992.506"/>
      <point x="429.994" y="987.057" type="curve" smooth="yes"/>
      <point x="433.218" y="985.966"/>
      <point x="436.348" y="984.614"/>
      <point x="439.525" y="983.393" type="curve" smooth="yes"/>
      <point x="457.6" y="976.116"/>
      <point x="474.206" y="965.864"/>
      <point x="490.182" y="954.828" type="curve" smooth="yes"/>
      <point x="499.418" y="948.264"/>
      <point x="508.211" y="941.037"/>
      <point x="517.744" y="934.893" type="curve" smooth="yes"/>
      <point x="523.855" y="930.954"/>
      <point x="525.016" y="930.558"/>
      <point x="531.461" y="927.254" type="curve" smooth="yes"/>
      <point x="543.811" y="921.4"/>
      <point x="557.155" y="919.79"/>
      <point x="570.469" y="923.102" type="curve" smooth="yes"/>
      <point x="573.375" y="923.824"/>
      <point x="576.182" y="924.898"/>
      <point x="579.039" y="925.797" type="curve" smooth="yes"/>
      <point x="593.48" y="931.556"/>
      <point x="606.634" y="939.066"/>
      <point x="618.969" y="947.795" type="curve"/>
      <point x="617.459" y="945.457"/>
      <point x="615.946" y="942.947"/>
      <point x="614.393" y="940.219" type="curve" smooth="yes"/>
      <point x="603.341" y="918.804"/>
      <point x="599.015" y="894.602"/>
      <point x="595.623" y="870.484" type="curve" smooth="yes"/>
      <point x="590.662" y="820.171"/>
      <point x="588.005" y="769.603"/>
      <point x="584.541" y="719.139" type="curve" smooth="yes"/>
      <point x="578.691" y="636.837"/>
      <point x="573.051" y="554.521"/>
      <point x="565.955" y="472.34" type="curve" smooth="yes"/>
      <point x="565.328" y="465.828"/>
      <point x="564.692" y="459.315"/>
      <point x="564.057" y="452.803" type="curve"/>
      <point x="528.271" y="431.219"/>
      <point x="493.668" y="407.253"/>
      <point x="462.029" y="378.592" type="curve" smooth="yes"/>
      <point x="454.704" y="371.782"/>
      <point x="447.281" y="365.102"/>
      <point x="440.055" y="358.162" type="curve" smooth="yes"/>
      <point x="403.687" y="323.238"/>
      <point x="369.44" y="285.447"/>
      <point x="338.906" y="244.094" type="curve" smooth="yes"/>
      <point x="315.358" y="211.121"/>
      <point x="290.276" y="176.006"/>
      <point x="277.09" y="135.936" type="curve" smooth="yes"/>
      <point x="275.12" y="129.95"/>
      <point x="273.859" y="123.703"/>
      <point x="272.244" y="117.586" type="curve" smooth="yes"/>
      <point x="270.781" y="104.607"/>
      <point x="269.106" y="99.1071"/>
      <point x="271.49" y="86.375" type="curve" smooth="yes"/>
      <point x="274.875" y="68.299"/>
      <point x="287.104" y="56.5283"/>
      <point x="300.77" y="47.7383" type="curve" smooth="yes"/>
      <point x="304.687" y="45.6276"/>
      <point x="308.523" y="43.318"/>
      <point x="312.521" y="41.4063" type="curve" smooth="yes"/>
      <point x="336.013" y="30.1743"/>
      <point x="361.591" y="25.1984"/>
      <point x="386.783" y="21.6661" type="curve" smooth="yes"/>
      <point x="403.158" y="20.7571"/>
      <point x="419.495" y="19.8951"/>
      <point x="435.68" y="23.8028" type="curve" smooth="yes"/>
      <point x="459.706" y="29.6038"/>
      <point x="481.352" y="44.992"/>
      <point x="499.393" y="63.252" type="curve" smooth="yes"/>
      <point x="503.131" y="68.3691"/>
      <point x="507.27" y="73.1503"/>
      <point x="510.609" y="78.6016" type="curve" smooth="yes"/>
      <point x="518.694" y="91.7998"/>
      <point x="524.654" y="106.653"/>
      <point x="529.623" y="121.568" type="curve" smooth="yes"/>
      <point x="539.988" y="152.681"/>
      <point x="546.199" y="185.255"/>
      <point x="551.994" y="217.723" type="curve" smooth="yes"/>
      <point x="554.041" y="230.771"/>
      <point x="556.22" y="243.794"/>
      <point x="558.137" y="256.867" type="curve" smooth="yes"/>
      <point x="567.805" y="322.807"/>
      <point x="574.701" y="389.212"/>
      <point x="581.398" y="455.602" type="curve" smooth="yes"/>
      <point x="583.773" y="456.689"/>
      <point x="588.876" y="458.987"/>
      <point x="602.768" y="465.371" type="curve"/>
      <point x="621.572" y="481.92" type="line"/>
      <point x="608.375" y="475.906"/>
      <point x="595.049" y="470.149"/>
      <point x="582.176" y="463.279" type="curve"/>
      <point x="582.818" y="469.66"/>
      <point x="583.471" y="476.042"/>
      <point x="584.113" y="482.422" type="curve" smooth="yes"/>
      <point x="591.714" y="565.125"/>
      <point x="597.928" y="647.969"/>
      <point x="605.283" y="730.699" type="curve" smooth="yes"/>
      <point x="609.539" y="781.693"/>
      <point x="613.058" y="832.828"/>
      <point x="619.555" y="883.541" type="curve" smooth="yes"/>
      <point x="623.552" y="907.637"/>
      <point x="628.48" y="931.833"/>
      <point x="640.285" y="952.873" type="curve" smooth="yes"/>
      <point x="643.732" y="958.382"/>
      <point x="644.728" y="960.4"/>
      <point x="648.703" y="965.213" type="curve" smooth="yes"/>
      <point x="649.978" y="966.756"/>
      <point x="651.327" y="968.225"/>
      <point x="652.744" y="969.604" type="curve" smooth="yes"/>
      <point x="653.934" y="970.76"/>
      <point x="657.909" y="973.621"/>
      <point x="656.512" y="972.803" type="curve" smooth="yes"/>
      <point x="652.619" y="970.522"/>
      <point x="643.367" y="964.739"/>
      <point x="638.051" y="961.334" type="curve" smooth="yes"/>
      <point x="660.27" y="980.617" type="line"/>
      <point x="647.745" y="975.06"/>
      <point x="639.123" y="970.092"/>
      <point x="632.004" y="963.604" type="curve" smooth="yes"/>
      <point x="619.807" y="958.633" type="line" smooth="yes"/>
      <point x="612.71" y="952.363"/>
      <point x="610.6" y="950.238"/>
      <point x="602.937" y="944.543" type="curve" smooth="yes"/>
      <point x="602.198" y="943.994"/>
      <point x="601.034" y="943.237"/>
      <point x="599.77" y="942.438" type="curve" smooth="yes"/>
      <point x="597.467" y="941.599"/>
      <point x="595.179" y="940.715"/>
      <point x="592.826" y="940.037" type="curve" smooth="yes"/>
      <point x="580.04" y="936.355"/>
      <point x="567.127" y="937.228"/>
      <point x="555.006" y="942.734" type="curve" smooth="yes"/>
      <point x="548.694" y="945.857"/>
      <point x="547.429" y="946.29"/>
      <point x="541.424" y="950.031" type="curve" smooth="yes"/>
      <point x="531.772" y="956.044"/>
      <point x="522.921" y="963.246"/>
      <point x="513.658" y="969.816" type="curve" smooth="yes"/>
      <point x="497.425" y="980.884"/>
      <point x="480.673" y="991.298"/>
      <point x="462.422" y="998.758" type="curve" smooth="yes"/>
      <point x="459.197" y="1000.04"/>
      <point x="456.021" y="1001.44"/>
      <point x="452.748" y="1002.59" type="curve" smooth="yes"/>
      <point x="437.567" y="1007.92"/>
      <point x="421.49" y="1010.46"/>
      <point x="405.428" y="1010.62" type="curve"/>
    </contour>
    <contour>
      <point x="563.408" y="446.119" type="curve"/>
      <point x="556.859" y="379.384"/>
      <point x="549.674" y="312.669"/>
      <point x="539.266" y="246.537" type="curve" smooth="yes"/>
      <point x="537.195" y="233.379"/>
      <point x="534.809" y="220.284"/>
      <point x="532.58" y="207.158" type="curve" smooth="yes"/>
      <point x="526.294" y="174.366"/>
      <point x="519.391" y="141.504"/>
      <point x="508.131" y="110.311" type="curve" smooth="yes"/>
      <point x="502.632" y="95.077"/>
      <point x="496.245" y="80.4511"/>
      <point x="487.514" y="67.1699" type="curve" smooth="yes"/>
      <point x="483.955" y="61.7575"/>
      <point x="479.602" y="57.0566"/>
      <point x="475.646" y="52" type="curve" smooth="yes"/>
      <point x="473.809" y="50.3994"/>
      <point x="471.903" y="48.8867"/>
      <point x="470.014" y="47.3516" type="curve" smooth="yes"/>
      <point x="465.377" y="47.3175"/>
      <point x="461.114" y="43.0585"/>
      <point x="456.486" y="41.7969" type="curve" smooth="yes"/>
      <point x="440.456" y="37.4261"/>
      <point x="424.282" y="38.0227"/>
      <point x="407.971" y="38.7031" type="curve" smooth="yes"/>
      <point x="383.089" y="41.856"/>
      <point x="357.876" y="46.9337"/>
      <point x="334.748" y="58.0977" type="curve" smooth="yes"/>
      <point x="330.846" y="59.9813"/>
      <point x="327.101" y="62.2502"/>
      <point x="323.277" y="64.3262" type="curve" smooth="yes"/>
      <point x="310.289" y="72.7592"/>
      <point x="298.62" y="83.9223"/>
      <point x="295.41" y="101.15" type="curve" smooth="yes"/>
      <point x="293.155" y="113.254"/>
      <point x="294.703" y="118.339"/>
      <point x="296.051" y="130.725" type="curve" smooth="yes"/>
      <point x="297.576" y="136.617"/>
      <point x="298.756" y="142.634"/>
      <point x="300.625" y="148.402" type="curve" smooth="yes"/>
      <point x="313.417" y="187.88"/>
      <point x="337.738" y="222.052"/>
      <point x="360.793" y="254.545" type="curve" smooth="yes"/>
      <point x="391.069" y="295.775"/>
      <point x="425.23" y="333.302"/>
      <point x="461.504" y="367.916" type="curve" smooth="yes"/>
      <point x="468.769" y="374.849"/>
      <point x="476.239" y="381.512"/>
      <point x="483.605" y="388.311" type="curve" smooth="yes"/>
      <point x="505.353" y="407.524"/>
      <point x="528.115" y="425.276"/>
      <point x="552.121" y="440.799" type="curve" smooth="yes"/>
      <point x="553.072" y="441.414"/>
      <point x="554.255" y="441.435"/>
      <point x="555.256" y="441.943" type="curve" smooth="yes"/>
      <point x="558.739" y="443.712"/>
      <point x="560.902" y="444.831"/>
    </contour>
  </outline>
</glyph>
<glyph name="Capital K" format="1">
  <advance width="1024"/>
  <unicode hex="004B"/>
  <outline>
    <contour>
      <point x="377.588" y="959.893" type="curve"/>
      <point x="351.846" y="943.729" type="line"/>
      <point x="359.234" y="931.043"/>
      <point x="367.397" y="918.968"/>
      <point x="374.172" y="905.84" type="curve" smooth="yes"/>
      <point x="376.703" y="900.935"/>
      <point x="379.035" y="895.908"/>
      <point x="381.467" y="890.941" type="curve" smooth="yes"/>
      <point x="394.91" y="861.995"/>
      <point x="404.265" y="830.856"/>
      <point x="408.664" y="798.66" type="curve" smooth="yes"/>
      <point x="412.498" y="770.604"/>
      <point x="411.816" y="761.021"/>
      <point x="412.404" y="732.119" type="curve" smooth="yes"/>
      <point x="410.98" y="665.687"/>
      <point x="398.229" y="600.551"/>
      <point x="381.711" y="536.857" type="curve" smooth="yes"/>
      <point x="379.812" y="530.45"/>
      <point x="377.931" y="524.005"/>
      <point x="376.545" y="517.443" type="curve" smooth="yes"/>
      <point x="375.877" y="514.984"/>
      <point x="375.217" y="512.521"/>
      <point x="374.541" y="510.066" type="curve" smooth="yes"/>
      <point x="369.879" y="493.139"/>
      <point x="364.762" y="476.367"/>
      <point x="359.873" y="459.518" type="curve" smooth="yes"/>
      <point x="344.831" y="409.751"/>
      <point x="328.604" y="360.423"/>
      <point x="310.9" y="311.73" type="curve" smooth="yes"/>
      <point x="305.552" y="297.019"/>
      <point x="299.916" y="282.436"/>
      <point x="294.424" y="267.789" type="curve"/>
      <point x="312.506" y="277" type="line"/>
      <point x="335.348" y="340.166"/>
      <point x="357.484" y="403.649"/>
      <point x="376.742" y="468.277" type="curve" smooth="yes"/>
      <point x="380.748" y="481.878"/>
      <point x="384.877" y="495.435"/>
      <point x="388.828" y="509.055" type="curve"/>
      <point x="393.472" y="509.752"/>
      <point x="398.136" y="510.225"/>
      <point x="402.844" y="510.117" type="curve" smooth="yes"/>
      <point x="405.871" y="510.048"/>
      <point x="408.888" y="509.707"/>
      <point x="411.91" y="509.502" type="curve" smooth="yes"/>
      <point x="435.199" y="505.887"/>
      <point x="457.752" y="496.395"/>
      <point x="476.84" y="481.072" type="curve" smooth="yes"/>
      <point x="481.93" y="476.986"/>
      <point x="486.553" y="472.238"/>
      <point x="491.41" y="467.82" type="curve" smooth="yes"/>
      <point x="496.077" y="462.295"/>
      <point x="501.114" y="457.124"/>
      <point x="505.412" y="451.246" type="curve" smooth="yes"/>
      <point x="527.122" y="421.561"/>
      <point x="540.396" y="385.277"/>
      <point x="550.523" y="349.195" type="curve" smooth="yes"/>
      <point x="553.427" y="338.853"/>
      <point x="555.79" y="328.335"/>
      <point x="558.424" y="317.904" type="curve" smooth="yes"/>
      <point x="565.727" y="288.275"/>
      <point x="570.536" y="257.963"/>
      <point x="577.766" y="228.316" type="curve" smooth="yes"/>
      <point x="579.776" y="220.072"/>
      <point x="582.223" y="211.965"/>
      <point x="584.451" y="203.789" type="curve"/>
      <point x="605.99" y="216.824" type="line"/>
      <point x="603.579" y="224.828"/>
      <point x="600.907" y="232.742"/>
      <point x="598.758" y="240.836" type="curve" smooth="yes"/>
      <point x="590.947" y="270.245"/>
      <point x="585.95" y="300.489"/>
      <point x="578.674" y="330.051" type="curve" smooth="yes"/>
      <point x="576.068" y="340.551"/>
      <point x="573.705" y="351.129"/>
      <point x="570.857" y="361.553" type="curve" smooth="yes"/>
      <point x="560.877" y="398.086"/>
      <point x="548.228" y="435.089"/>
      <point x="526.906" y="465.621" type="curve" smooth="yes"/>
      <point x="522.677" y="471.677"/>
      <point x="517.683" y="477.03"/>
      <point x="513.07" y="482.734" type="curve" smooth="yes"/>
      <point x="508.261" y="487.324"/>
      <point x="503.685" y="492.234"/>
      <point x="498.641" y="496.506" type="curve" smooth="yes"/>
      <point x="479.916" y="512.362"/>
      <point x="457.704" y="522.566"/>
      <point x="434.6" y="527.363" type="curve" smooth="yes"/>
      <point x="427.625" y="528.189"/>
      <point x="424.987" y="528.771"/>
      <point x="418.211" y="528.633" type="curve" smooth="yes"/>
      <point x="412.713" y="528.521"/>
      <point x="407.323" y="527.319"/>
      <point x="401.865" y="526.812" type="curve"/>
      <point x="403.229" y="536.273"/>
      <point x="405.91" y="545.489"/>
      <point x="408.367" y="554.65" type="curve" smooth="yes"/>
      <point x="416.077" y="583.894"/>
      <point x="429.25" y="610.732"/>
      <point x="442.279" y="637.4" type="curve" smooth="yes"/>
      <point x="462.715" y="677.53"/>
      <point x="483.375" y="717.52"/>
      <point x="503.73" y="757.701" type="curve" smooth="yes"/>
      <point x="520.158" y="789.582"/>
      <point x="534.861" y="822.684"/>
      <point x="553.836" y="852.891" type="curve" smooth="yes"/>
      <point x="556.828" y="857.654"/>
      <point x="560.057" y="862.229"/>
      <point x="563.168" y="866.898" type="curve" smooth="yes"/>
      <point x="573.61" y="881.999"/>
      <point x="585.879" y="895.437"/>
      <point x="600.533" y="905.521" type="curve" smooth="yes"/>
      <point x="603.819" y="907.783"/>
      <point x="613.371" y="914.856"/>
      <point x="610.652" y="911.814" type="curve" smooth="yes"/>
      <point x="607.049" y="907.783"/>
      <point x="602.085" y="905.581"/>
      <point x="597.801" y="902.465" type="curve"/>
      <point x="616.133" y="910.504"/>
      <point x="635.834" y="915.99"/>
      <point x="655.705" y="915.512" type="curve" smooth="yes"/>
      <point x="659.438" y="915.422"/>
      <point x="663.149" y="914.846"/>
      <point x="666.871" y="914.514" type="curve" smooth="yes"/>
      <point x="684.819" y="912.529"/>
      <point x="700.82" y="903.141"/>
      <point x="717.555" y="896.619" type="curve" smooth="yes"/>
      <point x="721.101" y="895.237"/>
      <point x="724.717" y="894.082"/>
      <point x="728.297" y="892.812" type="curve" smooth="yes"/>
      <point x="732.297" y="891.869"/>
      <point x="736.297" y="890.926"/>
      <point x="740.297" y="889.982" type="curve" smooth="yes"/>
      <point x="762.594" y="907.074" type="line" smooth="yes"/>
      <point x="758.704" y="907.979"/>
      <point x="754.815" y="908.884"/>
      <point x="750.926" y="909.789" type="curve" smooth="yes"/>
      <point x="747.403" y="911.027"/>
      <point x="743.842" y="912.144"/>
      <point x="740.355" y="913.502" type="curve" smooth="yes"/>
      <point x="723.405" y="920.102"/>
      <point x="707.273" y="929.773"/>
      <point x="689.125" y="932.014" type="curve" smooth="yes"/>
      <point x="685.315" y="932.419"/>
      <point x="681.52" y="933.068"/>
      <point x="677.695" y="933.229" type="curve" smooth="yes"/>
      <point x="657.684" y="934.07"/>
      <point x="637.764" y="928.818"/>
      <point x="619.141" y="921.18" type="curve" smooth="yes"/>
      <point x="604.414" y="912.441"/>
      <point x="589.169" y="904.62"/>
      <point x="575.188" y="894.5" type="curve" smooth="yes"/>
      <point x="560.902" y="884.16"/>
      <point x="549.11" y="870.482"/>
      <point x="539.021" y="855.361" type="curve" smooth="yes"/>
      <point x="536.027" y="850.692"/>
      <point x="532.916" y="846.112"/>
      <point x="530.037" y="841.355" type="curve" smooth="yes"/>
      <point x="511.729" y="811.101"/>
      <point x="497.518" y="778.156"/>
      <point x="481.217" y="746.609" type="curve" smooth="yes"/>
      <point x="460.594" y="706.148"/>
      <point x="439.537" y="665.963"/>
      <point x="418.605" y="625.697" type="curve" smooth="yes"/>
      <point x="418.203" y="624.888"/>
      <point x="417.803" y="624.075"/>
      <point x="417.4" y="623.266" type="curve"/>
      <point x="425.363" y="662.786"/>
      <point x="430.941" y="702.826"/>
      <point x="432.422" y="743.406" type="curve" smooth="yes"/>
      <point x="432.361" y="755.241"/>
      <point x="432.721" y="767.089"/>
      <point x="432.24" y="778.912" type="curve" smooth="yes"/>
      <point x="430.459" y="822.69"/>
      <point x="421.362" y="865.713"/>
      <point x="404.365" y="905.363" type="curve" smooth="yes"/>
      <point x="398.3" y="918.936"/>
      <point x="397.716" y="920.775"/>
      <point x="391.285" y="933.301" type="curve" smooth="yes"/>
      <point x="385.941" y="943.709"/>
      <point x="386.676" y="941.561"/>
      <point x="381.777" y="950.875" type="curve" smooth="yes"/>
      <point x="379.154" y="955.863"/>
      <point x="379.427" y="955.436"/>
    </contour>
  </outline>
</glyph>
<glyph name="Capital L" format="1">
  <advance width="1024"/>
  <unicode hex="004C"/>
  <outline>
    <contour>
      <point x="573.218" y="973.723" type="line"/>
      <point x="551.182" y="966.826"/>
      <point x="530.752" y="956.542"/>
      <point x="511.243" y="945.77" type="curve" smooth="yes"/>
      <point x="495.065" y="936.838"/>
      <point x="482.825" y="924.65"/>
      <point x="472.228" y="911.428" type="curve" smooth="yes"/>
      <point x="458.244" y="892.838"/>
      <point x="448.783" y="872.255"/>
      <point x="439.823" y="851.779" type="curve" smooth="yes"/>
      <point x="425.346" y="815.523"/>
      <point x="412.641" y="778.82"/>
      <point x="400.753" y="741.945" type="curve" smooth="yes"/>
      <point x="385.739" y="694.802"/>
      <point x="375.421" y="646.794"/>
      <point x="365.825" y="598.75" type="curve" smooth="yes"/>
      <point x="356.31" y="552.068"/>
      <point x="349.381" y="505.086"/>
      <point x="342.881" y="458.072" type="curve" smooth="yes"/>
      <point x="338.971" y="422.657"/>
      <point x="334.403" y="387.317"/>
      <point x="328.776" y="352.059" type="curve" smooth="yes"/>
      <point x="325.787" y="338.122"/>
      <point x="324.327" y="323.813"/>
      <point x="319.088" y="310.266" type="curve" smooth="yes"/>
      <point x="315.696" y="303.987"/>
      <point x="313.594" y="297.393"/>
      <point x="311.514" y="290.771" type="curve" smooth="yes"/>
      <point x="310.148" y="286.244"/>
      <point x="309.394" y="281.631"/>
      <point x="308.821" y="277" type="curve" smooth="yes"/>
      <point x="306.629" y="273.674"/>
      <point x="304.708" y="270.229"/>
      <point x="303.16" y="266.641" type="curve" smooth="yes"/>
      <point x="307.895" y="268.498" type="line" smooth="yes"/>
      <point x="307.777" y="267.239"/>
      <point x="307.778" y="267.271"/>
      <point x="307.602" y="265.283" type="curve" smooth="yes"/>
      <point x="339.897" y="278.615" type="line" smooth="yes"/>
      <point x="339.926" y="280.941"/>
      <point x="339.899" y="279.683"/>
      <point x="339.992" y="282.387" type="curve" smooth="yes"/>
      <point x="340.113" y="284.365"/>
      <point x="340.28" y="286.343"/>
      <point x="340.498" y="288.316" type="curve" smooth="yes"/>
      <point x="345.217" y="295.626"/>
      <point x="351.401" y="302.293"/>
      <point x="357.824" y="308.658" type="curve" smooth="yes"/>
      <point x="360.148" y="310.583"/>
      <point x="362.325" y="312.635"/>
      <point x="364.797" y="314.432" type="curve" smooth="yes"/>
      <point x="365.777" y="315.144"/>
      <point x="366.789" y="315.827"/>
      <point x="367.814" y="316.496" type="curve" smooth="yes"/>
      <point x="370.072" y="317.27"/>
      <point x="372.717" y="318.142"/>
      <point x="375.601" y="318.951" type="curve" smooth="yes"/>
      <point x="380.02" y="320.191"/>
      <point x="384.572" y="321.092"/>
      <point x="389.057" y="322.162" type="curve" smooth="yes"/>
      <point x="415.913" y="327.685"/>
      <point x="443.708" y="329.807"/>
      <point x="471.357" y="328.564" type="curve" smooth="yes"/>
      <point x="477.266" y="328.299"/>
      <point x="483.148" y="327.726"/>
      <point x="489.043" y="327.307" type="curve" smooth="yes"/>
      <point x="511.941" y="324.762"/>
      <point x="534.155" y="319.067"/>
      <point x="554.566" y="310.162" type="curve" smooth="yes"/>
      <point x="565.344" y="305.459"/>
      <point x="573.384" y="300.829"/>
      <point x="583.559" y="295.326" type="curve" smooth="yes"/>
      <point x="602.436" y="284.465"/>
      <point x="620.078" y="272.244"/>
      <point x="638.924" y="261.35" type="curve" smooth="yes"/>
      <point x="651.988" y="253.798"/>
      <point x="654.645" y="252.708"/>
      <point x="668.297" y="245.838" type="curve" smooth="yes"/>
      <point x="689.106" y="236.284"/>
      <point x="711.467" y="228.514"/>
      <point x="735.305" y="225.949" type="curve" smooth="yes"/>
      <point x="752.657" y="224.082"/>
      <point x="757.591" y="224.995"/>
      <point x="775.16" y="225.795" type="curve" smooth="yes"/>
      <point x="795.075" y="228.62"/>
      <point x="799.32" y="228.595"/>
      <point x="818.874" y="234" type="curve" smooth="yes"/>
      <point x="826.574" y="236.128"/>
      <point x="834.011" y="238.848"/>
      <point x="841.58" y="241.271" type="curve" smooth="yes"/>
      <point x="865.914" y="256.928" type="line" smooth="yes"/>
      <point x="858.484" y="254.487"/>
      <point x="851.187" y="251.754"/>
      <point x="843.624" y="249.605" type="curve" smooth="yes"/>
      <point x="824.62" y="244.208"/>
      <point x="820.215" y="244.158"/>
      <point x="800.838" y="241.264" type="curve" smooth="yes"/>
      <point x="783.552" y="240.327"/>
      <point x="778.911" y="239.394"/>
      <point x="761.823" y="241.096" type="curve" smooth="yes"/>
      <point x="738.289" y="243.439"/>
      <point x="716.21" y="250.967"/>
      <point x="695.623" y="260.281" type="curve" smooth="yes"/>
      <point x="682.069" y="267.078"/>
      <point x="679.423" y="268.164"/>
      <point x="666.438" y="275.629" type="curve" smooth="yes"/>
      <point x="647.517" y="286.507"/>
      <point x="629.847" y="298.756"/>
      <point x="610.999" y="309.717" type="curve" smooth="yes"/>
      <point x="600.831" y="315.271"/>
      <point x="592.532" y="320.081"/>
      <point x="581.763" y="324.857" type="curve" smooth="yes"/>
      <point x="561.134" y="334.007"/>
      <point x="538.667" y="339.968"/>
      <point x="515.465" y="342.727" type="curve" smooth="yes"/>
      <point x="509.528" y="343.188"/>
      <point x="503.605" y="343.791"/>
      <point x="497.655" y="344.111" type="curve" smooth="yes"/>
      <point x="470.123" y="345.594"/>
      <point x="442.389" y="343.908"/>
      <point x="415.503" y="338.805" type="curve" smooth="yes"/>
      <point x="385.581" y="332.39"/>
      <point x="383.342" y="329.924"/>
      <point x="350.267" y="314.229" type="curve" smooth="yes"/>
      <point x="349.152" y="313.7"/>
      <point x="348.057" y="313.149"/>
      <point x="346.977" y="312.578" type="curve"/>
      <point x="348.327" y="315.996"/>
      <point x="349.763" y="319.391"/>
      <point x="351.218" y="322.793" type="curve" smooth="yes"/>
      <point x="355.074" y="336.303"/>
      <point x="355.841" y="350.25"/>
      <point x="358.146" y="363.961" type="curve" smooth="yes"/>
      <point x="362.564" y="398.973"/>
      <point x="366.255" y="434.034"/>
      <point x="370.033" y="469.096" type="curve" smooth="yes"/>
      <point x="376.124" y="515.968"/>
      <point x="382.836" y="562.802"/>
      <point x="392.216" y="609.322" type="curve" smooth="yes"/>
      <point x="401.808" y="657.453"/>
      <point x="412.677" y="705.464"/>
      <point x="428.065" y="752.611" type="curve" smooth="yes"/>
      <point x="440.45" y="789.785"/>
      <point x="453.727" y="826.773"/>
      <point x="469.499" y="863.092" type="curve" smooth="yes"/>
      <point x="479.044" y="883.546"/>
      <point x="489.007" y="904.116"/>
      <point x="503.506" y="922.617" type="curve" smooth="yes"/>
      <point x="513.782" y="934.743"/>
      <point x="525.469" y="945.902"/>
      <point x="540.343" y="954.33" type="curve" smooth="yes"/>
      <point x="540.728" y="954.467"/>
      <point x="541.15" y="954.626"/>
      <point x="541.481" y="954.732" type="curve" smooth="yes"/>
      <point x="542.504" y="955.06"/>
      <point x="543.577" y="955.267"/>
      <point x="544.625" y="955.535" type="curve" smooth="yes"/>
    </contour>
  </outline>
</glyph>
<glyph name="Capital M" format="1">
  <advance width="1024"/>
  <unicode hex="004D"/>
  <outline>
    <contour>
      <point x="427.49" y="969.258" type="curve" smooth="yes"/>
      <point x="423.018" y="969.292"/>
      <point x="418.522" y="968.872"/>
      <point x="414.053" y="968.971" type="curve" smooth="yes"/>
      <point x="406.536" y="966.606"/>
      <point x="398.655" y="966.034"/>
      <point x="391.502" y="961.877" type="curve" smooth="yes"/>
      <point x="376.501" y="953.159"/>
      <point x="362.307" y="941.633"/>
      <point x="348.021" y="930.594" type="curve" smooth="yes"/>
      <point x="313.788" y="904.14"/>
      <point x="284.916" y="865.724"/>
      <point x="259.791" y="822.736" type="curve" smooth="yes"/>
      <point x="243.044" y="791.198"/>
      <point x="237.367" y="782.544"/>
      <point x="223.369" y="748.035" type="curve" smooth="yes"/>
      <point x="202.841" y="697.43"/>
      <point x="188.262" y="642.11"/>
      <point x="181.217" y="583.973" type="curve" smooth="yes"/>
      <point x="180.024" y="570.932"/>
      <point x="178.494" y="557.948"/>
      <point x="177.639" y="544.85" type="curve" smooth="yes"/>
      <point x="174.106" y="490.752"/>
      <point x="177.427" y="436.479"/>
      <point x="185.932" y="383.705" type="curve" smooth="yes"/>
      <point x="192.51" y="343.8"/>
      <point x="199.565" y="303.782"/>
      <point x="210.385" y="265.857" type="curve" smooth="yes"/>
      <point x="215.386" y="250.213"/>
      <point x="220.71" y="234.607"/>
      <point x="228.133" y="221.109" type="curve"/>
      <point x="253.475" y="243.621" type="line"/>
      <point x="245.394" y="255.87"/>
      <point x="239.955" y="271.24"/>
      <point x="234.74" y="286.342" type="curve" smooth="yes"/>
      <point x="223.247" y="323.318"/>
      <point x="215.589" y="362.596"/>
      <point x="208.604" y="401.857" type="curve" smooth="yes"/>
      <point x="199.769" y="453.813"/>
      <point x="196.058" y="507.437"/>
      <point x="199.215" y="560.912" type="curve" smooth="yes"/>
      <point x="199.978" y="573.837"/>
      <point x="201.424" y="586.653"/>
      <point x="202.529" y="599.523" type="curve" smooth="yes"/>
      <point x="209.229" y="657.113"/>
      <point x="223.682" y="711.843"/>
      <point x="244.111" y="761.791" type="curve" smooth="yes"/>
      <point x="258.108" y="796.011"/>
      <point x="263.881" y="804.72"/>
      <point x="280.65" y="835.943" type="curve" smooth="yes"/>
      <point x="300.199" y="868.886"/>
      <point x="321.887" y="899.215"/>
      <point x="346.758" y="923.291" type="curve" smooth="yes"/>
      <point x="354.28" y="930.573"/>
      <point x="361.886" y="937.897"/>
      <point x="370.139" y="943.17" type="curve" smooth="yes"/>
      <point x="371.154" y="943.818"/>
      <point x="371.418" y="939.58"/>
      <point x="372.518" y="939.75" type="curve" smooth="yes"/>
      <point x="379.956" y="940.897"/>
      <point x="387.123" y="944.526"/>
      <point x="394.426" y="946.914" type="curve" smooth="yes"/>
      <point x="401.365" y="946.865"/>
      <point x="408.361" y="948.083"/>
      <point x="415.242" y="946.766" type="curve" smooth="yes"/>
      <point x="436.317" y="942.73"/>
      <point x="454.672" y="925.795"/>
      <point x="468.41" y="902.264" type="curve" smooth="yes"/>
      <point x="482.002" y="878.984"/>
      <point x="485.226" y="864.417"/>
      <point x="494.467" y="836.562" type="curve" smooth="yes"/>
      <point x="497.865" y="822.204"/>
      <point x="501.729" y="808.068"/>
      <point x="504.662" y="793.486" type="curve" smooth="yes"/>
      <point x="512.939" y="752.346"/>
      <point x="518.207" y="710.226"/>
      <point x="521.865" y="667.73" type="curve" smooth="yes"/>
      <point x="521.421" y="663.045"/>
      <point x="521.064" y="658.33"/>
      <point x="520.809" y="653.584" type="curve" smooth="yes"/>
      <point x="519.917" y="634.846"/>
      <point x="519.703" y="615.994"/>
      <point x="522.539" y="597.551" type="curve"/>
      <point x="526.473" y="600.756" type="line"/>
      <point x="527.903" y="574.406"/>
      <point x="528.994" y="548.03"/>
      <point x="530.041" y="521.768" type="curve" smooth="yes"/>
      <point x="532.535" y="440.233"/>
      <point x="532.82" y="358.583"/>
      <point x="531.529" y="277" type="curve"/>
      <point x="552.824" y="293.027" type="line"/>
      <point x="552.226" y="374.008"/>
      <point x="550.938" y="454.988"/>
      <point x="548.518" y="535.896" type="curve" smooth="yes"/>
      <point x="547.479" y="562.485"/>
      <point x="546.405" y="589.185"/>
      <point x="545.018" y="615.867" type="curve"/>
      <point x="548.504" y="618.707" type="line"/>
      <point x="544.827" y="635.987"/>
      <point x="544.997" y="654.172"/>
      <point x="545.697" y="672.049" type="curve" smooth="yes"/>
      <point x="547.461" y="709.522"/>
      <point x="555.413" y="743.878"/>
      <point x="564.637" y="778.529" type="curve" smooth="yes"/>
      <point x="575.605" y="816.38"/>
      <point x="589.95" y="852.191"/>
      <point x="608.4" y="883.164" type="curve" smooth="yes"/>
      <point x="612.211" y="889.561"/>
      <point x="616.384" y="895.466"/>
      <point x="620.375" y="901.617" type="curve" smooth="yes"/>
      <point x="629.25" y="912.904"/>
      <point x="632.23" y="917.378"/>
      <point x="638.607" y="923.822" type="curve"/>
      <point x="638.601" y="923.544"/>
      <point x="638.742" y="923.338"/>
      <point x="639.086" y="923.244" type="curve" smooth="yes"/>
      <point x="644.067" y="921.882"/>
      <point x="648.625" y="928.435"/>
      <point x="653.574" y="930.031" type="curve" smooth="yes"/>
      <point x="667.284" y="934.452"/>
      <point x="669.694" y="932.518"/>
      <point x="683.529" y="930.604" type="curve" smooth="yes"/>
      <point x="688.673" y="928.157"/>
      <point x="694.01" y="926.465"/>
      <point x="698.961" y="923.264" type="curve" smooth="yes"/>
      <point x="724.861" y="906.515"/>
      <point x="745.138" y="872.933"/>
      <point x="760.459" y="838.805" type="curve" smooth="yes"/>
      <point x="765.602" y="827.349"/>
      <point x="769.951" y="815.156"/>
      <point x="774.697" y="803.332" type="curve" smooth="yes"/>
      <point x="802.15" y="724.756"/>
      <point x="815.613" y="637.817"/>
      <point x="822.762" y="550.488" type="curve" smooth="yes"/>
      <point x="824.42" y="530.228"/>
      <point x="825.387" y="509.857"/>
      <point x="826.699" y="489.541" type="curve" smooth="yes"/>
      <point x="830.116" y="409.909"/>
      <point x="828.657" y="329.967"/>
      <point x="824.203" y="250.494" type="curve" smooth="yes"/>
      <point x="821.908" y="209.534"/>
      <point x="820.367" y="193.997"/>
      <point x="817.068" y="154.279" type="curve"/>
      <point x="837.547" y="169.307" type="line"/>
      <point x="844.568" y="280.304"/>
      <point x="849.489" y="391.902"/>
      <point x="844.645" y="503.377" type="curve" smooth="yes"/>
      <point x="843.41" y="523.81"/>
      <point x="842.505" y="544.293"/>
      <point x="840.939" y="564.676" type="curve" smooth="yes"/>
      <point x="834.176" y="652.757"/>
      <point x="821.439" y="740.604"/>
      <point x="794.971" y="820.65" type="curve" smooth="yes"/>
      <point x="790.372" y="832.744"/>
      <point x="786.166" y="845.183"/>
      <point x="781.174" y="856.93" type="curve" smooth="yes"/>
      <point x="766.251" y="892.047"/>
      <point x="746.463" y="926.829"/>
      <point x="720.607" y="944.965" type="curve" smooth="yes"/>
      <point x="715.629" y="948.457"/>
      <point x="710.231" y="950.457"/>
      <point x="705.043" y="953.203" type="curve" smooth="yes"/>
      <point x="690.949" y="955.796"/>
      <point x="688.54" y="957.913"/>
      <point x="674.455" y="953.898" type="curve" smooth="yes"/>
      <point x="654.841" y="948.308"/>
      <point x="640.618" y="933.228"/>
      <point x="622.797" y="917.689" type="curve" smooth="yes"/>
      <point x="618.029" y="913.532"/>
      <point x="613.551" y="908.649"/>
      <point x="609.211" y="903.568" type="curve" smooth="yes"/>
      <point x="604.754" y="898.35"/>
      <point x="600.7" y="892.417"/>
      <point x="596.445" y="886.842" type="curve" smooth="yes"/>
      <point x="592.501" y="880.607"/>
      <point x="588.387" y="874.6"/>
      <point x="584.613" y="868.139" type="curve" smooth="yes"/>
      <point x="566.169" y="836.563"/>
      <point x="551.732" y="800.334"/>
      <point x="540.611" y="762.078" type="curve" smooth="yes"/>
      <point x="538.672" y="754.879"/>
      <point x="536.783" y="747.641"/>
      <point x="534.979" y="740.359" type="curve"/>
      <point x="532.193" y="763.674"/>
      <point x="528.786" y="786.815"/>
      <point x="524.537" y="809.691" type="curve" smooth="yes"/>
      <point x="521.776" y="824.559"/>
      <point x="518.116" y="839.03"/>
      <point x="514.906" y="853.699" type="curve" smooth="yes"/>
      <point x="506.011" y="882.373"/>
      <point x="502.997" y="897.361"/>
      <point x="489.527" y="921.512" type="curve" smooth="yes"/>
      <point x="475.788" y="946.147"/>
      <point x="457.117" y="963.976"/>
      <point x="435.504" y="968.5" type="curve" smooth="yes"/>
      <point x="432.849" y="969.056"/>
      <point x="430.174" y="969.238"/>
    </contour>
  </outline>
</glyph>
<glyph name="Capital N" format="1">
  <advance width="1024"/>
  <unicode hex="004E"/>
  <outline>
    <contour>
      <point x="820.143" y="984.926" type="curve"/>
      <point x="791.877" y="975.197" type="line"/>
      <point x="760.384" y="928.045"/>
      <point x="729.911" y="880.486"/>
      <point x="701.055" y="832.354" type="curve" smooth="yes"/>
      <point x="684.974" y="804.195"/>
      <point x="679.012" y="794.606"/>
      <point x="664.545" y="765.842" type="curve" smooth="yes"/>
      <point x="641.759" y="720.537"/>
      <point x="622.887" y="674.112"/>
      <point x="608.205" y="626.887" type="curve" smooth="yes"/>
      <point x="604.828" y="615.309"/>
      <point x="601.178" y="603.775"/>
      <point x="598.074" y="592.152" type="curve" smooth="yes"/>
      <point x="583.342" y="536.983"/>
      <point x="575.225" y="480.896"/>
      <point x="569.891" y="424.783" type="curve" smooth="yes"/>
      <point x="569.116" y="414.487"/>
      <point x="568.382" y="404.187"/>
      <point x="567.715" y="393.885" type="curve"/>
      <point x="563.578" y="412.51"/>
      <point x="559.47" y="431.138"/>
      <point x="555.232" y="449.754" type="curve" smooth="yes"/>
      <point x="538.044" y="525.29"/>
      <point x="520.798" y="601.007"/>
      <point x="489.902" y="675.039" type="curve" smooth="yes"/>
      <point x="476.708" y="703.437"/>
      <point x="472.847" y="713.939"/>
      <point x="456.178" y="741.363" type="curve" smooth="yes"/>
      <point x="434.036" y="777.792"/>
      <point x="405.009" y="812.589"/>
      <point x="370.402" y="845.248" type="curve" smooth="yes"/>
      <point x="363.202" y="851.69"/>
      <point x="356.237" y="858.231"/>
      <point x="348.801" y="864.574" type="curve" smooth="yes"/>
      <point x="327.511" y="882.735"/>
      <point x="303.666" y="899.727"/>
      <point x="278.092" y="915.717" type="curve"/>
      <point x="273.205" y="913.877" type="line" smooth="yes"/>
      <point x="273.052" y="914.053"/>
      <point x="272.902" y="914.23"/>
      <point x="272.748" y="914.406" type="curve" smooth="yes"/>
      <point x="264.008" y="910.412" type="line"/>
      <point x="234.236" y="899.201" type="line" smooth="yes"/>
      <point x="237.909" y="897.417"/>
      <point x="241.517" y="895.586"/>
      <point x="245.066" y="893.713" type="curve" smooth="yes"/>
      <point x="251.004" y="887.631"/>
      <point x="256.418" y="881.253"/>
      <point x="261.676" y="874.82" type="curve" smooth="yes"/>
      <point x="276.005" y="857.921"/>
      <point x="288.156" y="840.048"/>
      <point x="299.344" y="821.84" type="curve" smooth="yes"/>
      <point x="319.213" y="787.235"/>
      <point x="330.49" y="750.386"/>
      <point x="340.148" y="713.479" type="curve" smooth="yes"/>
      <point x="350.139" y="668.93"/>
      <point x="354.691" y="623.717"/>
      <point x="355.195" y="578.535" type="curve" smooth="yes"/>
      <point x="355.305" y="568.747"/>
      <point x="354.979" y="558.958"/>
      <point x="354.871" y="549.17" type="curve" smooth="yes"/>
      <point x="354.144" y="490.669"/>
      <point x="345.529" y="432.558"/>
      <point x="334.568" y="374.74" type="curve" smooth="yes"/>
      <point x="327.047" y="337.386"/>
      <point x="317.023" y="300.364"/>
      <point x="304.514" y="263.809" type="curve"/>
      <point x="334.863" y="274.932" type="line"/>
      <point x="345.944" y="311.356"/>
      <point x="355.093" y="348.105"/>
      <point x="362.152" y="385.117" type="curve" smooth="yes"/>
      <point x="372.435" y="443.006"/>
      <point x="380.882" y="501.142"/>
      <point x="381.783" y="559.631" type="curve" smooth="yes"/>
      <point x="381.895" y="569.448"/>
      <point x="382.202" y="579.266"/>
      <point x="382.119" y="589.084" type="curve" smooth="yes"/>
      <point x="381.737" y="634.568"/>
      <point x="377.779" y="680.101"/>
      <point x="368.506" y="725.049" type="curve" smooth="yes"/>
      <point x="359.59" y="761.875"/>
      <point x="349.181" y="798.661"/>
      <point x="330.812" y="833.514" type="curve"/>
      <point x="331.476" y="832.955"/>
      <point x="332.128" y="832.391"/>
      <point x="332.795" y="831.834" type="curve" smooth="yes"/>
      <point x="368.585" y="799.899"/>
      <point x="398.279" y="765.515"/>
      <point x="421.033" y="729.457" type="curve" smooth="yes"/>
      <point x="438.03" y="702.524"/>
      <point x="442.237" y="691.685"/>
      <point x="455.736" y="663.758" type="curve" smooth="yes"/>
      <point x="487.711" y="590.042"/>
      <point x="505.084" y="514.462"/>
      <point x="521.605" y="439.031" type="curve" smooth="yes"/>
      <point x="535.077" y="377.14"/>
      <point x="546.051" y="315.062"/>
      <point x="560.98" y="253.289" type="curve"/>
      <point x="598.971" y="265.469" type="line" smooth="yes"/>
      <point x="598.389" y="267.533"/>
      <point x="597.827" y="269.597"/>
      <point x="597.256" y="271.662" type="curve" smooth="yes"/>
      <point x="599.135" y="272.395" type="line"/>
      <point x="598.801" y="284.672"/>
      <point x="597.6" y="296.914"/>
      <point x="596.713" y="309.174" type="curve" smooth="yes"/>
      <point x="593.484" y="351.172"/>
      <point x="594.933" y="393.244"/>
      <point x="597.076" y="435.246" type="curve" smooth="yes"/>
      <point x="601.029" y="491.071"/>
      <point x="609.009" y="546.835"/>
      <point x="623.607" y="601.654" type="curve" smooth="yes"/>
      <point x="626.694" y="613.244"/>
      <point x="630.338" y="624.741"/>
      <point x="633.703" y="636.285" type="curve" smooth="yes"/>
      <point x="648.292" y="683.397"/>
      <point x="667.061" y="729.724"/>
      <point x="689.908" y="774.877" type="curve" smooth="yes"/>
      <point x="704.293" y="803.306"/>
      <point x="710.67" y="813.519"/>
      <point x="726.693" y="841.34" type="curve" smooth="yes"/>
      <point x="755.873" y="889.938"/>
      <point x="787.126" y="937.791"/>
    </contour>
  </outline>
</glyph>
<glyph name="Capital O" format="1">
  <advance width="1024"/>
  <unicode hex="004F"/>
  <outline>
    <contour>
      <point x="609.773" y="903.117" type="curve" smooth="yes"/>
      <point x="599.571" y="918.259"/>
      <point x="586.634" y="929.675"/>
      <point x="573.087" y="938.368" type="curve" smooth="yes"/>
      <point x="568.747" y="941.153"/>
      <point x="564.24" y="943.414"/>
      <point x="559.817" y="945.937" type="curve" smooth="yes"/>
      <point x="554.739" y="948.048"/>
      <point x="549.745" y="950.59"/>
      <point x="544.582" y="952.271" type="curve" smooth="yes"/>
      <point x="518.037" y="960.918"/>
      <point x="489.954" y="960.657"/>
      <point x="463.158" y="954.469" type="curve" smooth="yes"/>
      <point x="454.941" y="952.571"/>
      <point x="446.865" y="949.66"/>
      <point x="438.719" y="947.256" type="curve" smooth="yes"/>
      <point x="411.574" y="937.745"/>
      <point x="386.006" y="922.204"/>
      <point x="361.491" y="903.775" type="curve" smooth="yes"/>
      <point x="359.277" y="902.11"/>
      <point x="357.367" y="899.772"/>
      <point x="355.303" y="897.775" type="curve" smooth="yes"/>
      <point x="321.988" y="865.539"/>
      <point x="338.24" y="882.578"/>
      <point x="307.079" y="847.339" type="curve" smooth="yes"/>
      <point x="279.418" y="812.678"/>
      <point x="255.285" y="772.395"/>
      <point x="243.202" y="722.919" type="curve" smooth="yes"/>
      <point x="235.09" y="689.705"/>
      <point x="236.171" y="680.978"/>
      <point x="234.163" y="646.134" type="curve" smooth="yes"/>
      <point x="234.87" y="632.43"/>
      <point x="234.89" y="618.626"/>
      <point x="236.285" y="605.022" type="curve" smooth="yes"/>
      <point x="242.349" y="545.882"/>
      <point x="259.978" y="488.633"/>
      <point x="283.532" y="438.789" type="curve" smooth="yes"/>
      <point x="289.539" y="426.077"/>
      <point x="296.489" y="414.256"/>
      <point x="302.967" y="401.99" type="curve" smooth="yes"/>
      <point x="310.219" y="390.94"/>
      <point x="317.008" y="379.278"/>
      <point x="324.723" y="368.839" type="curve" smooth="yes"/>
      <point x="346.955" y="338.756"/>
      <point x="373.098" y="314.009"/>
      <point x="401.956" y="297.581" type="curve" smooth="yes"/>
      <point x="426.675" y="283.51"/>
      <point x="433.389" y="283.682"/>
      <point x="459.366" y="277" type="curve" smooth="yes"/>
      <point x="469.043" y="276.426"/>
      <point x="478.718" y="274.788"/>
      <point x="488.397" y="275.277" type="curve" smooth="yes"/>
      <point x="520.135" y="276.88"/>
      <point x="546.54" y="289.307"/>
      <point x="574.753" y="308.484" type="curve" smooth="yes"/>
      <point x="577.983" y="310.679"/>
      <point x="580.883" y="313.713"/>
      <point x="583.787" y="316.647" type="curve" smooth="yes"/>
      <point x="593.058" y="326.016"/>
      <point x="602.104" y="335.799"/>
      <point x="611.263" y="345.376" type="curve" smooth="yes"/>
      <point x="647.373" y="388.101"/>
      <point x="677.197" y="439.902"/>
      <point x="698.199" y="498.837" type="curve" smooth="yes"/>
      <point x="711.715" y="536.765"/>
      <point x="713.49" y="549.657"/>
      <point x="722.673" y="589.631" type="curve" smooth="yes"/>
      <point x="732.985" y="647.194"/>
      <point x="737.939" y="707.158"/>
      <point x="731.073" y="766.123" type="curve" smooth="yes"/>
      <point x="726.904" y="801.924"/>
      <point x="723.96" y="807.342"/>
      <point x="714.64" y="840.581" type="curve" smooth="yes"/>
      <point x="710.147" y="851.181"/>
      <point x="706.212" y="862.268"/>
      <point x="701.162" y="872.381" type="curve" smooth="yes"/>
      <point x="686.908" y="900.92"/>
      <point x="668.29" y="924.457"/>
      <point x="646.059" y="940.76" type="curve" smooth="yes"/>
      <point x="627.726" y="954.205"/>
      <point x="623.262" y="954"/>
      <point x="603.579" y="960.71" type="curve" smooth="yes"/>
      <point x="584.718" y="963.859"/>
      <point x="565.576" y="963.774"/>
      <point x="547.847" y="953.045" type="curve" smooth="yes"/>
      <point x="543.342" y="950.318"/>
      <point x="532.686" y="948.438"/>
      <point x="535.182" y="942.599" type="curve" smooth="yes"/>
      <point x="544.318" y="921.226"/>
      <point x="557.439" y="975.507"/>
      <point x="545.673" y="935.612" type="curve" smooth="yes"/>
      <point x="545.993" y="930.793"/>
      <point x="545.524" y="925.747"/>
      <point x="546.633" y="921.155" type="curve" smooth="yes"/>
      <point x="551.635" y="900.447"/>
      <point x="567.643" y="887.657"/>
      <point x="581.476" y="880.601" type="curve" smooth="yes"/>
      <point x="588.804" y="876.863"/>
      <point x="596.56" y="874.958"/>
      <point x="604.102" y="872.136" type="curve"/>
      <point x="604.102" y="872.136"/>
      <point x="584.029" y="853.128"/>
      <point x="584.029" y="853.128" type="curve"/>
      <point x="584.029" y="853.128" type="line"/>
      <point x="576.128" y="855.885"/>
      <point x="568.023" y="857.705"/>
      <point x="560.327" y="861.4" type="curve" smooth="yes"/>
      <point x="545.276" y="868.627"/>
      <point x="528.308" y="881.678"/>
      <point x="522.384" y="903.666" type="curve" smooth="yes"/>
      <point x="521.022" y="908.723"/>
      <point x="521.33" y="914.355"/>
      <point x="520.803" y="919.699" type="curve" smooth="yes"/>
      <point x="528.606" y="950.26"/>
      <point x="522.342" y="934.762"/>
      <point x="555.849" y="965.601" type="curve" smooth="yes"/>
      <point x="576.192" y="984.325"/>
      <point x="600.637" y="984.721"/>
      <point x="624.033" y="980.089" type="curve" smooth="yes"/>
      <point x="643.646" y="972.759"/>
      <point x="648.285" y="972.719"/>
      <point x="666.505" y="958.838" type="curve" smooth="yes"/>
      <point x="688.802" y="941.852"/>
      <point x="707.436" y="917.736"/>
      <point x="721.654" y="888.664" type="curve" smooth="yes"/>
      <point x="726.702" y="878.342"/>
      <point x="730.621" y="867.055"/>
      <point x="735.104" y="856.25" type="curve" smooth="yes"/>
      <point x="744.417" y="822.274"/>
      <point x="747.263" y="817.176"/>
      <point x="751.31" y="780.644" type="curve" smooth="yes"/>
      <point x="757.914" y="721.04"/>
      <point x="752.71" y="660.537"/>
      <point x="742.345" y="602.401" type="curve" smooth="yes"/>
      <point x="733.22" y="562.485"/>
      <point x="731.272" y="548.893"/>
      <point x="717.916" y="510.977" type="curve" smooth="yes"/>
      <point x="697.092" y="451.864"/>
      <point x="667.475" y="399.75"/>
      <point x="631.614" y="356.55" type="curve" smooth="yes"/>
      <point x="622.589" y="346.922"/>
      <point x="614.086" y="336.289"/>
      <point x="604.54" y="327.666" type="curve" smooth="yes"/>
      <point x="581.858" y="307.176"/>
      <point x="554.467" y="284.696"/>
      <point x="528.042" y="271.893" type="curve" smooth="yes"/>
      <point x="499.63" y="258.128"/>
      <point x="470.329" y="253.885"/>
      <point x="440.457" y="258.838" type="curve" smooth="yes"/>
      <point x="414.43" y="265.942"/>
      <point x="407.652" y="265.896"/>
      <point x="382.926" y="280.349" type="curve" smooth="yes"/>
      <point x="343.585" y="303.346"/>
      <point x="310.665" y="341.084"/>
      <point x="283.859" y="386.442" type="curve" smooth="yes"/>
      <point x="277.373" y="398.821"/>
      <point x="270.437" y="410.775"/>
      <point x="264.401" y="423.577" type="curve" smooth="yes"/>
      <point x="240.746" y="473.75"/>
      <point x="222.597" y="531.082"/>
      <point x="215.937" y="590.477" type="curve" smooth="yes"/>
      <point x="214.403" y="604.153"/>
      <point x="214.253" y="618.054"/>
      <point x="213.412" y="631.843" type="curve" smooth="yes"/>
      <point x="215.103" y="666.768"/>
      <point x="213.952" y="675.995"/>
      <point x="221.82" y="709.383" type="curve" smooth="yes"/>
      <point x="233.65" y="759.581"/>
      <point x="257.974" y="800.384"/>
      <point x="285.821" y="835.546" type="curve" smooth="yes"/>
      <point x="293.565" y="844.379"/>
      <point x="301.076" y="853.614"/>
      <point x="309.053" y="862.045" type="curve" smooth="yes"/>
      <point x="332.614" y="886.947"/>
      <point x="352.46" y="902.769"/>
      <point x="379.505" y="923.626" type="curve" smooth="yes"/>
      <point x="395.93" y="936.293"/>
      <point x="414.387" y="947.819"/>
      <point x="432.152" y="956.487" type="curve" smooth="yes"/>
      <point x="440.603" y="960.61"/>
      <point x="449.306" y="963.684"/>
      <point x="457.883" y="967.283" type="curve" smooth="yes"/>
      <point x="466.187" y="969.721"/>
      <point x="474.421" y="972.67"/>
      <point x="482.795" y="974.596" type="curve" smooth="yes"/>
      <point x="510.239" y="980.909"/>
      <point x="539.001" y="981.23"/>
      <point x="566.22" y="972.617" type="curve" smooth="yes"/>
      <point x="571.53" y="970.937"/>
      <point x="576.675" y="968.388"/>
      <point x="581.903" y="966.273" type="curve" smooth="yes"/>
      <point x="586.471" y="963.751"/>
      <point x="591.117" y="961.481"/>
      <point x="595.606" y="958.706" type="curve" smooth="yes"/>
      <point x="609.814" y="949.924"/>
      <point x="623.141" y="938.372"/>
      <point x="634.877" y="924.29" type="curve"/>
      <point x="634.877" y="924.29"/>
      <point x="609.773" y="903.117"/>
    </contour>
  </outline>
</glyph>
<glyph name="Capital P" format="1">
  <advance width="1024"/>
  <unicode hex="0050"/>
  <outline>
    <contour>
      <point x="482.52" y="973.818" type="curve" smooth="yes"/>
      <point x="456.255" y="973.88"/>
      <point x="430.092" y="970.451"/>
      <point x="404.602" y="963.924" type="curve" smooth="yes"/>
      <point x="392.093" y="960.099"/>
      <point x="377.801" y="956.344"/>
      <point x="365.992" y="950.406" type="curve" smooth="yes"/>
      <point x="339.729" y="937.2"/>
      <point x="313.539" y="922.653"/>
      <point x="291.363" y="903.148" type="curve" smooth="yes"/>
      <point x="282.113" y="894.039"/>
      <point x="270.949" y="884.207"/>
      <point x="268.785" y="870.703" type="curve"/>
      <point x="295.215" y="884.168" type="line" smooth="yes"/>
      <point x="295.273" y="884.442"/>
      <point x="295.355" y="884.707"/>
      <point x="295.422" y="884.979" type="curve"/>
      <point x="303.584" y="876.858"/>
      <point x="308.949" y="866.058"/>
      <point x="314.342" y="856.041" type="curve" smooth="yes"/>
      <point x="331.394" y="823.685"/>
      <point x="341.258" y="788.353"/>
      <point x="350.447" y="753.15" type="curve" smooth="yes"/>
      <point x="361.108" y="709.62"/>
      <point x="367.189" y="664.994"/>
      <point x="369.566" y="620.256" type="curve" smooth="yes"/>
      <point x="370.09" y="610.405"/>
      <point x="370.257" y="600.538"/>
      <point x="370.604" y="590.68" type="curve" smooth="yes"/>
      <point x="370.776" y="578.945"/>
      <point x="370.708" y="567.207"/>
      <point x="370.402" y="555.475" type="curve"/>
      <point x="363.86" y="555.702"/>
      <point x="362.645" y="555.804"/>
      <point x="342.787" y="556.869" type="curve"/>
      <point x="322.795" y="542.479" type="line"/>
      <point x="353.227" y="541.441"/>
      <point x="341.614" y="541.769"/>
      <point x="369.908" y="541.193" type="curve"/>
      <point x="368.916" y="518.277"/>
      <point x="366.969" y="495.405"/>
      <point x="363.957" y="472.66" type="curve" smooth="yes"/>
      <point x="360.84" y="449.123"/>
      <point x="358.852" y="440.237"/>
      <point x="354.498" y="417.066" type="curve" smooth="yes"/>
      <point x="348.006" y="387.409"/>
      <point x="340.097" y="358.001"/>
      <point x="329.48" y="329.535" type="curve" smooth="yes"/>
      <point x="324.917" y="317.3"/>
      <point x="323.054" y="313.355"/>
      <point x="318.102" y="301.916" type="curve" smooth="yes"/>
      <point x="314.974" y="295.013"/>
      <point x="311.737" y="288.152"/>
      <point x="308.131" y="281.484" type="curve" smooth="yes"/>
      <point x="307.219" y="279.799"/>
      <point x="305.499" y="277.903"/>
      <point x="305.762" y="275.893" type="curve" smooth="yes"/>
      <point x="332.424" y="289.438" type="line" smooth="yes"/>
      <point x="332.771" y="288.887"/>
      <point x="333.203" y="290.713"/>
      <point x="334.385" y="293.416" type="curve" smooth="yes"/>
      <point x="337.242" y="299.951"/>
      <point x="339.931" y="306.559"/>
      <point x="342.537" y="313.197" type="curve" smooth="yes"/>
      <point x="346.14" y="322.61"/>
      <point x="349.341" y="330.75"/>
      <point x="352.625" y="340.393" type="curve" smooth="yes"/>
      <point x="362.296" y="368.793"/>
      <point x="369.518" y="397.988"/>
      <point x="375.607" y="427.344" type="curve" smooth="yes"/>
      <point x="379.653" y="449.87"/>
      <point x="381.777" y="460.084"/>
      <point x="384.691" y="482.941" type="curve" smooth="yes"/>
      <point x="387.15" y="502.226"/>
      <point x="388.86" y="521.595"/>
      <point x="389.904" y="541.002" type="curve"/>
      <point x="448.99" y="540.611"/>
      <point x="508.251" y="541.966"/>
      <point x="566.566" y="552.404" type="curve" smooth="yes"/>
      <point x="594.138" y="558.229"/>
      <point x="604.058" y="559.492"/>
      <point x="630.721" y="568.404" type="curve" smooth="yes"/>
      <point x="661.76" y="578.78"/>
      <point x="676.254" y="586.945"/>
      <point x="707.215" y="604.656" type="curve" smooth="yes"/>
      <point x="715.647" y="609.48"/>
      <point x="723.848" y="614.751"/>
      <point x="731.646" y="620.543" type="curve" smooth="yes"/>
      <point x="738.942" y="625.962"/>
      <point x="745.485" y="632.327"/>
      <point x="752.404" y="638.219" type="curve" smooth="yes"/>
      <point x="766.751" y="654.963"/>
      <point x="771.76" y="658.701"/>
      <point x="781.637" y="678.336" type="curve" smooth="yes"/>
      <point x="792.163" y="699.262"/>
      <point x="796.935" y="722.212"/>
      <point x="796.064" y="745.588" type="curve" smooth="yes"/>
      <point x="795.773" y="753.424"/>
      <point x="794.303" y="761.174"/>
      <point x="793.422" y="768.967" type="curve" smooth="yes"/>
      <point x="787.654" y="790.458"/>
      <point x="787.51" y="795.128"/>
      <point x="777.529" y="815.389" type="curve" smooth="yes"/>
      <point x="761.639" y="847.646"/>
      <point x="737.52" y="874.219"/>
      <point x="709.059" y="895.895" type="curve" smooth="yes"/>
      <point x="701.261" y="901.196"/>
      <point x="693.677" y="906.83"/>
      <point x="685.664" y="911.801" type="curve" smooth="yes"/>
      <point x="644.996" y="937.029"/>
      <point x="599.769" y="954.547"/>
      <point x="553.293" y="965.479" type="curve" smooth="yes"/>
      <point x="530.234" y="969.809"/>
      <point x="524.019" y="971.711"/>
      <point x="500.713" y="973.213" type="curve" smooth="yes"/>
      <point x="494.648" y="973.604"/>
      <point x="488.581" y="973.804"/>
    </contour>
    <contour>
      <point x="463.002" y="959.564" type="curve" smooth="yes"/>
      <point x="469.091" y="959.616"/>
      <point x="475.188" y="959.479"/>
      <point x="481.285" y="959.148" type="curve" smooth="yes"/>
      <point x="504.396" y="957.896"/>
      <point x="511.02" y="955.99"/>
      <point x="533.91" y="951.924" type="curve" smooth="yes"/>
      <point x="580.378" y="941.473"/>
      <point x="625.636" y="924.349"/>
      <point x="666.187" y="899.127" type="curve" smooth="yes"/>
      <point x="674.129" y="894.187"/>
      <point x="681.638" y="888.584"/>
      <point x="689.363" y="883.312" type="curve" smooth="yes"/>
      <point x="717.476" y="861.799"/>
      <point x="741.229" y="835.435"/>
      <point x="756.729" y="803.402" type="curve" smooth="yes"/>
      <point x="766.532" y="783.141"/>
      <point x="766.513" y="778.833"/>
      <point x="772.023" y="757.361" type="curve" smooth="yes"/>
      <point x="772.801" y="749.652"/>
      <point x="774.165" y="741.98"/>
      <point x="774.357" y="734.234" type="curve" smooth="yes"/>
      <point x="774.931" y="711.177"/>
      <point x="769.953" y="688.581"/>
      <point x="759.369" y="668.057" type="curve" smooth="yes"/>
      <point x="749.451" y="648.824"/>
      <point x="744.525" y="645.217"/>
      <point x="730.264" y="628.859" type="curve" smooth="yes"/>
      <point x="710.967" y="612.717"/>
      <point x="708.079" y="608.822"/>
      <point x="685.596" y="596.234" type="curve" smooth="yes"/>
      <point x="683.305" y="594.952"/>
      <point x="680.517" y="594.869"/>
      <point x="678.059" y="593.947" type="curve" smooth="yes"/>
      <point x="668.131" y="590.227"/>
      <point x="658.481" y="585.767"/>
      <point x="648.455" y="582.318" type="curve" smooth="yes"/>
      <point x="621.622" y="573.089"/>
      <point x="611.956" y="571.839"/>
      <point x="584.184" y="565.783" type="curve" smooth="yes"/>
      <point x="520.485" y="553.923"/>
      <point x="455.588" y="553.381"/>
      <point x="391.047" y="554.771" type="curve" smooth="yes"/>
      <point x="390.798" y="554.78"/>
      <point x="390.775" y="554.78"/>
      <point x="390.531" y="554.789" type="curve"/>
      <point x="391.113" y="570.252"/>
      <point x="391.288" y="585.732"/>
      <point x="391.082" y="601.203" type="curve" smooth="yes"/>
      <point x="390.749" y="611.098"/>
      <point x="390.571" y="621"/>
      <point x="390.084" y="630.889" type="curve" smooth="yes"/>
      <point x="387.864" y="675.944"/>
      <point x="382.248" y="720.898"/>
      <point x="372.113" y="764.877" type="curve" smooth="yes"/>
      <point x="363.339" y="800.544"/>
      <point x="353.997" y="836.325"/>
      <point x="338.137" y="869.625" type="curve" smooth="yes"/>
      <point x="332.014" y="882.092"/>
      <point x="325.954" y="895.199"/>
      <point x="315.746" y="904.926" type="curve"/>
      <point x="299.773" y="894.893" type="line" smooth="yes"/>
      <point x="304.282" y="901.985"/>
      <point x="310.99" y="907.984"/>
      <point x="316.76" y="913.643" type="curve" smooth="yes"/>
      <point x="327.611" y="923.075"/>
      <point x="339.232" y="931.892"/>
      <point x="351.977" y="938.65" type="curve" smooth="yes"/>
      <point x="354.165" y="939.811"/>
      <point x="343.551" y="933.66"/>
      <point x="345.941" y="934.313" type="curve" smooth="yes"/>
      <point x="352.373" y="936.069"/>
      <point x="358.132" y="939.738"/>
      <point x="364.389" y="942.041" type="curve" smooth="yes"/>
      <point x="371.115" y="944.517"/>
      <point x="378.034" y="946.439"/>
      <point x="384.855" y="948.639" type="curve" smooth="yes"/>
      <point x="410.365" y="955.579"/>
      <point x="436.614" y="959.342"/>
    </contour>
  </outline>
</glyph>
<glyph name="Capital Q" format="1">
  <advance width="1024"/>
  <unicode hex="0051"/>
  <outline>
    <contour>
      <point x="545.305" y="921.713" type="curve" smooth="yes"/>
      <point x="533.8" y="921.792"/>
      <point x="522.27" y="920.851"/>
      <point x="510.867" y="919.193" type="curve" smooth="yes"/>
      <point x="503.567" y="918.132"/>
      <point x="496.335" y="916.543"/>
      <point x="489.07" y="915.217" type="curve" smooth="yes"/>
      <point x="463.393" y="909.168"/>
      <point x="438.161" y="900.498"/>
      <point x="414.273" y="888.359" type="curve" smooth="yes"/>
      <point x="390.664" y="876.362"/>
      <point x="361.761" y="856.989"/>
      <point x="341.586" y="841.975" type="curve" smooth="yes"/>
      <point x="332.495" y="835.209"/>
      <point x="324.281" y="827.104"/>
      <point x="315.629" y="819.668" type="curve" smooth="yes"/>
      <point x="280.409" y="786.043"/>
      <point x="248.684" y="747.462"/>
      <point x="225.746" y="702.426" type="curve" smooth="yes"/>
      <point x="210.02" y="671.55"/>
      <point x="208.82" y="663.307"/>
      <point x="198.146" y="630.096" type="curve" smooth="yes"/>
      <point x="195.606" y="617.443"/>
      <point x="192.284" y="604.951"/>
      <point x="190.523" y="592.137" type="curve" smooth="yes"/>
      <point x="185.299" y="554.117"/>
      <point x="187.454" y="515.625"/>
      <point x="196.266" y="478.465" type="curve" smooth="yes"/>
      <point x="203.827" y="446.575"/>
      <point x="209.003" y="437.674"/>
      <point x="221.459" y="407.939" type="curve" smooth="yes"/>
      <point x="227.24" y="397.311"/>
      <point x="232.472" y="386.294"/>
      <point x="238.801" y="376.055" type="curve" smooth="yes"/>
      <point x="256.621" y="347.226"/>
      <point x="279.06" y="320.804"/>
      <point x="306.047" y="302.27" type="curve" smooth="yes"/>
      <point x="328.872" y="286.593"/>
      <point x="336.606" y="285.823"/>
      <point x="361.934" y="277" type="curve" smooth="yes"/>
      <point x="371.972" y="275.527"/>
      <point x="381.935" y="273.099"/>
      <point x="392.051" y="272.58" type="curve" smooth="yes"/>
      <point x="424.352" y="270.925"/>
      <point x="455.689" y="279.437"/>
      <point x="484.758" y="294.689" type="curve" smooth="yes"/>
      <point x="498.368" y="301.831"/>
      <point x="512.02" y="311.07"/>
      <point x="525.297" y="320.76" type="curve"/>
      <point x="546.247" y="285.138"/>
      <point x="565.443" y="248.454"/>
      <point x="588.42" y="214.061" type="curve" smooth="yes"/>
      <point x="593.525" y="206.419"/>
      <point x="598.989" y="199.023"/>
      <point x="604.273" y="191.504" type="curve" smooth="yes"/>
      <point x="624.595" y="164.674"/>
      <point x="648.282" y="139.713"/>
      <point x="679.209" y="125.156" type="curve" smooth="yes"/>
      <point x="699.341" y="115.68"/>
      <point x="706.531" y="115.59"/>
      <point x="728.336" y="111.125" type="curve" smooth="yes"/>
      <point x="767.635" y="106.758"/>
      <point x="806.34" y="113.654"/>
      <point x="843.107" y="127.633" type="curve" smooth="yes"/>
      <point x="852.775" y="131.309"/>
      <point x="862.088" y="135.858"/>
      <point x="871.578" y="139.971" type="curve" smooth="yes"/>
      <point x="889.389" y="154.068" type="line" smooth="yes"/>
      <point x="879.965" y="149.92"/>
      <point x="870.721" y="145.34"/>
      <point x="861.119" y="141.623" type="curve" smooth="yes"/>
      <point x="824.904" y="127.606"/>
      <point x="786.76" y="120.559"/>
      <point x="747.941" y="124.777" type="curve" smooth="yes"/>
      <point x="726.486" y="129.11"/>
      <point x="719.426" y="129.2"/>
      <point x="699.566" y="138.387" type="curve" smooth="yes"/>
      <point x="668.805" y="152.616"/>
      <point x="644.942" y="177.009"/>
      <point x="624.535" y="203.453" type="curve" smooth="yes"/>
      <point x="619.218" y="210.908"/>
      <point x="613.699" y="218.222"/>
      <point x="608.586" y="225.818" type="curve" smooth="yes"/>
      <point x="584.963" y="260.911"/>
      <point x="565.712" y="298.649"/>
      <point x="544.771" y="335.346" type="curve"/>
      <point x="550.801" y="339.936"/>
      <point x="556.708" y="344.452"/>
      <point x="562.428" y="348.709" type="curve" smooth="yes"/>
      <point x="599.026" y="382.372"/>
      <point x="631.174" y="422.04"/>
      <point x="654.545" y="468.102" type="curve" smooth="yes"/>
      <point x="669.102" y="496.791"/>
      <point x="670.807" y="505.548"/>
      <point x="680.992" y="536.057" type="curve" smooth="yes"/>
      <point x="692.461" y="578.154"/>
      <point x="697.035" y="622.105"/>
      <point x="692.592" y="665.889" type="curve" smooth="yes"/>
      <point x="690.002" y="691.405"/>
      <point x="688.017" y="695.507"/>
      <point x="681.838" y="719.715" type="curve" smooth="yes"/>
      <point x="672.992" y="748.811"/>
      <point x="657.697" y="774.053"/>
      <point x="639.51" y="796.949" type="curve" smooth="yes"/>
      <point x="633.65" y="804.327"/>
      <point x="624.532" y="814.494"/>
      <point x="618.193" y="821.678" type="curve" smooth="yes"/>
      <point x="613.458" y="827.029"/>
      <point x="608.158" y="832.631"/>
      <point x="603.986" y="838.625" type="curve" smooth="yes"/>
      <point x="602.685" y="840.494"/>
      <point x="601.661" y="842.579"/>
      <point x="600.498" y="844.557" type="curve" smooth="yes"/>
      <point x="576.002" y="828.57" type="line"/>
      <point x="581.794" y="820.379"/>
      <point x="588.356" y="813.089"/>
      <point x="595.49" y="806.279" type="curve" smooth="yes"/>
      <point x="603.271" y="798.111"/>
      <point x="610.178" y="791.107"/>
      <point x="617.498" y="782.314" type="curve" smooth="yes"/>
      <point x="635.94" y="760.162"/>
      <point x="651.309" y="735.393"/>
      <point x="660.471" y="706.834" type="curve" smooth="yes"/>
      <point x="666.791" y="683.151"/>
      <point x="668.855" y="678.905"/>
      <point x="671.635" y="653.887" type="curve" smooth="yes"/>
      <point x="676.435" y="610.677"/>
      <point x="672.101" y="567.265"/>
      <point x="660.803" y="525.662" type="curve" smooth="yes"/>
      <point x="650.704" y="495.402"/>
      <point x="649.061" y="486.817"/>
      <point x="634.572" y="458.381" type="curve" smooth="yes"/>
      <point x="611.217" y="412.544"/>
      <point x="579.029" y="373.184"/>
      <point x="542.369" y="339.928" type="curve" smooth="yes"/>
      <point x="542.315" y="339.868"/>
      <point x="542.282" y="339.832"/>
      <point x="542.229" y="339.773" type="curve"/>
      <point x="541.339" y="341.318"/>
      <point x="540.452" y="342.866"/>
      <point x="539.555" y="344.406" type="curve" smooth="yes"/>
      <point x="519.616" y="377.754"/>
      <point x="499.357" y="411.682"/>
      <point x="470.631" y="438.357" type="curve" smooth="yes"/>
      <point x="467.399" y="440.977"/>
      <point x="464.293" y="443.761"/>
      <point x="460.936" y="446.217" type="curve" smooth="yes"/>
      <point x="451.067" y="453.436"/>
      <point x="439.783" y="458.072"/>
      <point x="428.266" y="461.924" type="curve"/>
      <point x="404.041" y="445.119" type="line"/>
      <point x="415.956" y="442.469"/>
      <point x="427.596" y="438.064"/>
      <point x="437.805" y="431.279" type="curve" smooth="yes"/>
      <point x="441.233" y="429.001"/>
      <point x="444.415" y="426.373"/>
      <point x="447.721" y="423.92" type="curve" smooth="yes"/>
      <point x="477.337" y="398.472"/>
      <point x="498.145" y="365.038"/>
      <point x="518.496" y="332.182" type="curve" smooth="yes"/>
      <point x="520.49" y="328.886"/>
      <point x="522.458" y="325.574"/>
      <point x="524.416" y="322.256" type="curve" smooth="yes"/>
      <point x="520.096" y="319.375"/>
      <point x="513.985" y="316.159"/>
      <point x="502.25" y="309.883" type="curve" smooth="yes"/>
      <point x="473.61" y="294.566"/>
      <point x="442.686" y="285.866"/>
      <point x="410.736" y="287.188" type="curve" smooth="yes"/>
      <point x="400.714" y="287.602"/>
      <point x="390.829" y="289.907"/>
      <point x="380.875" y="291.268" type="curve" smooth="yes"/>
      <point x="355.768" y="299.747"/>
      <point x="347.98" y="300.488"/>
      <point x="325.279" y="315.74" type="curve" smooth="yes"/>
      <point x="298.321" y="333.853"/>
      <point x="275.775" y="359.797"/>
      <point x="257.924" y="388.314" type="curve" smooth="yes"/>
      <point x="251.586" y="398.44"/>
      <point x="246.355" y="409.36"/>
      <point x="240.57" y="419.883" type="curve" smooth="yes"/>
      <point x="228.134" y="449.572"/>
      <point x="223.128" y="458.041"/>
      <point x="215.631" y="489.896" type="curve" smooth="yes"/>
      <point x="206.956" y="526.756"/>
      <point x="204.851" y="564.895"/>
      <point x="210.119" y="602.578" type="curve" smooth="yes"/>
      <point x="211.896" y="615.289"/>
      <point x="215.222" y="627.678"/>
      <point x="217.773" y="640.227" type="curve" smooth="yes"/>
      <point x="228.569" y="673.344"/>
      <point x="229.705" y="681.305"/>
      <point x="245.576" y="712.059" type="curve" smooth="yes"/>
      <point x="268.775" y="757.012"/>
      <point x="300.757" y="795.421"/>
      <point x="336.271" y="828.775" type="curve" smooth="yes"/>
      <point x="345.064" y="836.195"/>
      <point x="353.901" y="843.552"/>
      <point x="362.65" y="851.035" type="curve" smooth="yes"/>
      <point x="365.019" y="853.061"/>
      <point x="367.033" y="855.637"/>
      <point x="369.623" y="857.299" type="curve" smooth="yes"/>
      <point x="400.503" y="877.111"/>
      <point x="434.309" y="890.619"/>
      <point x="469.191" y="898.703" type="curve" smooth="yes"/>
      <point x="476.278" y="899.963"/>
      <point x="483.33" y="901.485"/>
      <point x="490.451" y="902.482" type="curve" smooth="yes"/>
      <point x="515.743" y="906.027"/>
      <point x="541.732" y="905.916"/>
      <point x="566.467" y="898.57" type="curve" smooth="yes"/>
      <point x="578.968" y="894.142"/>
      <point x="591.571" y="889.29"/>
      <point x="602.348" y="880.758" type="curve"/>
      <point x="627.26" y="898.572" type="line"/>
      <point x="615.338" y="906.25"/>
      <point x="602.365" y="911.28"/>
      <point x="589.229" y="915.709" type="curve" smooth="yes"/>
      <point x="574.848" y="919.824"/>
      <point x="560.097" y="921.611"/>
    </contour>
  </outline>
</glyph>
<glyph name="Capital R" format="1">
  <advance width="1024"/>
  <unicode hex="0052"/>
  <outline>
    <contour>
      <point x="354.002" y="954.469" type="curve" smooth="yes"/>
      <point x="328.199" y="954.411"/>
      <point x="302.447" y="950.636"/>
      <point x="278.666" y="940.279" type="curve" smooth="yes"/>
      <point x="257.391" y="928.575"/>
      <point x="234.974" y="918.241"/>
      <point x="217.246" y="901.277" type="curve"/>
      <point x="230.117" y="906.609" type="line"/>
      <point x="239.035" y="892.143"/>
      <point x="246.284" y="876.476"/>
      <point x="253.314" y="860.734" type="curve" smooth="yes"/>
      <point x="267.221" y="827.238"/>
      <point x="277.428" y="791.797"/>
      <point x="284.412" y="755.584" type="curve" smooth="yes"/>
      <point x="286.235" y="746.131"/>
      <point x="287.687" y="736.59"/>
      <point x="289.324" y="727.092" type="curve" smooth="yes"/>
      <point x="298.144" y="670.909"/>
      <point x="301.09" y="613.686"/>
      <point x="299.658" y="556.658" type="curve" smooth="yes"/>
      <point x="299.352" y="544.47"/>
      <point x="298.617" y="532.301"/>
      <point x="298.096" y="520.123" type="curve" smooth="yes"/>
      <point x="295.091" y="472.852"/>
      <point x="289.637" y="425.763"/>
      <point x="282.004" y="379.184" type="curve" smooth="yes"/>
      <point x="277.482" y="351.591"/>
      <point x="275.512" y="343.291"/>
      <point x="269.994" y="316.355" type="curve" smooth="yes"/>
      <point x="261.651" y="280.699"/>
      <point x="265.864" y="297.91"/>
      <point x="257.416" y="264.707" type="curve"/>
      <point x="279.914" y="277" type="line"/>
      <point x="287.44" y="309.843"/>
      <point x="283.637" y="292.804"/>
      <point x="291.291" y="328.133" type="curve" smooth="yes"/>
      <point x="296.378" y="354.562"/>
      <point x="298.367" y="363.717"/>
      <point x="302.613" y="390.744" type="curve" smooth="yes"/>
      <point x="309.941" y="437.38"/>
      <point x="315.298" y="484.459"/>
      <point x="318.188" y="531.736" type="curve" smooth="yes"/>
      <point x="318.698" y="543.946"/>
      <point x="319.409" y="556.148"/>
      <point x="319.719" y="568.367" type="curve" smooth="yes"/>
      <point x="321.172" y="625.77"/>
      <point x="318.708" y="683.379"/>
      <point x="310.518" y="740.072" type="curve" smooth="yes"/>
      <point x="308.993" y="749.689"/>
      <point x="307.656" y="759.347"/>
      <point x="305.945" y="768.922" type="curve" smooth="yes"/>
      <point x="299.389" y="805.626"/>
      <point x="289.723" y="841.638"/>
      <point x="276.762" y="876.029" type="curve" smooth="yes"/>
      <point x="270.386" y="891.803"/>
      <point x="263.716" y="907.381"/>
      <point x="256.258" y="922.52" type="curve" smooth="yes"/>
      <point x="258.159" y="923.944"/>
      <point x="260.104" y="925.312"/>
      <point x="262.113" y="926.6" type="curve" smooth="yes"/>
      <point x="264.874" y="928.369"/>
      <point x="273.264" y="933.488"/>
      <point x="270.586" y="931.596" type="curve" smooth="yes"/>
      <point x="266.326" y="928.585"/>
      <point x="261.764" y="926.024"/>
      <point x="257.354" y="923.238" type="curve"/>
      <point x="281.174" y="934.262"/>
      <point x="307.121" y="938.765"/>
      <point x="333.24" y="939.242" type="curve" smooth="yes"/>
      <point x="339.63" y="939.359"/>
      <point x="346.02" y="939.057"/>
      <point x="352.41" y="938.965" type="curve" smooth="yes"/>
      <point x="386.094" y="937.021"/>
      <point x="419.162" y="928.517"/>
      <point x="449.262" y="913.158" type="curve" smooth="yes"/>
      <point x="455.264" y="910.095"/>
      <point x="460.993" y="906.527"/>
      <point x="466.859" y="903.211" type="curve" smooth="yes"/>
      <point x="489.64" y="888.477"/>
      <point x="510.623" y="870.688"/>
      <point x="526.178" y="848.242" type="curve" smooth="yes"/>
      <point x="536.528" y="833.306"/>
      <point x="537.458" y="829"/>
      <point x="544.703" y="812.445" type="curve" smooth="yes"/>
      <point x="553.485" y="786.665"/>
      <point x="555.793" y="759.58"/>
      <point x="549.887" y="732.875" type="curve" smooth="yes"/>
      <point x="545.913" y="714.908"/>
      <point x="543.224" y="711.327"/>
      <point x="535.629" y="694.609" type="curve" smooth="yes"/>
      <point x="518.628" y="664.19"/>
      <point x="496.638" y="642.009"/>
      <point x="467.076" y="623.801" type="curve" smooth="yes"/>
      <point x="464.559" y="622.25"/>
      <point x="471.92" y="627.196"/>
      <point x="474.342" y="628.893" type="curve"/>
      <point x="460.503" y="622.902"/>
      <point x="445.749" y="618.851"/>
      <point x="430.898" y="620.238" type="curve"/>
      <point x="425.938" y="625.277"/>
      <point x="420.344" y="629.606"/>
      <point x="413.75" y="632.648" type="curve" smooth="yes"/>
      <point x="412.417" y="633.025"/>
      <point x="411.022" y="634.329"/>
      <point x="409.752" y="633.777" type="curve" smooth="yes"/>
      <point x="399.486" y="629.321"/>
      <point x="375.616" y="622.265"/>
      <point x="382.834" y="613.713" type="curve" smooth="yes"/>
      <point x="384.757" y="611.434"/>
      <point x="387.92" y="610.025"/>
      <point x="390.387" y="608.633" type="curve" smooth="yes"/>
      <point x="392.549" y="607.853"/>
      <point x="394.661" y="606.918"/>
      <point x="396.873" y="606.295" type="curve" smooth="yes"/>
      <point x="400.822" y="605.183"/>
      <point x="404.772" y="604.479"/>
      <point x="408.715" y="604.102" type="curve" smooth="yes"/>
      <point x="416.241" y="596.704"/>
      <point x="422.305" y="587.517"/>
      <point x="428.102" y="579.141" type="curve" smooth="yes"/>
      <point x="443.953" y="554.527"/>
      <point x="455.903" y="527.723"/>
      <point x="469.205" y="501.717" type="curve" smooth="yes"/>
      <point x="472.631" y="495.018"/>
      <point x="476.18" y="488.383"/>
      <point x="479.668" y="481.717" type="curve" smooth="yes"/>
      <point x="501.773" y="440.122"/>
      <point x="529.621" y="401.928"/>
      <point x="561.742" y="367.516" type="curve" smooth="yes"/>
      <point x="569.337" y="359.38"/>
      <point x="577.343" y="351.637"/>
      <point x="585.143" y="343.697" type="curve" smooth="yes"/>
      <point x="631.552" y="299.223"/>
      <point x="682.511" y="259.305"/>
      <point x="737.766" y="226.348" type="curve" smooth="yes"/>
      <point x="750.298" y="218.872"/>
      <point x="763.241" y="212.108"/>
      <point x="775.979" y="204.988" type="curve" smooth="yes"/>
      <point x="830.559" y="179.046"/>
      <point x="802.662" y="191.09"/>
      <point x="859.701" y="168.93" type="curve"/>
      <point x="875.615" y="179.609" type="line"/>
      <point x="818.977" y="201.81"/>
      <point x="846.667" y="189.738"/>
      <point x="792.516" y="215.752" type="curve" smooth="yes"/>
      <point x="779.899" y="222.904"/>
      <point x="767.066" y="229.689"/>
      <point x="754.664" y="237.207" type="curve" smooth="yes"/>
      <point x="699.972" y="270.361"/>
      <point x="649.787" y="310.641"/>
      <point x="604.059" y="355.254" type="curve" smooth="yes"/>
      <point x="596.379" y="363.219"/>
      <point x="588.483" y="370.982"/>
      <point x="581.02" y="379.15" type="curve" smooth="yes"/>
      <point x="549.428" y="413.73"/>
      <point x="522.371" y="452.194"/>
      <point x="501.115" y="493.955" type="curve" smooth="yes"/>
      <point x="497.759" y="500.678"/>
      <point x="494.339" y="507.369"/>
      <point x="491.047" y="514.123" type="curve" smooth="yes"/>
      <point x="478.183" y="540.514"/>
      <point x="466.634" y="567.635"/>
      <point x="451.328" y="592.76" type="curve" smooth="yes"/>
      <point x="448.071" y="597.777"/>
      <point x="444.754" y="602.932"/>
      <point x="441.17" y="607.881" type="curve"/>
      <point x="445.509" y="609.203"/>
      <point x="449.8" y="610.786"/>
      <point x="454.021" y="612.582" type="curve" smooth="yes"/>
      <point x="471.555" y="622.34"/>
      <point x="489.933" y="631.106"/>
      <point x="505.973" y="643.371" type="curve" smooth="yes"/>
      <point x="527.689" y="659.977"/>
      <point x="545.549" y="680.966"/>
      <point x="558.453" y="705.053" type="curve" smooth="yes"/>
      <point x="565.959" y="722.015"/>
      <point x="568.715" y="725.823"/>
      <point x="572.547" y="744.014" type="curve" smooth="yes"/>
      <point x="578.265" y="771.163"/>
      <point x="575.588" y="798.68"/>
      <point x="566.668" y="824.805" type="curve" smooth="yes"/>
      <point x="559.279" y="841.636"/>
      <point x="558.343" y="845.968"/>
      <point x="547.82" y="861.16" type="curve" smooth="yes"/>
      <point x="532.097" y="883.861"/>
      <point x="510.937" y="901.905"/>
      <point x="488.002" y="916.961" type="curve" smooth="yes"/>
      <point x="482.091" y="920.332"/>
      <point x="476.316" y="923.952"/>
      <point x="470.27" y="927.074" type="curve" smooth="yes"/>
      <point x="440.082" y="942.665"/>
      <point x="406.907" y="951.477"/>
      <point x="373.072" y="953.908" type="curve" smooth="yes"/>
      <point x="366.716" y="954.095"/>
      <point x="360.361" y="954.483"/>
    </contour>
    <contour>
      <point x="408.576" y="630.775" type="curve" smooth="yes"/>
      <point x="409.013" y="630.755"/>
      <point x="409.339" y="630.645"/>
      <point x="409.102" y="630.484" type="curve" smooth="yes"/>
      <point x="408.555" y="630.114"/>
      <point x="407.994" y="629.763"/>
      <point x="407.439" y="629.404" type="curve"/>
      <point x="407.235" y="629.792"/>
      <point x="407.102" y="630.275"/>
      <point x="407.379" y="630.531" type="curve" smooth="yes"/>
      <point x="407.59" y="630.726"/>
      <point x="408.139" y="630.796"/>
    </contour>
  </outline>
</glyph>
<glyph name="Capital S" format="1">
  <advance width="1024"/>
  <unicode hex="0053"/>
  <outline>
    <contour>
      <point x="642.489" y="928.777" type="curve" smooth="yes"/>
      <point x="636.5" y="934.435"/>
      <point x="629.137" y="938.395"/>
      <point x="621.802" y="942.01" type="curve" smooth="yes"/>
      <point x="607.249" y="948.795"/>
      <point x="591.364" y="951.493"/>
      <point x="575.572" y="953.544" type="curve" smooth="yes"/>
      <point x="558.108" y="955.078"/>
      <point x="540.322" y="954.188"/>
      <point x="523.39" y="949.361" type="curve" smooth="yes"/>
      <point x="519.943" y="948.379"/>
      <point x="516.601" y="947.061"/>
      <point x="513.207" y="945.91" type="curve" smooth="yes"/>
      <point x="510.086" y="944.416"/>
      <point x="500.889" y="939.627"/>
      <point x="503.845" y="941.426" type="curve" smooth="yes"/>
      <point x="508.749" y="944.409"/>
      <point x="513.445" y="948.317"/>
      <point x="519.067" y="949.476" type="curve" smooth="yes"/>
      <point x="522.265" y="950.135"/>
      <point x="513.954" y="945.385"/>
      <point x="511.68" y="943.041" type="curve" smooth="yes"/>
      <point x="503.525" y="934.635"/>
      <point x="501.072" y="927.767"/>
      <point x="497.295" y="917.018" type="curve" smooth="yes"/>
      <point x="496.662" y="913.471"/>
      <point x="495.74" y="909.963"/>
      <point x="495.397" y="906.376" type="curve" smooth="yes"/>
      <point x="493.168" y="883.08"/>
      <point x="501.17" y="859.348"/>
      <point x="508.363" y="837.598" type="curve" smooth="yes"/>
      <point x="523.17" y="797.657"/>
      <point x="539.44" y="758.267"/>
      <point x="555.724" y="718.91" type="curve" smooth="yes"/>
      <point x="572.253" y="680.029"/>
      <point x="589.285" y="641.335"/>
      <point x="603.833" y="601.65" type="curve" smooth="yes"/>
      <point x="606.864" y="593.38"/>
      <point x="609.692" y="585.037"/>
      <point x="612.621" y="576.73" type="curve" smooth="yes"/>
      <point x="625.489" y="537.391"/>
      <point x="636.823" y="497.083"/>
      <point x="640.416" y="455.683" type="curve" smooth="yes"/>
      <point x="641.053" y="448.353"/>
      <point x="641.135" y="440.985"/>
      <point x="641.494" y="433.637" type="curve" smooth="yes"/>
      <point x="641.257" y="405.746"/>
      <point x="635.746" y="378.17"/>
      <point x="622.171" y="353.57" type="curve" smooth="yes"/>
      <point x="613.326" y="337.542"/>
      <point x="609.703" y="334.872"/>
      <point x="597.757" y="321.209" type="curve" smooth="yes"/>
      <point x="592.756" y="316.876"/>
      <point x="588.048" y="312.18"/>
      <point x="582.755" y="308.209" type="curve" smooth="yes"/>
      <point x="577.541" y="304.298"/>
      <point x="572.024" y="300.768"/>
      <point x="566.316" y="297.622" type="curve" smooth="yes"/>
      <point x="542.551" y="284.526"/>
      <point x="532.026" y="276.652"/>
      <point x="508.312" y="272.868" type="curve" smooth="yes"/>
      <point x="491.417" y="270.173"/>
      <point x="485.263" y="271.583"/>
      <point x="468.211" y="272.746" type="curve" smooth="yes"/>
      <point x="421.186" y="280.215"/>
      <point x="378.097" y="301.387"/>
      <point x="336.195" y="323.01" type="curve" smooth="yes"/>
      <point x="319.976" y="332.08"/>
      <point x="311.599" y="336.394"/>
      <point x="296.145" y="346.47" type="curve" smooth="yes"/>
      <point x="290.142" y="350.385"/>
      <point x="284.365" y="354.637"/>
      <point x="278.474" y="358.72" type="curve"/>
      <point x="278.474" y="358.72"/>
      <point x="299.39" y="372.045"/>
      <point x="299.39" y="372.045" type="curve"/>
      <point x="299.39" y="372.045" type="line"/>
      <point x="317.72" y="359.077"/>
      <point x="336.258" y="346.431"/>
      <point x="356.321" y="336.215" type="curve" smooth="yes"/>
      <point x="398.161" y="314.594"/>
      <point x="441.367" y="293.758"/>
      <point x="488.544" y="287.339" type="curve" smooth="yes"/>
      <point x="505.727" y="286.508"/>
      <point x="511.508" y="285.233"/>
      <point x="528.444" y="288.281" type="curve" smooth="yes"/>
      <point x="534.678" y="289.404"/>
      <point x="540.474" y="293.083"/>
      <point x="546.808" y="293.172" type="curve" smooth="yes"/>
      <point x="548.868" y="293.201"/>
      <point x="540.9" y="287.648"/>
      <point x="542.783" y="288.483" type="curve" smooth="yes"/>
      <point x="555.122" y="293.952"/>
      <point x="564.473" y="302.984"/>
      <point x="574.637" y="311.473" type="curve" smooth="yes"/>
      <point x="586.682" y="324.795"/>
      <point x="590.408" y="327.471"/>
      <point x="599.389" y="343.201" type="curve" smooth="yes"/>
      <point x="613.197" y="367.385"/>
      <point x="618.952" y="394.74"/>
      <point x="619.586" y="422.359" type="curve" smooth="yes"/>
      <point x="619.335" y="429.695"/>
      <point x="619.372" y="437.046"/>
      <point x="618.833" y="444.366" type="curve" smooth="yes"/>
      <point x="615.784" y="485.718"/>
      <point x="604.813" y="526.066"/>
      <point x="591.985" y="565.315" type="curve" smooth="yes"/>
      <point x="589.048" y="573.595"/>
      <point x="586.22" y="581.914"/>
      <point x="583.175" y="590.155" type="curve" smooth="yes"/>
      <point x="568.542" y="629.757"/>
      <point x="551.354" y="668.342"/>
      <point x="534.62" y="707.081" type="curve" smooth="yes"/>
      <point x="518.026" y="746.293"/>
      <point x="501.31" y="785.472"/>
      <point x="485.678" y="825.078" type="curve" smooth="yes"/>
      <point x="477.838" y="847.094"/>
      <point x="469.363" y="870.547"/>
      <point x="470.844" y="894.356" type="curve" smooth="yes"/>
      <point x="471.074" y="898.047"/>
      <point x="471.9" y="901.676"/>
      <point x="472.428" y="905.337" type="curve" smooth="yes"/>
      <point x="474.955" y="913.384"/>
      <point x="475.636" y="917.312"/>
      <point x="480.07" y="924.552" type="curve" smooth="yes"/>
      <point x="491.951" y="943.952"/>
      <point x="514.9" y="953.761"/>
      <point x="534.845" y="962.695" type="curve" smooth="yes"/>
      <point x="538.269" y="963.761"/>
      <point x="541.648" y="964.984"/>
      <point x="545.118" y="965.893" type="curve" smooth="yes"/>
      <point x="562.401" y="970.421"/>
      <point x="580.445" y="971.225"/>
      <point x="598.171" y="969.521" type="curve" smooth="yes"/>
      <point x="614.386" y="967.417"/>
      <point x="630.681" y="964.612"/>
      <point x="645.658" y="957.738" type="curve" smooth="yes"/>
      <point x="653.338" y="954.017"/>
      <point x="660.817" y="949.879"/>
      <point x="667.597" y="944.658" type="curve"/>
      <point x="667.597" y="944.658"/>
      <point x="642.489" y="928.777"/>
    </contour>
  </outline>
</glyph>
<glyph name="Capital T" format="1">
  <advance width="1024"/>
  <unicode hex="0054"/>
  <outline>
    <contour>
      <point x="347.189" y="965.188" type="curve" smooth="yes"/>
      <point x="333.194" y="965.239"/>
      <point x="319.677" y="963.851"/>
      <point x="305.461" y="959.361" type="curve" smooth="yes"/>
      <point x="283.096" y="952.253"/>
      <point x="262.835" y="941.493"/>
      <point x="243.736" y="927.561" type="curve"/>
      <point x="266.695" y="936.828" type="line" smooth="yes"/>
      <point x="264.56" y="935.465"/>
      <point x="262.612" y="934.226"/>
      <point x="259.867" y="932.451" type="curve" smooth="yes"/>
      <point x="257.61" y="930.992"/>
      <point x="264.664" y="934.884"/>
      <point x="267.109" y="936" type="curve" smooth="yes"/>
      <point x="274.822" y="939.521"/>
      <point x="275.377" y="939.49"/>
      <point x="283.486" y="942.293" type="curve" smooth="yes"/>
      <point x="296.149" y="946.315"/>
      <point x="309.246" y="948.685"/>
      <point x="322.531" y="949.102" type="curve" smooth="yes"/>
      <point x="331.265" y="949.375"/>
      <point x="335.743" y="948.953"/>
      <point x="344.541" y="948.498" type="curve" smooth="yes"/>
      <point x="371.851" y="946.425"/>
      <point x="398.28" y="938.97"/>
      <point x="424.664" y="932.094" type="curve" smooth="yes"/>
      <point x="439.663" y="928.065"/>
      <point x="454.672" y="924.001"/>
      <point x="469.779" y="920.367" type="curve"/>
      <point x="469.143" y="920" type="line"/>
      <point x="471.061" y="908.767"/>
      <point x="473.814" y="897.734"/>
      <point x="476.68" y="886.748" type="curve" smooth="yes"/>
      <point x="483.859" y="859.293"/>
      <point x="489.366" y="831.398"/>
      <point x="494.1" y="803.346" type="curve" smooth="yes"/>
      <point x="502.486" y="754.042"/>
      <point x="503.327" y="703.888"/>
      <point x="503.107" y="653.924" type="curve" smooth="yes"/>
      <point x="502.254" y="610.673"/>
      <point x="499.586" y="567.441"/>
      <point x="494.768" y="524.488" type="curve" smooth="yes"/>
      <point x="491.669" y="496.869"/>
      <point x="489.914" y="487.327"/>
      <point x="485.709" y="460.064" type="curve" smooth="yes"/>
      <point x="479.522" y="423.885"/>
      <point x="471.428" y="387.8"/>
      <point x="456.838" y="354.373" type="curve" smooth="yes"/>
      <point x="448.649" y="335.612"/>
      <point x="446.679" y="333.786"/>
      <point x="436.225" y="317.061" type="curve" smooth="yes"/>
      <point x="427.635" y="304.887"/>
      <point x="417.419" y="294.833"/>
      <point x="405.939" y="286.275" type="curve" smooth="yes"/>
      <point x="405.868" y="286.354"/>
      <point x="405.732" y="286.406"/>
      <point x="405.508" y="286.42" type="curve" smooth="yes"/>
      <point x="400.522" y="286.732"/>
      <point x="396.252" y="282.325"/>
      <point x="391.479" y="280.738" type="curve" smooth="yes"/>
      <point x="386.884" y="279.211"/>
      <point x="382.131" y="278.307"/>
      <point x="377.457" y="277.092" type="curve" smooth="yes"/>
      <point x="359.742" y="274.917"/>
      <point x="368.494" y="275.256"/>
      <point x="351.205" y="275.947" type="curve"/>
      <point x="329.418" y="259.012" type="line"/>
      <point x="347.204" y="258.003"/>
      <point x="338.205" y="257.79"/>
      <point x="356.41" y="259.771" type="curve" smooth="yes"/>
      <point x="361.187" y="260.925"/>
      <point x="366.041" y="261.76"/>
      <point x="370.742" y="263.234" type="curve" smooth="yes"/>
      <point x="390.273" y="269.361"/>
      <point x="402.41" y="278.328"/>
      <point x="421.643" y="290.598" type="curve" smooth="yes"/>
      <point x="436.591" y="300.134"/>
      <point x="448.986" y="313.159"/>
      <point x="459.422" y="328.039" type="curve" smooth="yes"/>
      <point x="469.447" y="344.901"/>
      <point x="471.283" y="346.646"/>
      <point x="479.062" y="365.449" type="curve" smooth="yes"/>
      <point x="492.919" y="398.938"/>
      <point x="500.35" y="434.905"/>
      <point x="506.17" y="470.879" type="curve" smooth="yes"/>
      <point x="507.723" y="481.422"/>
      <point x="509.401" y="491.944"/>
      <point x="510.83" y="502.508" type="curve" smooth="yes"/>
      <point x="518.127" y="556.439"/>
      <point x="522.299" y="610.873"/>
      <point x="523.896" y="665.338" type="curve" smooth="yes"/>
      <point x="524.545" y="715.817"/>
      <point x="524.378" y="766.504"/>
      <point x="517.041" y="816.508" type="curve" smooth="yes"/>
      <point x="512.744" y="844.916"/>
      <point x="507.565" y="873.152"/>
      <point x="501.225" y="901.117" type="curve" smooth="yes"/>
      <point x="500.265" y="905.445"/>
      <point x="499.321" y="909.786"/>
      <point x="498.463" y="914.145" type="curve"/>
      <point x="507.969" y="912.339"/>
      <point x="514.771" y="911.345"/>
      <point x="526.268" y="909.521" type="curve" smooth="yes"/>
      <point x="556.25" y="905.441"/>
      <point x="586.632" y="903.742"/>
      <point x="616.885" y="904.832" type="curve" smooth="yes"/>
      <point x="622.661" y="905.04"/>
      <point x="628.425" y="905.494"/>
      <point x="634.195" y="905.824" type="curve" smooth="yes"/>
      <point x="657.327" y="908.163"/>
      <point x="681.358" y="909.603"/>
      <point x="703.367" y="917.852" type="curve" smooth="yes"/>
      <point x="706.53" y="919.037"/>
      <point x="709.53" y="920.617"/>
      <point x="712.611" y="922" type="curve" smooth="yes"/>
      <point x="734.133" y="939.137" type="line" smooth="yes"/>
      <point x="731.045" y="937.603"/>
      <point x="728.056" y="935.852"/>
      <point x="724.869" y="934.535" type="curve" smooth="yes"/>
      <point x="703.062" y="925.526"/>
      <point x="678.139" y="923.639"/>
      <point x="654.961" y="921.105" type="curve" smooth="yes"/>
      <point x="649.188" y="920.728"/>
      <point x="643.422" y="920.226"/>
      <point x="637.643" y="919.975" type="curve" smooth="yes"/>
      <point x="607.474" y="918.663"/>
      <point x="577.15" y="920.21"/>
      <point x="547.24" y="924.264" type="curve" smooth="yes"/>
      <point x="533.583" y="926.408"/>
      <point x="525.585" y="927.5"/>
      <point x="512.049" y="930.268" type="curve" smooth="yes"/>
      <point x="506.499" y="931.402"/>
      <point x="500.97" y="932.634"/>
      <point x="495.457" y="933.938" type="curve" smooth="yes"/>
      <point x="495.419" y="934.334"/>
      <point x="495.37" y="934.728"/>
      <point x="495.336" y="935.125" type="curve" smooth="yes"/>
      <point x="493.924" y="934.311" type="line"/>
      <point x="477.947" y="938.129"/>
      <point x="462.103" y="942.532"/>
      <point x="446.299" y="946.969" type="curve" smooth="yes"/>
      <point x="420.076" y="954.081"/>
      <point x="393.844" y="961.81"/>
      <point x="366.682" y="964.381" type="curve" smooth="yes"/>
      <point x="360.012" y="964.844"/>
      <point x="353.551" y="965.164"/>
    </contour>
  </outline>
</glyph>
